M48
;DRILL file {KiCad 4.0.6+dfsg1-1} date Sun Mar 11 01:01:15 2018
;FORMAT={2:4/ absolute / inch / suppress leading zeros}
FMAT,2
INCH,TZ
T1C0.016
T2C0.030
T3C0.031
T4C0.032
T5C0.039
T6C0.051
T7C0.125
%
G90
G05
M72
T1
X4783Y14524
X4783Y14130
X4783Y13736
X5472Y14524
X5472Y14130
X5472Y13736
X6161Y14524
X6161Y14130
X6161Y13736
X6260Y9689
X6535Y16378
X7913Y5157
X10472Y3898
X11850Y15472
X13622Y14803
X13622Y7835
X15394Y8504
X15404Y9301
X24232Y21693
X26289Y10236
X26299Y11752
X26683Y19744
X26811Y16890
X29331Y17205
X33425Y8012
X33445Y6555
X34252Y6929
X34665Y6850
X34705Y7579
X38976Y25020
X38996Y2215
X41388Y14547
X46496Y5600
X47283Y3927
X48071Y5600
X48307Y8770
X49291Y15896
T2
X9791Y26106
X9791Y19606
X9791Y18606
X9791Y17606
X9791Y16606
X9791Y15106
X11535Y11744
X11535Y10744
X11535Y9244
X11535Y8244
X11535Y744
X16791Y26106
X16791Y18606
X16791Y17606
X16791Y16106
X16791Y15106
X18535Y11744
X18535Y10244
X18535Y9244
X18535Y8244
X18535Y7244
X18535Y744
X19240Y26106
X19240Y19606
X19240Y18606
X19240Y17606
X19240Y16606
X19240Y15106
X20000Y11744
X20000Y10744
X20000Y9244
X20000Y8244
X20000Y744
X26240Y26106
X26240Y18606
X26240Y17606
X26240Y16106
X26240Y15106
X27000Y11744
X27000Y10244
X27000Y9244
X27000Y8244
X27000Y7244
X27000Y744
X28465Y11744
X28465Y10744
X28465Y9244
X28465Y8244
X28465Y744
X28689Y26106
X28689Y19606
X28689Y18606
X28689Y17606
X28689Y16606
X28689Y15106
X35465Y11744
X35465Y10244
X35465Y9244
X35465Y8244
X35465Y7244
X35465Y744
X35689Y26106
X35689Y18606
X35689Y17606
X35689Y16106
X35689Y15106
X39516Y26508
X39516Y19508
X39516Y17256
X39516Y10256
X39516Y8004
X39516Y1004
X40516Y19508
X40516Y10256
X40516Y1004
X41016Y26508
X41016Y17256
X41016Y8004
X42016Y26508
X42016Y19508
X42016Y17256
X42016Y10256
X42016Y8004
X42016Y1004
X43016Y26508
X43016Y19508
X43016Y17256
X43016Y10256
X43016Y8004
X43016Y1004
X44016Y26508
X44016Y17256
X44016Y8004
X50516Y26508
X50516Y19508
X50516Y17256
X50516Y10256
X50516Y8004
X50516Y1004
T3
X13228Y2441
X16228Y2441
T4
X9636Y23189
X10636Y23189
X11636Y23189
X12636Y23189
X13236Y4189
X13636Y23189
X14236Y4189
X14636Y23189
X15236Y4189
X15636Y23189
X16236Y4189
X16636Y23189
X17236Y4189
X18236Y23189
X18236Y4189
X19236Y23189
X20236Y23189
X20236Y4189
X21236Y23189
X21236Y4189
X22236Y23189
X22236Y4189
X23236Y23189
X23236Y4189
X24236Y23189
X24236Y4189
X25236Y23189
X25236Y4189
X26236Y4189
X27236Y23189
X27236Y4189
X28236Y23189
X29236Y23189
X29236Y4189
X30236Y23189
X30236Y4189
X31236Y23189
X31236Y4189
X32236Y23189
X32236Y4189
X33236Y23189
X33236Y4189
X34236Y23189
X34236Y4189
X35236Y4189
X36236Y4189
X37236Y23189
X37236Y22189
X37236Y21189
X37236Y20189
X37236Y19189
X37236Y18189
X37236Y17189
X37236Y16189
X37236Y15189
X37236Y14189
X37236Y13189
X37236Y12189
X37236Y11189
X37236Y10189
X37236Y9189
X37236Y8189
X37236Y7189
X37236Y6189
X38236Y23189
X38236Y22189
X38236Y21189
X38236Y20189
X38236Y19189
X38236Y18189
X38236Y17189
X38236Y16189
X38236Y15189
X38236Y14189
X38236Y13189
X38236Y12189
X38236Y11189
X38236Y10189
X38236Y9189
X38236Y8189
X38236Y7189
X38236Y6189
T5
X2992Y26252
X2992Y25252
X2992Y24252
X2992Y22906
X2992Y21906
X2992Y20906
X2992Y19559
X2992Y18559
X2992Y17559
X9772Y20709
X10772Y20709
X11772Y20709
X12772Y20709
X13772Y20709
X14772Y20709
X15772Y20709
X16772Y20709
X19220Y20709
X20217Y2894
X20217Y1811
X20220Y20709
X21217Y2894
X21217Y1811
X21220Y20709
X22217Y2894
X22217Y1811
X22220Y20709
X23217Y2894
X23217Y1811
X23220Y20709
X24217Y2894
X24217Y1811
X24220Y20709
X25217Y2894
X25217Y1811
X25220Y20709
X26217Y2894
X26217Y1811
X26220Y20709
X27217Y2894
X27217Y1811
X28669Y20709
X29272Y2894
X29272Y1811
X29669Y20709
X30272Y2894
X30272Y1811
X30669Y20709
X31272Y2894
X31272Y1811
X31669Y20709
X32272Y2894
X32272Y1811
X32669Y20709
X33272Y2894
X33272Y1811
X33669Y20709
X34272Y2894
X34272Y1811
X34669Y20709
X35272Y2894
X35272Y1811
X35669Y20709
X35736Y23189
X36272Y2894
X36272Y1811
T6
X2402Y14409
X2402Y12441
X2402Y4567
X2402Y2598
T7
X5736Y4189
X6236Y23189
X38236Y4189
T0
M30
