G04 #@! TF.FileFunction,Legend,Top*
%FSLAX46Y46*%
G04 Gerber Fmt 4.6, Leading zero omitted, Abs format (unit mm)*
G04 Created by KiCad (PCBNEW 4.0.6+dfsg1-1) date Sun Mar 11 01:01:58 2018*
%MOMM*%
%LPD*%
G01*
G04 APERTURE LIST*
%ADD10C,0.100000*%
%ADD11C,0.200000*%
%ADD12C,0.250000*%
%ADD13C,0.300000*%
%ADD14C,1.000000*%
%ADD15C,0.381000*%
%ADD16C,0.120000*%
%ADD17C,0.150000*%
%ADD18C,0.010000*%
G04 APERTURE END LIST*
D10*
D11*
X206700000Y-74800000D02*
X202750000Y-74800000D01*
X206700000Y-70400000D02*
X202750000Y-70400000D01*
X206700000Y-74800000D02*
X206700000Y-70400000D01*
X205471428Y-73778571D02*
X205471428Y-74311905D01*
X205280952Y-73473810D02*
X205090476Y-74045238D01*
X205585714Y-74045238D01*
X206233333Y-73511905D02*
X206080952Y-73511905D01*
X206004762Y-73550000D01*
X205966667Y-73588095D01*
X205890476Y-73702381D01*
X205852381Y-73854762D01*
X205852381Y-74159524D01*
X205890476Y-74235714D01*
X205928571Y-74273810D01*
X206004762Y-74311905D01*
X206157143Y-74311905D01*
X206233333Y-74273810D01*
X206271429Y-74235714D01*
X206309524Y-74159524D01*
X206309524Y-73969048D01*
X206271429Y-73892857D01*
X206233333Y-73854762D01*
X206157143Y-73816667D01*
X206004762Y-73816667D01*
X205928571Y-73854762D01*
X205890476Y-73892857D01*
X205852381Y-73969048D01*
X205421428Y-72478571D02*
X205421428Y-73011905D01*
X205230952Y-72173810D02*
X205040476Y-72745238D01*
X205535714Y-72745238D01*
X206221429Y-72211905D02*
X205840476Y-72211905D01*
X205802381Y-72592857D01*
X205840476Y-72554762D01*
X205916667Y-72516667D01*
X206107143Y-72516667D01*
X206183333Y-72554762D01*
X206221429Y-72592857D01*
X206259524Y-72669048D01*
X206259524Y-72859524D01*
X206221429Y-72935714D01*
X206183333Y-72973810D01*
X206107143Y-73011905D01*
X205916667Y-73011905D01*
X205840476Y-72973810D01*
X205802381Y-72935714D01*
X205421428Y-71078571D02*
X205421428Y-71611905D01*
X205230952Y-70773810D02*
X205040476Y-71345238D01*
X205535714Y-71345238D01*
X206183333Y-71078571D02*
X206183333Y-71611905D01*
X205992857Y-70773810D02*
X205802381Y-71345238D01*
X206297619Y-71345238D01*
D12*
X196252381Y-80504762D02*
X195252381Y-80504762D01*
X195252381Y-80123809D01*
X195300000Y-80028571D01*
X195347619Y-79980952D01*
X195442857Y-79933333D01*
X195585714Y-79933333D01*
X195680952Y-79980952D01*
X195728571Y-80028571D01*
X195776190Y-80123809D01*
X195776190Y-80504762D01*
X195252381Y-79600000D02*
X196252381Y-79361905D01*
X195538095Y-79171428D01*
X196252381Y-78980952D01*
X195252381Y-78742857D01*
X196252381Y-78361905D02*
X195252381Y-78361905D01*
X195966667Y-78028571D01*
X195252381Y-77695238D01*
X196252381Y-77695238D01*
D11*
X199700000Y-79000000D02*
X202700000Y-79000000D01*
X199700000Y-81500000D02*
X199700000Y-79000000D01*
X196500000Y-81500000D02*
X199700000Y-81500000D01*
X196500000Y-76400000D02*
X202700000Y-76400000D01*
D12*
X225714286Y-38385714D02*
X226428572Y-38385714D01*
X226000000Y-37957143D02*
X225714286Y-39242857D01*
X226333334Y-38814286D02*
X225619048Y-38814286D01*
X226047620Y-39242857D02*
X226333334Y-37957143D01*
X226761905Y-39052381D02*
X226761905Y-38385714D01*
X226761905Y-38052381D02*
X226714286Y-38100000D01*
X226761905Y-38147619D01*
X226809524Y-38100000D01*
X226761905Y-38052381D01*
X226761905Y-38147619D01*
X227142857Y-38385714D02*
X227380952Y-39052381D01*
X227619048Y-38385714D01*
X228428572Y-39052381D02*
X228428572Y-38528571D01*
X228380953Y-38433333D01*
X228285715Y-38385714D01*
X228095238Y-38385714D01*
X228000000Y-38433333D01*
X228428572Y-39004762D02*
X228333334Y-39052381D01*
X228095238Y-39052381D01*
X228000000Y-39004762D01*
X227952381Y-38909524D01*
X227952381Y-38814286D01*
X228000000Y-38719048D01*
X228095238Y-38671429D01*
X228333334Y-38671429D01*
X228428572Y-38623810D01*
X228904762Y-38385714D02*
X228904762Y-39052381D01*
X228904762Y-38480952D02*
X228952381Y-38433333D01*
X229047619Y-38385714D01*
X229190477Y-38385714D01*
X229285715Y-38433333D01*
X229333334Y-38528571D01*
X229333334Y-39052381D01*
X230238096Y-39052381D02*
X230238096Y-38528571D01*
X230190477Y-38433333D01*
X230095239Y-38385714D01*
X229904762Y-38385714D01*
X229809524Y-38433333D01*
X230238096Y-39004762D02*
X230142858Y-39052381D01*
X229904762Y-39052381D01*
X229809524Y-39004762D01*
X229761905Y-38909524D01*
X229761905Y-38814286D01*
X229809524Y-38719048D01*
X229904762Y-38671429D01*
X230142858Y-38671429D01*
X230238096Y-38623810D01*
X178452381Y-84419047D02*
X178452381Y-84990476D01*
X178452381Y-84704762D02*
X177452381Y-84704762D01*
X177595238Y-84800000D01*
X177690476Y-84895238D01*
X177738095Y-84990476D01*
X177547619Y-84038095D02*
X177500000Y-83990476D01*
X177452381Y-83895238D01*
X177452381Y-83657142D01*
X177500000Y-83561904D01*
X177547619Y-83514285D01*
X177642857Y-83466666D01*
X177738095Y-83466666D01*
X177880952Y-83514285D01*
X178452381Y-84085714D01*
X178452381Y-83466666D01*
X177452381Y-83180952D02*
X178452381Y-82847619D01*
X177452381Y-82514285D01*
X177452381Y-78090476D02*
X177452381Y-78566667D01*
X177928571Y-78614286D01*
X177880952Y-78566667D01*
X177833333Y-78471429D01*
X177833333Y-78233333D01*
X177880952Y-78138095D01*
X177928571Y-78090476D01*
X178023810Y-78042857D01*
X178261905Y-78042857D01*
X178357143Y-78090476D01*
X178404762Y-78138095D01*
X178452381Y-78233333D01*
X178452381Y-78471429D01*
X178404762Y-78566667D01*
X178357143Y-78614286D01*
X177452381Y-77757143D02*
X178452381Y-77423810D01*
X177452381Y-77090476D01*
X178452381Y-76757143D02*
X177452381Y-76757143D01*
X177452381Y-76519048D01*
X177500000Y-76376190D01*
X177595238Y-76280952D01*
X177690476Y-76233333D01*
X177880952Y-76185714D01*
X178023810Y-76185714D01*
X178214286Y-76233333D01*
X178309524Y-76280952D01*
X178404762Y-76376190D01*
X178452381Y-76519048D01*
X178452381Y-76757143D01*
X190257143Y-85652381D02*
X190257143Y-84652381D01*
X190638096Y-84652381D01*
X190733334Y-84700000D01*
X190780953Y-84747619D01*
X190828572Y-84842857D01*
X190828572Y-84985714D01*
X190780953Y-85080952D01*
X190733334Y-85128571D01*
X190638096Y-85176190D01*
X190257143Y-85176190D01*
X191733334Y-85652381D02*
X191257143Y-85652381D01*
X191257143Y-84652381D01*
X192257143Y-84652381D02*
X192352382Y-84652381D01*
X192447620Y-84700000D01*
X192495239Y-84747619D01*
X192542858Y-84842857D01*
X192590477Y-85033333D01*
X192590477Y-85271429D01*
X192542858Y-85461905D01*
X192495239Y-85557143D01*
X192447620Y-85604762D01*
X192352382Y-85652381D01*
X192257143Y-85652381D01*
X192161905Y-85604762D01*
X192114286Y-85557143D01*
X192066667Y-85461905D01*
X192019048Y-85271429D01*
X192019048Y-85033333D01*
X192066667Y-84842857D01*
X192114286Y-84747619D01*
X192161905Y-84700000D01*
X192257143Y-84652381D01*
X190257143Y-83052381D02*
X190257143Y-82052381D01*
X190638096Y-82052381D01*
X190733334Y-82100000D01*
X190780953Y-82147619D01*
X190828572Y-82242857D01*
X190828572Y-82385714D01*
X190780953Y-82480952D01*
X190733334Y-82528571D01*
X190638096Y-82576190D01*
X190257143Y-82576190D01*
X191733334Y-83052381D02*
X191257143Y-83052381D01*
X191257143Y-82052381D01*
X192590477Y-83052381D02*
X192019048Y-83052381D01*
X192304762Y-83052381D02*
X192304762Y-82052381D01*
X192209524Y-82195238D01*
X192114286Y-82290476D01*
X192019048Y-82338095D01*
X190657143Y-79452381D02*
X190657143Y-78452381D01*
X191038096Y-78452381D01*
X191133334Y-78500000D01*
X191180953Y-78547619D01*
X191228572Y-78642857D01*
X191228572Y-78785714D01*
X191180953Y-78880952D01*
X191133334Y-78928571D01*
X191038096Y-78976190D01*
X190657143Y-78976190D01*
X192133334Y-79452381D02*
X191657143Y-79452381D01*
X191657143Y-78452381D01*
X192419048Y-78547619D02*
X192466667Y-78500000D01*
X192561905Y-78452381D01*
X192800001Y-78452381D01*
X192895239Y-78500000D01*
X192942858Y-78547619D01*
X192990477Y-78642857D01*
X192990477Y-78738095D01*
X192942858Y-78880952D01*
X192371429Y-79452381D01*
X192990477Y-79452381D01*
X190257143Y-76852381D02*
X190257143Y-75852381D01*
X190638096Y-75852381D01*
X190733334Y-75900000D01*
X190780953Y-75947619D01*
X190828572Y-76042857D01*
X190828572Y-76185714D01*
X190780953Y-76280952D01*
X190733334Y-76328571D01*
X190638096Y-76376190D01*
X190257143Y-76376190D01*
X191733334Y-76852381D02*
X191257143Y-76852381D01*
X191257143Y-75852381D01*
X192495239Y-75852381D02*
X192304762Y-75852381D01*
X192209524Y-75900000D01*
X192161905Y-75947619D01*
X192066667Y-76090476D01*
X192019048Y-76280952D01*
X192019048Y-76661905D01*
X192066667Y-76757143D01*
X192114286Y-76804762D01*
X192209524Y-76852381D01*
X192400001Y-76852381D01*
X192495239Y-76804762D01*
X192542858Y-76757143D01*
X192590477Y-76661905D01*
X192590477Y-76423810D01*
X192542858Y-76328571D01*
X192495239Y-76280952D01*
X192400001Y-76233333D01*
X192209524Y-76233333D01*
X192114286Y-76280952D01*
X192066667Y-76328571D01*
X192019048Y-76423810D01*
D13*
X151580950Y-72257143D02*
X152247617Y-72257143D01*
X152533331Y-73304762D02*
X151580950Y-73304762D01*
X151580950Y-71304762D01*
X152533331Y-71304762D01*
X153390474Y-73304762D02*
X153390474Y-71304762D01*
X154152379Y-71304762D01*
X154342855Y-71400000D01*
X154438094Y-71495238D01*
X154533332Y-71685714D01*
X154533332Y-71971429D01*
X154438094Y-72161905D01*
X154342855Y-72257143D01*
X154152379Y-72352381D01*
X153390474Y-72352381D01*
X156819046Y-72733333D02*
X157771427Y-72733333D01*
X156628570Y-73304762D02*
X157295237Y-71304762D01*
X157961904Y-73304762D01*
X158628570Y-73304762D02*
X158628570Y-71971429D01*
X158628570Y-72352381D02*
X158723809Y-72161905D01*
X158819047Y-72066667D01*
X159009523Y-71971429D01*
X159199999Y-71971429D01*
X160723808Y-73304762D02*
X160723808Y-71304762D01*
X160723808Y-73209524D02*
X160533332Y-73304762D01*
X160152380Y-73304762D01*
X159961904Y-73209524D01*
X159866665Y-73114286D01*
X159771427Y-72923810D01*
X159771427Y-72352381D01*
X159866665Y-72161905D01*
X159961904Y-72066667D01*
X160152380Y-71971429D01*
X160533332Y-71971429D01*
X160723808Y-72066667D01*
X162533332Y-71971429D02*
X162533332Y-73304762D01*
X161676189Y-71971429D02*
X161676189Y-73019048D01*
X161771428Y-73209524D01*
X161961904Y-73304762D01*
X162247618Y-73304762D01*
X162438094Y-73209524D01*
X162533332Y-73114286D01*
X163485713Y-73304762D02*
X163485713Y-71971429D01*
X163485713Y-71304762D02*
X163390475Y-71400000D01*
X163485713Y-71495238D01*
X163580952Y-71400000D01*
X163485713Y-71304762D01*
X163485713Y-71495238D01*
X164438094Y-71971429D02*
X164438094Y-73304762D01*
X164438094Y-72161905D02*
X164533333Y-72066667D01*
X164723809Y-71971429D01*
X165009523Y-71971429D01*
X165199999Y-72066667D01*
X165295237Y-72257143D01*
X165295237Y-73304762D01*
X166533333Y-73304762D02*
X166342857Y-73209524D01*
X166247618Y-73114286D01*
X166152380Y-72923810D01*
X166152380Y-72352381D01*
X166247618Y-72161905D01*
X166342857Y-72066667D01*
X166533333Y-71971429D01*
X166819047Y-71971429D01*
X167009523Y-72066667D01*
X167104761Y-72161905D01*
X167199999Y-72352381D01*
X167199999Y-72923810D01*
X167104761Y-73114286D01*
X167009523Y-73209524D01*
X166819047Y-73304762D01*
X166533333Y-73304762D01*
X169580952Y-73304762D02*
X169580952Y-71304762D01*
X170247619Y-72733333D01*
X170914286Y-71304762D01*
X170914286Y-73304762D01*
X171866666Y-72257143D02*
X172533333Y-72257143D01*
X172819047Y-73304762D02*
X171866666Y-73304762D01*
X171866666Y-71304762D01*
X172819047Y-71304762D01*
X174723810Y-71400000D02*
X174533333Y-71304762D01*
X174247619Y-71304762D01*
X173961905Y-71400000D01*
X173771429Y-71590476D01*
X173676190Y-71780952D01*
X173580952Y-72161905D01*
X173580952Y-72447619D01*
X173676190Y-72828571D01*
X173771429Y-73019048D01*
X173961905Y-73209524D01*
X174247619Y-73304762D01*
X174438095Y-73304762D01*
X174723810Y-73209524D01*
X174819048Y-73114286D01*
X174819048Y-72447619D01*
X174438095Y-72447619D01*
X175580952Y-72733333D02*
X176533333Y-72733333D01*
X175390476Y-73304762D02*
X176057143Y-71304762D01*
X176723810Y-73304762D01*
X178914286Y-73304762D02*
X178914286Y-71971429D01*
X178914286Y-72161905D02*
X179009525Y-72066667D01*
X179200001Y-71971429D01*
X179485715Y-71971429D01*
X179676191Y-72066667D01*
X179771429Y-72257143D01*
X179771429Y-73304762D01*
X179771429Y-72257143D02*
X179866667Y-72066667D01*
X180057144Y-71971429D01*
X180342858Y-71971429D01*
X180533334Y-72066667D01*
X180628572Y-72257143D01*
X180628572Y-73304762D01*
X181866668Y-73304762D02*
X181676192Y-73209524D01*
X181580953Y-73114286D01*
X181485715Y-72923810D01*
X181485715Y-72352381D01*
X181580953Y-72161905D01*
X181676192Y-72066667D01*
X181866668Y-71971429D01*
X182152382Y-71971429D01*
X182342858Y-72066667D01*
X182438096Y-72161905D01*
X182533334Y-72352381D01*
X182533334Y-72923810D01*
X182438096Y-73114286D01*
X182342858Y-73209524D01*
X182152382Y-73304762D01*
X181866668Y-73304762D01*
X184247620Y-73304762D02*
X184247620Y-71304762D01*
X184247620Y-73209524D02*
X184057144Y-73304762D01*
X183676192Y-73304762D01*
X183485716Y-73209524D01*
X183390477Y-73114286D01*
X183295239Y-72923810D01*
X183295239Y-72352381D01*
X183390477Y-72161905D01*
X183485716Y-72066667D01*
X183676192Y-71971429D01*
X184057144Y-71971429D01*
X184247620Y-72066667D01*
X186057144Y-71971429D02*
X186057144Y-73304762D01*
X185200001Y-71971429D02*
X185200001Y-73019048D01*
X185295240Y-73209524D01*
X185485716Y-73304762D01*
X185771430Y-73304762D01*
X185961906Y-73209524D01*
X186057144Y-73114286D01*
X187295240Y-73304762D02*
X187104764Y-73209524D01*
X187009525Y-73019048D01*
X187009525Y-71304762D01*
X188819049Y-73209524D02*
X188628573Y-73304762D01*
X188247621Y-73304762D01*
X188057144Y-73209524D01*
X187961906Y-73019048D01*
X187961906Y-72257143D01*
X188057144Y-72066667D01*
X188247621Y-71971429D01*
X188628573Y-71971429D01*
X188819049Y-72066667D01*
X188914287Y-72257143D01*
X188914287Y-72447619D01*
X187961906Y-72638095D01*
D12*
X114680953Y-63952381D02*
X114204762Y-63952381D01*
X114157143Y-64428571D01*
X114204762Y-64380952D01*
X114300000Y-64333333D01*
X114538096Y-64333333D01*
X114633334Y-64380952D01*
X114680953Y-64428571D01*
X114728572Y-64523810D01*
X114728572Y-64761905D01*
X114680953Y-64857143D01*
X114633334Y-64904762D01*
X114538096Y-64952381D01*
X114300000Y-64952381D01*
X114204762Y-64904762D01*
X114157143Y-64857143D01*
X115014286Y-63952381D02*
X115347619Y-64952381D01*
X115680953Y-63952381D01*
X116014286Y-64952381D02*
X116014286Y-63952381D01*
X116252381Y-63952381D01*
X116395239Y-64000000D01*
X116490477Y-64095238D01*
X116538096Y-64190476D01*
X116585715Y-64380952D01*
X116585715Y-64523810D01*
X116538096Y-64714286D01*
X116490477Y-64809524D01*
X116395239Y-64904762D01*
X116252381Y-64952381D01*
X116014286Y-64952381D01*
X117966667Y-63952381D02*
X118157144Y-63952381D01*
X118252382Y-64000000D01*
X118347620Y-64095238D01*
X118395239Y-64285714D01*
X118395239Y-64619048D01*
X118347620Y-64809524D01*
X118252382Y-64904762D01*
X118157144Y-64952381D01*
X117966667Y-64952381D01*
X117871429Y-64904762D01*
X117776191Y-64809524D01*
X117728572Y-64619048D01*
X117728572Y-64285714D01*
X117776191Y-64095238D01*
X117871429Y-64000000D01*
X117966667Y-63952381D01*
X118823810Y-64952381D02*
X118823810Y-63952381D01*
X119395239Y-64952381D01*
X119395239Y-63952381D01*
X135552381Y-84719047D02*
X135552381Y-85290476D01*
X135552381Y-85004762D02*
X134552381Y-85004762D01*
X134695238Y-85100000D01*
X134790476Y-85195238D01*
X134838095Y-85290476D01*
X134647619Y-84338095D02*
X134600000Y-84290476D01*
X134552381Y-84195238D01*
X134552381Y-83957142D01*
X134600000Y-83861904D01*
X134647619Y-83814285D01*
X134742857Y-83766666D01*
X134838095Y-83766666D01*
X134980952Y-83814285D01*
X135552381Y-84385714D01*
X135552381Y-83766666D01*
X134552381Y-83480952D02*
X135552381Y-83147619D01*
X134552381Y-82814285D01*
X134452381Y-78290476D02*
X134452381Y-78766667D01*
X134928571Y-78814286D01*
X134880952Y-78766667D01*
X134833333Y-78671429D01*
X134833333Y-78433333D01*
X134880952Y-78338095D01*
X134928571Y-78290476D01*
X135023810Y-78242857D01*
X135261905Y-78242857D01*
X135357143Y-78290476D01*
X135404762Y-78338095D01*
X135452381Y-78433333D01*
X135452381Y-78671429D01*
X135404762Y-78766667D01*
X135357143Y-78814286D01*
X134452381Y-77957143D02*
X135452381Y-77623810D01*
X134452381Y-77290476D01*
X135452381Y-76957143D02*
X134452381Y-76957143D01*
X134452381Y-76719048D01*
X134500000Y-76576190D01*
X134595238Y-76480952D01*
X134690476Y-76433333D01*
X134880952Y-76385714D01*
X135023810Y-76385714D01*
X135214286Y-76433333D01*
X135309524Y-76480952D01*
X135404762Y-76576190D01*
X135452381Y-76719048D01*
X135452381Y-76957143D01*
X147357143Y-85752381D02*
X147357143Y-84752381D01*
X147738096Y-84752381D01*
X147833334Y-84800000D01*
X147880953Y-84847619D01*
X147928572Y-84942857D01*
X147928572Y-85085714D01*
X147880953Y-85180952D01*
X147833334Y-85228571D01*
X147738096Y-85276190D01*
X147357143Y-85276190D01*
X148833334Y-85752381D02*
X148357143Y-85752381D01*
X148357143Y-84752381D01*
X149071429Y-84752381D02*
X149738096Y-84752381D01*
X149309524Y-85752381D01*
X147261905Y-83152381D02*
X147261905Y-82152381D01*
X147642858Y-82152381D01*
X147738096Y-82200000D01*
X147785715Y-82247619D01*
X147833334Y-82342857D01*
X147833334Y-82485714D01*
X147785715Y-82580952D01*
X147738096Y-82628571D01*
X147642858Y-82676190D01*
X147261905Y-82676190D01*
X148785715Y-82200000D02*
X148690477Y-82152381D01*
X148547620Y-82152381D01*
X148404762Y-82200000D01*
X148309524Y-82295238D01*
X148261905Y-82390476D01*
X148214286Y-82580952D01*
X148214286Y-82723810D01*
X148261905Y-82914286D01*
X148309524Y-83009524D01*
X148404762Y-83104762D01*
X148547620Y-83152381D01*
X148642858Y-83152381D01*
X148785715Y-83104762D01*
X148833334Y-83057143D01*
X148833334Y-82723810D01*
X148642858Y-82723810D01*
X149452381Y-82152381D02*
X149547620Y-82152381D01*
X149642858Y-82200000D01*
X149690477Y-82247619D01*
X149738096Y-82342857D01*
X149785715Y-82533333D01*
X149785715Y-82771429D01*
X149738096Y-82961905D01*
X149690477Y-83057143D01*
X149642858Y-83104762D01*
X149547620Y-83152381D01*
X149452381Y-83152381D01*
X149357143Y-83104762D01*
X149309524Y-83057143D01*
X149261905Y-82961905D01*
X149214286Y-82771429D01*
X149214286Y-82533333D01*
X149261905Y-82342857D01*
X149309524Y-82247619D01*
X149357143Y-82200000D01*
X149452381Y-82152381D01*
X147261905Y-80652381D02*
X147261905Y-79652381D01*
X147642858Y-79652381D01*
X147738096Y-79700000D01*
X147785715Y-79747619D01*
X147833334Y-79842857D01*
X147833334Y-79985714D01*
X147785715Y-80080952D01*
X147738096Y-80128571D01*
X147642858Y-80176190D01*
X147261905Y-80176190D01*
X148785715Y-79700000D02*
X148690477Y-79652381D01*
X148547620Y-79652381D01*
X148404762Y-79700000D01*
X148309524Y-79795238D01*
X148261905Y-79890476D01*
X148214286Y-80080952D01*
X148214286Y-80223810D01*
X148261905Y-80414286D01*
X148309524Y-80509524D01*
X148404762Y-80604762D01*
X148547620Y-80652381D01*
X148642858Y-80652381D01*
X148785715Y-80604762D01*
X148833334Y-80557143D01*
X148833334Y-80223810D01*
X148642858Y-80223810D01*
X149785715Y-80652381D02*
X149214286Y-80652381D01*
X149500000Y-80652381D02*
X149500000Y-79652381D01*
X149404762Y-79795238D01*
X149309524Y-79890476D01*
X149214286Y-79938095D01*
X147161905Y-76652381D02*
X147161905Y-75652381D01*
X147542858Y-75652381D01*
X147638096Y-75700000D01*
X147685715Y-75747619D01*
X147733334Y-75842857D01*
X147733334Y-75985714D01*
X147685715Y-76080952D01*
X147638096Y-76128571D01*
X147542858Y-76176190D01*
X147161905Y-76176190D01*
X148685715Y-75700000D02*
X148590477Y-75652381D01*
X148447620Y-75652381D01*
X148304762Y-75700000D01*
X148209524Y-75795238D01*
X148161905Y-75890476D01*
X148114286Y-76080952D01*
X148114286Y-76223810D01*
X148161905Y-76414286D01*
X148209524Y-76509524D01*
X148304762Y-76604762D01*
X148447620Y-76652381D01*
X148542858Y-76652381D01*
X148685715Y-76604762D01*
X148733334Y-76557143D01*
X148733334Y-76223810D01*
X148542858Y-76223810D01*
X149114286Y-75747619D02*
X149161905Y-75700000D01*
X149257143Y-75652381D01*
X149495239Y-75652381D01*
X149590477Y-75700000D01*
X149638096Y-75747619D01*
X149685715Y-75842857D01*
X149685715Y-75938095D01*
X149638096Y-76080952D01*
X149066667Y-76652381D01*
X149685715Y-76652381D01*
X156952381Y-84519047D02*
X156952381Y-85090476D01*
X156952381Y-84804762D02*
X155952381Y-84804762D01*
X156095238Y-84900000D01*
X156190476Y-84995238D01*
X156238095Y-85090476D01*
X156047619Y-84138095D02*
X156000000Y-84090476D01*
X155952381Y-83995238D01*
X155952381Y-83757142D01*
X156000000Y-83661904D01*
X156047619Y-83614285D01*
X156142857Y-83566666D01*
X156238095Y-83566666D01*
X156380952Y-83614285D01*
X156952381Y-84185714D01*
X156952381Y-83566666D01*
X155952381Y-83280952D02*
X156952381Y-82947619D01*
X155952381Y-82614285D01*
X156052381Y-78090476D02*
X156052381Y-78566667D01*
X156528571Y-78614286D01*
X156480952Y-78566667D01*
X156433333Y-78471429D01*
X156433333Y-78233333D01*
X156480952Y-78138095D01*
X156528571Y-78090476D01*
X156623810Y-78042857D01*
X156861905Y-78042857D01*
X156957143Y-78090476D01*
X157004762Y-78138095D01*
X157052381Y-78233333D01*
X157052381Y-78471429D01*
X157004762Y-78566667D01*
X156957143Y-78614286D01*
X156052381Y-77757143D02*
X157052381Y-77423810D01*
X156052381Y-77090476D01*
X157052381Y-76757143D02*
X156052381Y-76757143D01*
X156052381Y-76519048D01*
X156100000Y-76376190D01*
X156195238Y-76280952D01*
X156290476Y-76233333D01*
X156480952Y-76185714D01*
X156623810Y-76185714D01*
X156814286Y-76233333D01*
X156909524Y-76280952D01*
X157004762Y-76376190D01*
X157052381Y-76519048D01*
X157052381Y-76757143D01*
X168661905Y-85652381D02*
X168661905Y-84652381D01*
X169042858Y-84652381D01*
X169138096Y-84700000D01*
X169185715Y-84747619D01*
X169233334Y-84842857D01*
X169233334Y-84985714D01*
X169185715Y-85080952D01*
X169138096Y-85128571D01*
X169042858Y-85176190D01*
X168661905Y-85176190D01*
X169661905Y-85652381D02*
X169661905Y-84652381D01*
X169900000Y-84652381D01*
X170042858Y-84700000D01*
X170138096Y-84795238D01*
X170185715Y-84890476D01*
X170233334Y-85080952D01*
X170233334Y-85223810D01*
X170185715Y-85414286D01*
X170138096Y-85509524D01*
X170042858Y-85604762D01*
X169900000Y-85652381D01*
X169661905Y-85652381D01*
X170566667Y-84652381D02*
X171233334Y-84652381D01*
X170804762Y-85652381D01*
X168661905Y-83052381D02*
X168661905Y-82052381D01*
X169042858Y-82052381D01*
X169138096Y-82100000D01*
X169185715Y-82147619D01*
X169233334Y-82242857D01*
X169233334Y-82385714D01*
X169185715Y-82480952D01*
X169138096Y-82528571D01*
X169042858Y-82576190D01*
X168661905Y-82576190D01*
X170233334Y-82957143D02*
X170185715Y-83004762D01*
X170042858Y-83052381D01*
X169947620Y-83052381D01*
X169804762Y-83004762D01*
X169709524Y-82909524D01*
X169661905Y-82814286D01*
X169614286Y-82623810D01*
X169614286Y-82480952D01*
X169661905Y-82290476D01*
X169709524Y-82195238D01*
X169804762Y-82100000D01*
X169947620Y-82052381D01*
X170042858Y-82052381D01*
X170185715Y-82100000D01*
X170233334Y-82147619D01*
X170852381Y-82052381D02*
X170947620Y-82052381D01*
X171042858Y-82100000D01*
X171090477Y-82147619D01*
X171138096Y-82242857D01*
X171185715Y-82433333D01*
X171185715Y-82671429D01*
X171138096Y-82861905D01*
X171090477Y-82957143D01*
X171042858Y-83004762D01*
X170947620Y-83052381D01*
X170852381Y-83052381D01*
X170757143Y-83004762D01*
X170709524Y-82957143D01*
X170661905Y-82861905D01*
X170614286Y-82671429D01*
X170614286Y-82433333D01*
X170661905Y-82242857D01*
X170709524Y-82147619D01*
X170757143Y-82100000D01*
X170852381Y-82052381D01*
X168661905Y-80552381D02*
X168661905Y-79552381D01*
X169042858Y-79552381D01*
X169138096Y-79600000D01*
X169185715Y-79647619D01*
X169233334Y-79742857D01*
X169233334Y-79885714D01*
X169185715Y-79980952D01*
X169138096Y-80028571D01*
X169042858Y-80076190D01*
X168661905Y-80076190D01*
X170233334Y-80457143D02*
X170185715Y-80504762D01*
X170042858Y-80552381D01*
X169947620Y-80552381D01*
X169804762Y-80504762D01*
X169709524Y-80409524D01*
X169661905Y-80314286D01*
X169614286Y-80123810D01*
X169614286Y-79980952D01*
X169661905Y-79790476D01*
X169709524Y-79695238D01*
X169804762Y-79600000D01*
X169947620Y-79552381D01*
X170042858Y-79552381D01*
X170185715Y-79600000D01*
X170233334Y-79647619D01*
X171185715Y-80552381D02*
X170614286Y-80552381D01*
X170900000Y-80552381D02*
X170900000Y-79552381D01*
X170804762Y-79695238D01*
X170709524Y-79790476D01*
X170614286Y-79838095D01*
X168661905Y-76752381D02*
X168661905Y-75752381D01*
X169042858Y-75752381D01*
X169138096Y-75800000D01*
X169185715Y-75847619D01*
X169233334Y-75942857D01*
X169233334Y-76085714D01*
X169185715Y-76180952D01*
X169138096Y-76228571D01*
X169042858Y-76276190D01*
X168661905Y-76276190D01*
X170233334Y-76657143D02*
X170185715Y-76704762D01*
X170042858Y-76752381D01*
X169947620Y-76752381D01*
X169804762Y-76704762D01*
X169709524Y-76609524D01*
X169661905Y-76514286D01*
X169614286Y-76323810D01*
X169614286Y-76180952D01*
X169661905Y-75990476D01*
X169709524Y-75895238D01*
X169804762Y-75800000D01*
X169947620Y-75752381D01*
X170042858Y-75752381D01*
X170185715Y-75800000D01*
X170233334Y-75847619D01*
X170614286Y-75847619D02*
X170661905Y-75800000D01*
X170757143Y-75752381D01*
X170995239Y-75752381D01*
X171090477Y-75800000D01*
X171138096Y-75847619D01*
X171185715Y-75942857D01*
X171185715Y-76038095D01*
X171138096Y-76180952D01*
X170566667Y-76752381D01*
X171185715Y-76752381D01*
X204909524Y-101252381D02*
X204433333Y-101252381D01*
X204385714Y-101728571D01*
X204433333Y-101680952D01*
X204528571Y-101633333D01*
X204766667Y-101633333D01*
X204861905Y-101680952D01*
X204909524Y-101728571D01*
X204957143Y-101823810D01*
X204957143Y-102061905D01*
X204909524Y-102157143D01*
X204861905Y-102204762D01*
X204766667Y-102252381D01*
X204528571Y-102252381D01*
X204433333Y-102204762D01*
X204385714Y-102157143D01*
X205242857Y-101252381D02*
X205576190Y-102252381D01*
X205909524Y-101252381D01*
X206242857Y-102252381D02*
X206242857Y-101252381D01*
X206480952Y-101252381D01*
X206623810Y-101300000D01*
X206719048Y-101395238D01*
X206766667Y-101490476D01*
X206814286Y-101680952D01*
X206814286Y-101823810D01*
X206766667Y-102014286D01*
X206719048Y-102109524D01*
X206623810Y-102204762D01*
X206480952Y-102252381D01*
X206242857Y-102252381D01*
X211380953Y-102252381D02*
X210809524Y-102252381D01*
X211095238Y-102252381D02*
X211095238Y-101252381D01*
X211000000Y-101395238D01*
X210904762Y-101490476D01*
X210809524Y-101538095D01*
X211761905Y-101347619D02*
X211809524Y-101300000D01*
X211904762Y-101252381D01*
X212142858Y-101252381D01*
X212238096Y-101300000D01*
X212285715Y-101347619D01*
X212333334Y-101442857D01*
X212333334Y-101538095D01*
X212285715Y-101680952D01*
X211714286Y-102252381D01*
X212333334Y-102252381D01*
X212619048Y-101252381D02*
X212952381Y-102252381D01*
X213285715Y-101252381D01*
X213652381Y-89638095D02*
X212652381Y-89638095D01*
X212652381Y-89257142D01*
X212700000Y-89161904D01*
X212747619Y-89114285D01*
X212842857Y-89066666D01*
X212985714Y-89066666D01*
X213080952Y-89114285D01*
X213128571Y-89161904D01*
X213176190Y-89257142D01*
X213176190Y-89638095D01*
X213557143Y-88066666D02*
X213604762Y-88114285D01*
X213652381Y-88257142D01*
X213652381Y-88352380D01*
X213604762Y-88495238D01*
X213509524Y-88590476D01*
X213414286Y-88638095D01*
X213223810Y-88685714D01*
X213080952Y-88685714D01*
X212890476Y-88638095D01*
X212795238Y-88590476D01*
X212700000Y-88495238D01*
X212652381Y-88352380D01*
X212652381Y-88257142D01*
X212700000Y-88114285D01*
X212747619Y-88066666D01*
X212652381Y-87733333D02*
X212652381Y-87114285D01*
X213033333Y-87447619D01*
X213033333Y-87304761D01*
X213080952Y-87209523D01*
X213128571Y-87161904D01*
X213223810Y-87114285D01*
X213461905Y-87114285D01*
X213557143Y-87161904D01*
X213604762Y-87209523D01*
X213652381Y-87304761D01*
X213652381Y-87590476D01*
X213604762Y-87685714D01*
X213557143Y-87733333D01*
X211152381Y-89638095D02*
X210152381Y-89638095D01*
X210152381Y-89257142D01*
X210200000Y-89161904D01*
X210247619Y-89114285D01*
X210342857Y-89066666D01*
X210485714Y-89066666D01*
X210580952Y-89114285D01*
X210628571Y-89161904D01*
X210676190Y-89257142D01*
X210676190Y-89638095D01*
X211057143Y-88066666D02*
X211104762Y-88114285D01*
X211152381Y-88257142D01*
X211152381Y-88352380D01*
X211104762Y-88495238D01*
X211009524Y-88590476D01*
X210914286Y-88638095D01*
X210723810Y-88685714D01*
X210580952Y-88685714D01*
X210390476Y-88638095D01*
X210295238Y-88590476D01*
X210200000Y-88495238D01*
X210152381Y-88352380D01*
X210152381Y-88257142D01*
X210200000Y-88114285D01*
X210247619Y-88066666D01*
X210485714Y-87209523D02*
X211152381Y-87209523D01*
X210104762Y-87447619D02*
X210819048Y-87685714D01*
X210819048Y-87066666D01*
X208552381Y-89638095D02*
X207552381Y-89638095D01*
X207552381Y-89257142D01*
X207600000Y-89161904D01*
X207647619Y-89114285D01*
X207742857Y-89066666D01*
X207885714Y-89066666D01*
X207980952Y-89114285D01*
X208028571Y-89161904D01*
X208076190Y-89257142D01*
X208076190Y-89638095D01*
X208457143Y-88066666D02*
X208504762Y-88114285D01*
X208552381Y-88257142D01*
X208552381Y-88352380D01*
X208504762Y-88495238D01*
X208409524Y-88590476D01*
X208314286Y-88638095D01*
X208123810Y-88685714D01*
X207980952Y-88685714D01*
X207790476Y-88638095D01*
X207695238Y-88590476D01*
X207600000Y-88495238D01*
X207552381Y-88352380D01*
X207552381Y-88257142D01*
X207600000Y-88114285D01*
X207647619Y-88066666D01*
X207552381Y-87161904D02*
X207552381Y-87638095D01*
X208028571Y-87685714D01*
X207980952Y-87638095D01*
X207933333Y-87542857D01*
X207933333Y-87304761D01*
X207980952Y-87209523D01*
X208028571Y-87161904D01*
X208123810Y-87114285D01*
X208361905Y-87114285D01*
X208457143Y-87161904D01*
X208504762Y-87209523D01*
X208552381Y-87304761D01*
X208552381Y-87542857D01*
X208504762Y-87638095D01*
X208457143Y-87685714D01*
X204752381Y-89538095D02*
X203752381Y-89538095D01*
X203752381Y-89157142D01*
X203800000Y-89061904D01*
X203847619Y-89014285D01*
X203942857Y-88966666D01*
X204085714Y-88966666D01*
X204180952Y-89014285D01*
X204228571Y-89061904D01*
X204276190Y-89157142D01*
X204276190Y-89538095D01*
X204657143Y-87966666D02*
X204704762Y-88014285D01*
X204752381Y-88157142D01*
X204752381Y-88252380D01*
X204704762Y-88395238D01*
X204609524Y-88490476D01*
X204514286Y-88538095D01*
X204323810Y-88585714D01*
X204180952Y-88585714D01*
X203990476Y-88538095D01*
X203895238Y-88490476D01*
X203800000Y-88395238D01*
X203752381Y-88252380D01*
X203752381Y-88157142D01*
X203800000Y-88014285D01*
X203847619Y-87966666D01*
X203752381Y-87109523D02*
X203752381Y-87300000D01*
X203800000Y-87395238D01*
X203847619Y-87442857D01*
X203990476Y-87538095D01*
X204180952Y-87585714D01*
X204561905Y-87585714D01*
X204657143Y-87538095D01*
X204704762Y-87490476D01*
X204752381Y-87395238D01*
X204752381Y-87204761D01*
X204704762Y-87109523D01*
X204657143Y-87061904D01*
X204561905Y-87014285D01*
X204323810Y-87014285D01*
X204228571Y-87061904D01*
X204180952Y-87109523D01*
X204133333Y-87204761D01*
X204133333Y-87395238D01*
X204180952Y-87490476D01*
X204228571Y-87538095D01*
X204323810Y-87585714D01*
X204809524Y-77752381D02*
X204333333Y-77752381D01*
X204285714Y-78228571D01*
X204333333Y-78180952D01*
X204428571Y-78133333D01*
X204666667Y-78133333D01*
X204761905Y-78180952D01*
X204809524Y-78228571D01*
X204857143Y-78323810D01*
X204857143Y-78561905D01*
X204809524Y-78657143D01*
X204761905Y-78704762D01*
X204666667Y-78752381D01*
X204428571Y-78752381D01*
X204333333Y-78704762D01*
X204285714Y-78657143D01*
X205142857Y-77752381D02*
X205476190Y-78752381D01*
X205809524Y-77752381D01*
X206142857Y-78752381D02*
X206142857Y-77752381D01*
X206380952Y-77752381D01*
X206523810Y-77800000D01*
X206619048Y-77895238D01*
X206666667Y-77990476D01*
X206714286Y-78180952D01*
X206714286Y-78323810D01*
X206666667Y-78514286D01*
X206619048Y-78609524D01*
X206523810Y-78704762D01*
X206380952Y-78752381D01*
X206142857Y-78752381D01*
X211380953Y-78752381D02*
X210809524Y-78752381D01*
X211095238Y-78752381D02*
X211095238Y-77752381D01*
X211000000Y-77895238D01*
X210904762Y-77990476D01*
X210809524Y-78038095D01*
X211761905Y-77847619D02*
X211809524Y-77800000D01*
X211904762Y-77752381D01*
X212142858Y-77752381D01*
X212238096Y-77800000D01*
X212285715Y-77847619D01*
X212333334Y-77942857D01*
X212333334Y-78038095D01*
X212285715Y-78180952D01*
X211714286Y-78752381D01*
X212333334Y-78752381D01*
X212619048Y-77752381D02*
X212952381Y-78752381D01*
X213285715Y-77752381D01*
X213752381Y-66038095D02*
X212752381Y-66038095D01*
X212752381Y-65657142D01*
X212800000Y-65561904D01*
X212847619Y-65514285D01*
X212942857Y-65466666D01*
X213085714Y-65466666D01*
X213180952Y-65514285D01*
X213228571Y-65561904D01*
X213276190Y-65657142D01*
X213276190Y-66038095D01*
X213657143Y-64466666D02*
X213704762Y-64514285D01*
X213752381Y-64657142D01*
X213752381Y-64752380D01*
X213704762Y-64895238D01*
X213609524Y-64990476D01*
X213514286Y-65038095D01*
X213323810Y-65085714D01*
X213180952Y-65085714D01*
X212990476Y-65038095D01*
X212895238Y-64990476D01*
X212800000Y-64895238D01*
X212752381Y-64752380D01*
X212752381Y-64657142D01*
X212800000Y-64514285D01*
X212847619Y-64466666D01*
X212752381Y-64133333D02*
X212752381Y-63466666D01*
X213752381Y-63895238D01*
X211052381Y-65966667D02*
X210052381Y-65966667D01*
X210052381Y-65585714D01*
X210100000Y-65490476D01*
X210147619Y-65442857D01*
X210242857Y-65395238D01*
X210385714Y-65395238D01*
X210480952Y-65442857D01*
X210528571Y-65490476D01*
X210576190Y-65585714D01*
X210576190Y-65966667D01*
X210766667Y-65014286D02*
X210766667Y-64538095D01*
X211052381Y-65109524D02*
X210052381Y-64776191D01*
X211052381Y-64442857D01*
X210052381Y-64204762D02*
X210052381Y-63538095D01*
X211052381Y-63966667D01*
X208552381Y-65966667D02*
X207552381Y-65966667D01*
X207552381Y-65585714D01*
X207600000Y-65490476D01*
X207647619Y-65442857D01*
X207742857Y-65395238D01*
X207885714Y-65395238D01*
X207980952Y-65442857D01*
X208028571Y-65490476D01*
X208076190Y-65585714D01*
X208076190Y-65966667D01*
X208266667Y-65014286D02*
X208266667Y-64538095D01*
X208552381Y-65109524D02*
X207552381Y-64776191D01*
X208552381Y-64442857D01*
X207552381Y-63680952D02*
X207552381Y-63871429D01*
X207600000Y-63966667D01*
X207647619Y-64014286D01*
X207790476Y-64109524D01*
X207980952Y-64157143D01*
X208361905Y-64157143D01*
X208457143Y-64109524D01*
X208504762Y-64061905D01*
X208552381Y-63966667D01*
X208552381Y-63776190D01*
X208504762Y-63680952D01*
X208457143Y-63633333D01*
X208361905Y-63585714D01*
X208123810Y-63585714D01*
X208028571Y-63633333D01*
X207980952Y-63680952D01*
X207933333Y-63776190D01*
X207933333Y-63966667D01*
X207980952Y-64061905D01*
X208028571Y-64109524D01*
X208123810Y-64157143D01*
X204752381Y-65966667D02*
X203752381Y-65966667D01*
X203752381Y-65585714D01*
X203800000Y-65490476D01*
X203847619Y-65442857D01*
X203942857Y-65395238D01*
X204085714Y-65395238D01*
X204180952Y-65442857D01*
X204228571Y-65490476D01*
X204276190Y-65585714D01*
X204276190Y-65966667D01*
X204466667Y-65014286D02*
X204466667Y-64538095D01*
X204752381Y-65109524D02*
X203752381Y-64776191D01*
X204752381Y-64442857D01*
X203752381Y-63633333D02*
X203752381Y-64109524D01*
X204228571Y-64157143D01*
X204180952Y-64109524D01*
X204133333Y-64014286D01*
X204133333Y-63776190D01*
X204180952Y-63680952D01*
X204228571Y-63633333D01*
X204323810Y-63585714D01*
X204561905Y-63585714D01*
X204657143Y-63633333D01*
X204704762Y-63680952D01*
X204752381Y-63776190D01*
X204752381Y-64014286D01*
X204704762Y-64109524D01*
X204657143Y-64157143D01*
X204809524Y-54252381D02*
X204333333Y-54252381D01*
X204285714Y-54728571D01*
X204333333Y-54680952D01*
X204428571Y-54633333D01*
X204666667Y-54633333D01*
X204761905Y-54680952D01*
X204809524Y-54728571D01*
X204857143Y-54823810D01*
X204857143Y-55061905D01*
X204809524Y-55157143D01*
X204761905Y-55204762D01*
X204666667Y-55252381D01*
X204428571Y-55252381D01*
X204333333Y-55204762D01*
X204285714Y-55157143D01*
X205142857Y-54252381D02*
X205476190Y-55252381D01*
X205809524Y-54252381D01*
X206142857Y-55252381D02*
X206142857Y-54252381D01*
X206380952Y-54252381D01*
X206523810Y-54300000D01*
X206619048Y-54395238D01*
X206666667Y-54490476D01*
X206714286Y-54680952D01*
X206714286Y-54823810D01*
X206666667Y-55014286D01*
X206619048Y-55109524D01*
X206523810Y-55204762D01*
X206380952Y-55252381D01*
X206142857Y-55252381D01*
X211180953Y-55252381D02*
X210609524Y-55252381D01*
X210895238Y-55252381D02*
X210895238Y-54252381D01*
X210800000Y-54395238D01*
X210704762Y-54490476D01*
X210609524Y-54538095D01*
X211561905Y-54347619D02*
X211609524Y-54300000D01*
X211704762Y-54252381D01*
X211942858Y-54252381D01*
X212038096Y-54300000D01*
X212085715Y-54347619D01*
X212133334Y-54442857D01*
X212133334Y-54538095D01*
X212085715Y-54680952D01*
X211514286Y-55252381D01*
X212133334Y-55252381D01*
X212419048Y-54252381D02*
X212752381Y-55252381D01*
X213085715Y-54252381D01*
X213552381Y-42766667D02*
X212552381Y-42766667D01*
X212552381Y-42385714D01*
X212600000Y-42290476D01*
X212647619Y-42242857D01*
X212742857Y-42195238D01*
X212885714Y-42195238D01*
X212980952Y-42242857D01*
X213028571Y-42290476D01*
X213076190Y-42385714D01*
X213076190Y-42766667D01*
X213266667Y-41814286D02*
X213266667Y-41338095D01*
X213552381Y-41909524D02*
X212552381Y-41576191D01*
X213552381Y-41242857D01*
X212885714Y-40480952D02*
X213552381Y-40480952D01*
X212504762Y-40719048D02*
X213219048Y-40957143D01*
X213219048Y-40338095D01*
X211052381Y-42766667D02*
X210052381Y-42766667D01*
X210052381Y-42385714D01*
X210100000Y-42290476D01*
X210147619Y-42242857D01*
X210242857Y-42195238D01*
X210385714Y-42195238D01*
X210480952Y-42242857D01*
X210528571Y-42290476D01*
X210576190Y-42385714D01*
X210576190Y-42766667D01*
X210766667Y-41814286D02*
X210766667Y-41338095D01*
X211052381Y-41909524D02*
X210052381Y-41576191D01*
X211052381Y-41242857D01*
X210147619Y-40957143D02*
X210100000Y-40909524D01*
X210052381Y-40814286D01*
X210052381Y-40576190D01*
X210100000Y-40480952D01*
X210147619Y-40433333D01*
X210242857Y-40385714D01*
X210338095Y-40385714D01*
X210480952Y-40433333D01*
X211052381Y-41004762D01*
X211052381Y-40385714D01*
X208552381Y-42766667D02*
X207552381Y-42766667D01*
X207552381Y-42385714D01*
X207600000Y-42290476D01*
X207647619Y-42242857D01*
X207742857Y-42195238D01*
X207885714Y-42195238D01*
X207980952Y-42242857D01*
X208028571Y-42290476D01*
X208076190Y-42385714D01*
X208076190Y-42766667D01*
X208266667Y-41814286D02*
X208266667Y-41338095D01*
X208552381Y-41909524D02*
X207552381Y-41576191D01*
X208552381Y-41242857D01*
X208552381Y-40385714D02*
X208552381Y-40957143D01*
X208552381Y-40671429D02*
X207552381Y-40671429D01*
X207695238Y-40766667D01*
X207790476Y-40861905D01*
X207838095Y-40957143D01*
X204752381Y-42766667D02*
X203752381Y-42766667D01*
X203752381Y-42385714D01*
X203800000Y-42290476D01*
X203847619Y-42242857D01*
X203942857Y-42195238D01*
X204085714Y-42195238D01*
X204180952Y-42242857D01*
X204228571Y-42290476D01*
X204276190Y-42385714D01*
X204276190Y-42766667D01*
X204466667Y-41814286D02*
X204466667Y-41338095D01*
X204752381Y-41909524D02*
X203752381Y-41576191D01*
X204752381Y-41242857D01*
X203752381Y-40719048D02*
X203752381Y-40623809D01*
X203800000Y-40528571D01*
X203847619Y-40480952D01*
X203942857Y-40433333D01*
X204133333Y-40385714D01*
X204371429Y-40385714D01*
X204561905Y-40433333D01*
X204657143Y-40480952D01*
X204704762Y-40528571D01*
X204752381Y-40623809D01*
X204752381Y-40719048D01*
X204704762Y-40814286D01*
X204657143Y-40861905D01*
X204561905Y-40909524D01*
X204371429Y-40957143D01*
X204133333Y-40957143D01*
X203942857Y-40909524D01*
X203847619Y-40861905D01*
X203800000Y-40814286D01*
X203752381Y-40719048D01*
X192252381Y-67090476D02*
X192252381Y-67566667D01*
X192728571Y-67614286D01*
X192680952Y-67566667D01*
X192633333Y-67471429D01*
X192633333Y-67233333D01*
X192680952Y-67138095D01*
X192728571Y-67090476D01*
X192823810Y-67042857D01*
X193061905Y-67042857D01*
X193157143Y-67090476D01*
X193204762Y-67138095D01*
X193252381Y-67233333D01*
X193252381Y-67471429D01*
X193204762Y-67566667D01*
X193157143Y-67614286D01*
X192252381Y-66757143D02*
X193252381Y-66423810D01*
X192252381Y-66090476D01*
X193252381Y-65757143D02*
X192252381Y-65757143D01*
X192252381Y-65519048D01*
X192300000Y-65376190D01*
X192395238Y-65280952D01*
X192490476Y-65233333D01*
X192680952Y-65185714D01*
X192823810Y-65185714D01*
X193014286Y-65233333D01*
X193109524Y-65280952D01*
X193204762Y-65376190D01*
X193252381Y-65519048D01*
X193252381Y-65757143D01*
X193252381Y-60819047D02*
X193252381Y-61390476D01*
X193252381Y-61104762D02*
X192252381Y-61104762D01*
X192395238Y-61200000D01*
X192490476Y-61295238D01*
X192538095Y-61390476D01*
X192347619Y-60438095D02*
X192300000Y-60390476D01*
X192252381Y-60295238D01*
X192252381Y-60057142D01*
X192300000Y-59961904D01*
X192347619Y-59914285D01*
X192442857Y-59866666D01*
X192538095Y-59866666D01*
X192680952Y-59914285D01*
X193252381Y-60485714D01*
X193252381Y-59866666D01*
X192252381Y-59580952D02*
X193252381Y-59247619D01*
X192252381Y-58914285D01*
X188947619Y-56761905D02*
X188900000Y-56714286D01*
X188852381Y-56619048D01*
X188852381Y-56380952D01*
X188900000Y-56285714D01*
X188947619Y-56238095D01*
X189042857Y-56190476D01*
X189138095Y-56190476D01*
X189280952Y-56238095D01*
X189852381Y-56809524D01*
X189852381Y-56190476D01*
X188852381Y-55571429D02*
X188852381Y-55476190D01*
X188900000Y-55380952D01*
X188947619Y-55333333D01*
X189042857Y-55285714D01*
X189233333Y-55238095D01*
X189471429Y-55238095D01*
X189661905Y-55285714D01*
X189757143Y-55333333D01*
X189804762Y-55380952D01*
X189852381Y-55476190D01*
X189852381Y-55571429D01*
X189804762Y-55666667D01*
X189757143Y-55714286D01*
X189661905Y-55761905D01*
X189471429Y-55809524D01*
X189233333Y-55809524D01*
X189042857Y-55761905D01*
X188947619Y-55714286D01*
X188900000Y-55666667D01*
X188852381Y-55571429D01*
X186347619Y-56761905D02*
X186300000Y-56714286D01*
X186252381Y-56619048D01*
X186252381Y-56380952D01*
X186300000Y-56285714D01*
X186347619Y-56238095D01*
X186442857Y-56190476D01*
X186538095Y-56190476D01*
X186680952Y-56238095D01*
X187252381Y-56809524D01*
X187252381Y-56190476D01*
X187252381Y-55238095D02*
X187252381Y-55809524D01*
X187252381Y-55523810D02*
X186252381Y-55523810D01*
X186395238Y-55619048D01*
X186490476Y-55714286D01*
X186538095Y-55809524D01*
X183852381Y-56333333D02*
X183852381Y-55666666D01*
X184852381Y-56095238D01*
X181680952Y-56095238D02*
X181633333Y-56190476D01*
X181585714Y-56238095D01*
X181490476Y-56285714D01*
X181442857Y-56285714D01*
X181347619Y-56238095D01*
X181300000Y-56190476D01*
X181252381Y-56095238D01*
X181252381Y-55904761D01*
X181300000Y-55809523D01*
X181347619Y-55761904D01*
X181442857Y-55714285D01*
X181490476Y-55714285D01*
X181585714Y-55761904D01*
X181633333Y-55809523D01*
X181680952Y-55904761D01*
X181680952Y-56095238D01*
X181728571Y-56190476D01*
X181776190Y-56238095D01*
X181871429Y-56285714D01*
X182061905Y-56285714D01*
X182157143Y-56238095D01*
X182204762Y-56190476D01*
X182252381Y-56095238D01*
X182252381Y-55904761D01*
X182204762Y-55809523D01*
X182157143Y-55761904D01*
X182061905Y-55714285D01*
X181871429Y-55714285D01*
X181776190Y-55761904D01*
X181728571Y-55809523D01*
X181680952Y-55904761D01*
X168052381Y-67090476D02*
X168052381Y-67566667D01*
X168528571Y-67614286D01*
X168480952Y-67566667D01*
X168433333Y-67471429D01*
X168433333Y-67233333D01*
X168480952Y-67138095D01*
X168528571Y-67090476D01*
X168623810Y-67042857D01*
X168861905Y-67042857D01*
X168957143Y-67090476D01*
X169004762Y-67138095D01*
X169052381Y-67233333D01*
X169052381Y-67471429D01*
X169004762Y-67566667D01*
X168957143Y-67614286D01*
X168052381Y-66757143D02*
X169052381Y-66423810D01*
X168052381Y-66090476D01*
X169052381Y-65757143D02*
X168052381Y-65757143D01*
X168052381Y-65519048D01*
X168100000Y-65376190D01*
X168195238Y-65280952D01*
X168290476Y-65233333D01*
X168480952Y-65185714D01*
X168623810Y-65185714D01*
X168814286Y-65233333D01*
X168909524Y-65280952D01*
X169004762Y-65376190D01*
X169052381Y-65519048D01*
X169052381Y-65757143D01*
X169052381Y-60619047D02*
X169052381Y-61190476D01*
X169052381Y-60904762D02*
X168052381Y-60904762D01*
X168195238Y-61000000D01*
X168290476Y-61095238D01*
X168338095Y-61190476D01*
X168147619Y-60238095D02*
X168100000Y-60190476D01*
X168052381Y-60095238D01*
X168052381Y-59857142D01*
X168100000Y-59761904D01*
X168147619Y-59714285D01*
X168242857Y-59666666D01*
X168338095Y-59666666D01*
X168480952Y-59714285D01*
X169052381Y-60285714D01*
X169052381Y-59666666D01*
X168052381Y-59380952D02*
X169052381Y-59047619D01*
X168052381Y-58714285D01*
X165852381Y-56190476D02*
X165852381Y-56761905D01*
X165852381Y-56476191D02*
X164852381Y-56476191D01*
X164995238Y-56571429D01*
X165090476Y-56666667D01*
X165138095Y-56761905D01*
X165280952Y-55619048D02*
X165233333Y-55714286D01*
X165185714Y-55761905D01*
X165090476Y-55809524D01*
X165042857Y-55809524D01*
X164947619Y-55761905D01*
X164900000Y-55714286D01*
X164852381Y-55619048D01*
X164852381Y-55428571D01*
X164900000Y-55333333D01*
X164947619Y-55285714D01*
X165042857Y-55238095D01*
X165090476Y-55238095D01*
X165185714Y-55285714D01*
X165233333Y-55333333D01*
X165280952Y-55428571D01*
X165280952Y-55619048D01*
X165328571Y-55714286D01*
X165376190Y-55761905D01*
X165471429Y-55809524D01*
X165661905Y-55809524D01*
X165757143Y-55761905D01*
X165804762Y-55714286D01*
X165852381Y-55619048D01*
X165852381Y-55428571D01*
X165804762Y-55333333D01*
X165757143Y-55285714D01*
X165661905Y-55238095D01*
X165471429Y-55238095D01*
X165376190Y-55285714D01*
X165328571Y-55333333D01*
X165280952Y-55428571D01*
X163252381Y-56190476D02*
X163252381Y-56761905D01*
X163252381Y-56476191D02*
X162252381Y-56476191D01*
X162395238Y-56571429D01*
X162490476Y-56666667D01*
X162538095Y-56761905D01*
X163252381Y-55714286D02*
X163252381Y-55523810D01*
X163204762Y-55428571D01*
X163157143Y-55380952D01*
X163014286Y-55285714D01*
X162823810Y-55238095D01*
X162442857Y-55238095D01*
X162347619Y-55285714D01*
X162300000Y-55333333D01*
X162252381Y-55428571D01*
X162252381Y-55619048D01*
X162300000Y-55714286D01*
X162347619Y-55761905D01*
X162442857Y-55809524D01*
X162680952Y-55809524D01*
X162776190Y-55761905D01*
X162823810Y-55714286D01*
X162871429Y-55619048D01*
X162871429Y-55428571D01*
X162823810Y-55333333D01*
X162776190Y-55285714D01*
X162680952Y-55238095D01*
X160652381Y-56190476D02*
X160652381Y-56000000D01*
X160604762Y-55904761D01*
X160557143Y-55857142D01*
X160414286Y-55761904D01*
X160223810Y-55714285D01*
X159842857Y-55714285D01*
X159747619Y-55761904D01*
X159700000Y-55809523D01*
X159652381Y-55904761D01*
X159652381Y-56095238D01*
X159700000Y-56190476D01*
X159747619Y-56238095D01*
X159842857Y-56285714D01*
X160080952Y-56285714D01*
X160176190Y-56238095D01*
X160223810Y-56190476D01*
X160271429Y-56095238D01*
X160271429Y-55904761D01*
X160223810Y-55809523D01*
X160176190Y-55761904D01*
X160080952Y-55714285D01*
X158252381Y-56190476D02*
X158252381Y-56761905D01*
X158252381Y-56476191D02*
X157252381Y-56476191D01*
X157395238Y-56571429D01*
X157490476Y-56666667D01*
X157538095Y-56761905D01*
X157252381Y-55571429D02*
X157252381Y-55476190D01*
X157300000Y-55380952D01*
X157347619Y-55333333D01*
X157442857Y-55285714D01*
X157633333Y-55238095D01*
X157871429Y-55238095D01*
X158061905Y-55285714D01*
X158157143Y-55333333D01*
X158204762Y-55380952D01*
X158252381Y-55476190D01*
X158252381Y-55571429D01*
X158204762Y-55666667D01*
X158157143Y-55714286D01*
X158061905Y-55761905D01*
X157871429Y-55809524D01*
X157633333Y-55809524D01*
X157442857Y-55761905D01*
X157347619Y-55714286D01*
X157300000Y-55666667D01*
X157252381Y-55571429D01*
X143952381Y-66940476D02*
X143952381Y-67416667D01*
X144428571Y-67464286D01*
X144380952Y-67416667D01*
X144333333Y-67321429D01*
X144333333Y-67083333D01*
X144380952Y-66988095D01*
X144428571Y-66940476D01*
X144523810Y-66892857D01*
X144761905Y-66892857D01*
X144857143Y-66940476D01*
X144904762Y-66988095D01*
X144952381Y-67083333D01*
X144952381Y-67321429D01*
X144904762Y-67416667D01*
X144857143Y-67464286D01*
X143952381Y-66607143D02*
X144952381Y-66273810D01*
X143952381Y-65940476D01*
X144952381Y-65607143D02*
X143952381Y-65607143D01*
X143952381Y-65369048D01*
X144000000Y-65226190D01*
X144095238Y-65130952D01*
X144190476Y-65083333D01*
X144380952Y-65035714D01*
X144523810Y-65035714D01*
X144714286Y-65083333D01*
X144809524Y-65130952D01*
X144904762Y-65226190D01*
X144952381Y-65369048D01*
X144952381Y-65607143D01*
X144952381Y-60619047D02*
X144952381Y-61190476D01*
X144952381Y-60904762D02*
X143952381Y-60904762D01*
X144095238Y-61000000D01*
X144190476Y-61095238D01*
X144238095Y-61190476D01*
X144047619Y-60238095D02*
X144000000Y-60190476D01*
X143952381Y-60095238D01*
X143952381Y-59857142D01*
X144000000Y-59761904D01*
X144047619Y-59714285D01*
X144142857Y-59666666D01*
X144238095Y-59666666D01*
X144380952Y-59714285D01*
X144952381Y-60285714D01*
X144952381Y-59666666D01*
X143952381Y-59380952D02*
X144952381Y-59047619D01*
X143952381Y-58714285D01*
X140947619Y-56285714D02*
X140900000Y-56238095D01*
X140852381Y-56142857D01*
X140852381Y-55904761D01*
X140900000Y-55809523D01*
X140947619Y-55761904D01*
X141042857Y-55714285D01*
X141138095Y-55714285D01*
X141280952Y-55761904D01*
X141852381Y-56333333D01*
X141852381Y-55714285D01*
X136652381Y-56190476D02*
X136652381Y-56761905D01*
X136652381Y-56476191D02*
X135652381Y-56476191D01*
X135795238Y-56571429D01*
X135890476Y-56666667D01*
X135938095Y-56761905D01*
X136652381Y-55238095D02*
X136652381Y-55809524D01*
X136652381Y-55523810D02*
X135652381Y-55523810D01*
X135795238Y-55619048D01*
X135890476Y-55714286D01*
X135938095Y-55809524D01*
X138252381Y-56333333D02*
X138252381Y-55714285D01*
X138633333Y-56047619D01*
X138633333Y-55904761D01*
X138680952Y-55809523D01*
X138728571Y-55761904D01*
X138823810Y-55714285D01*
X139061905Y-55714285D01*
X139157143Y-55761904D01*
X139204762Y-55809523D01*
X139252381Y-55904761D01*
X139252381Y-56190476D01*
X139204762Y-56285714D01*
X139157143Y-56333333D01*
X134202381Y-56190476D02*
X134202381Y-56761905D01*
X134202381Y-56476191D02*
X133202381Y-56476191D01*
X133345238Y-56571429D01*
X133440476Y-56666667D01*
X133488095Y-56761905D01*
X133297619Y-55809524D02*
X133250000Y-55761905D01*
X133202381Y-55666667D01*
X133202381Y-55428571D01*
X133250000Y-55333333D01*
X133297619Y-55285714D01*
X133392857Y-55238095D01*
X133488095Y-55238095D01*
X133630952Y-55285714D01*
X134202381Y-55857143D01*
X134202381Y-55238095D01*
X231552381Y-99590476D02*
X231552381Y-100066667D01*
X232028571Y-100114286D01*
X231980952Y-100066667D01*
X231933333Y-99971429D01*
X231933333Y-99733333D01*
X231980952Y-99638095D01*
X232028571Y-99590476D01*
X232123810Y-99542857D01*
X232361905Y-99542857D01*
X232457143Y-99590476D01*
X232504762Y-99638095D01*
X232552381Y-99733333D01*
X232552381Y-99971429D01*
X232504762Y-100066667D01*
X232457143Y-100114286D01*
X231552381Y-99257143D02*
X232552381Y-98923810D01*
X231552381Y-98590476D01*
X228404762Y-100785714D02*
X228452381Y-100642857D01*
X228452381Y-100404761D01*
X228404762Y-100309523D01*
X228357143Y-100261904D01*
X228261905Y-100214285D01*
X228166667Y-100214285D01*
X228071429Y-100261904D01*
X228023810Y-100309523D01*
X227976190Y-100404761D01*
X227928571Y-100595238D01*
X227880952Y-100690476D01*
X227833333Y-100738095D01*
X227738095Y-100785714D01*
X227642857Y-100785714D01*
X227547619Y-100738095D01*
X227500000Y-100690476D01*
X227452381Y-100595238D01*
X227452381Y-100357142D01*
X227500000Y-100214285D01*
X228357143Y-99214285D02*
X228404762Y-99261904D01*
X228452381Y-99404761D01*
X228452381Y-99499999D01*
X228404762Y-99642857D01*
X228309524Y-99738095D01*
X228214286Y-99785714D01*
X228023810Y-99833333D01*
X227880952Y-99833333D01*
X227690476Y-99785714D01*
X227595238Y-99738095D01*
X227500000Y-99642857D01*
X227452381Y-99499999D01*
X227452381Y-99404761D01*
X227500000Y-99261904D01*
X227547619Y-99214285D01*
X228452381Y-98785714D02*
X227452381Y-98785714D01*
X228452381Y-98214285D02*
X227880952Y-98642857D01*
X227452381Y-98214285D02*
X228023810Y-98785714D01*
X224452381Y-101171428D02*
X223452381Y-101171428D01*
X224166667Y-100838094D01*
X223452381Y-100504761D01*
X224452381Y-100504761D01*
X224452381Y-100028571D02*
X223452381Y-100028571D01*
X224404762Y-99600000D02*
X224452381Y-99457143D01*
X224452381Y-99219047D01*
X224404762Y-99123809D01*
X224357143Y-99076190D01*
X224261905Y-99028571D01*
X224166667Y-99028571D01*
X224071429Y-99076190D01*
X224023810Y-99123809D01*
X223976190Y-99219047D01*
X223928571Y-99409524D01*
X223880952Y-99504762D01*
X223833333Y-99552381D01*
X223738095Y-99600000D01*
X223642857Y-99600000D01*
X223547619Y-99552381D01*
X223500000Y-99504762D01*
X223452381Y-99409524D01*
X223452381Y-99171428D01*
X223500000Y-99028571D01*
X223452381Y-98409524D02*
X223452381Y-98219047D01*
X223500000Y-98123809D01*
X223595238Y-98028571D01*
X223785714Y-97980952D01*
X224119048Y-97980952D01*
X224309524Y-98028571D01*
X224404762Y-98123809D01*
X224452381Y-98219047D01*
X224452381Y-98409524D01*
X224404762Y-98504762D01*
X224309524Y-98600000D01*
X224119048Y-98647619D01*
X223785714Y-98647619D01*
X223595238Y-98600000D01*
X223500000Y-98504762D01*
X223452381Y-98409524D01*
X230404762Y-89061905D02*
X230452381Y-88919048D01*
X230452381Y-88680952D01*
X230404762Y-88585714D01*
X230357143Y-88538095D01*
X230261905Y-88490476D01*
X230166667Y-88490476D01*
X230071429Y-88538095D01*
X230023810Y-88585714D01*
X229976190Y-88680952D01*
X229928571Y-88871429D01*
X229880952Y-88966667D01*
X229833333Y-89014286D01*
X229738095Y-89061905D01*
X229642857Y-89061905D01*
X229547619Y-89014286D01*
X229500000Y-88966667D01*
X229452381Y-88871429D01*
X229452381Y-88633333D01*
X229500000Y-88490476D01*
X230404762Y-88109524D02*
X230452381Y-87966667D01*
X230452381Y-87728571D01*
X230404762Y-87633333D01*
X230357143Y-87585714D01*
X230261905Y-87538095D01*
X230166667Y-87538095D01*
X230071429Y-87585714D01*
X230023810Y-87633333D01*
X229976190Y-87728571D01*
X229928571Y-87919048D01*
X229880952Y-88014286D01*
X229833333Y-88061905D01*
X229738095Y-88109524D01*
X229642857Y-88109524D01*
X229547619Y-88061905D01*
X229500000Y-88014286D01*
X229452381Y-87919048D01*
X229452381Y-87680952D01*
X229500000Y-87538095D01*
X226552381Y-89871428D02*
X225552381Y-89871428D01*
X226266667Y-89538094D01*
X225552381Y-89204761D01*
X226552381Y-89204761D01*
X225552381Y-88538095D02*
X225552381Y-88347618D01*
X225600000Y-88252380D01*
X225695238Y-88157142D01*
X225885714Y-88109523D01*
X226219048Y-88109523D01*
X226409524Y-88157142D01*
X226504762Y-88252380D01*
X226552381Y-88347618D01*
X226552381Y-88538095D01*
X226504762Y-88633333D01*
X226409524Y-88728571D01*
X226219048Y-88776190D01*
X225885714Y-88776190D01*
X225695238Y-88728571D01*
X225600000Y-88633333D01*
X225552381Y-88538095D01*
X226504762Y-87728571D02*
X226552381Y-87585714D01*
X226552381Y-87347618D01*
X226504762Y-87252380D01*
X226457143Y-87204761D01*
X226361905Y-87157142D01*
X226266667Y-87157142D01*
X226171429Y-87204761D01*
X226123810Y-87252380D01*
X226076190Y-87347618D01*
X226028571Y-87538095D01*
X225980952Y-87633333D01*
X225933333Y-87680952D01*
X225838095Y-87728571D01*
X225742857Y-87728571D01*
X225647619Y-87680952D01*
X225600000Y-87633333D01*
X225552381Y-87538095D01*
X225552381Y-87299999D01*
X225600000Y-87157142D01*
X226552381Y-86728571D02*
X225552381Y-86728571D01*
X221500000Y-89261904D02*
X221452381Y-89357142D01*
X221452381Y-89499999D01*
X221500000Y-89642857D01*
X221595238Y-89738095D01*
X221690476Y-89785714D01*
X221880952Y-89833333D01*
X222023810Y-89833333D01*
X222214286Y-89785714D01*
X222309524Y-89738095D01*
X222404762Y-89642857D01*
X222452381Y-89499999D01*
X222452381Y-89404761D01*
X222404762Y-89261904D01*
X222357143Y-89214285D01*
X222023810Y-89214285D01*
X222023810Y-89404761D01*
X222452381Y-88785714D02*
X221452381Y-88785714D01*
X222452381Y-88214285D01*
X221452381Y-88214285D01*
X222452381Y-87738095D02*
X221452381Y-87738095D01*
X221452381Y-87500000D01*
X221500000Y-87357142D01*
X221595238Y-87261904D01*
X221690476Y-87214285D01*
X221880952Y-87166666D01*
X222023810Y-87166666D01*
X222214286Y-87214285D01*
X222309524Y-87261904D01*
X222404762Y-87357142D01*
X222452381Y-87500000D01*
X222452381Y-87738095D01*
X175500000Y-102261904D02*
X175452381Y-102357142D01*
X175452381Y-102499999D01*
X175500000Y-102642857D01*
X175595238Y-102738095D01*
X175690476Y-102785714D01*
X175880952Y-102833333D01*
X176023810Y-102833333D01*
X176214286Y-102785714D01*
X176309524Y-102738095D01*
X176404762Y-102642857D01*
X176452381Y-102499999D01*
X176452381Y-102404761D01*
X176404762Y-102261904D01*
X176357143Y-102214285D01*
X176023810Y-102214285D01*
X176023810Y-102404761D01*
X176452381Y-101785714D02*
X175452381Y-101785714D01*
X176452381Y-101214285D01*
X175452381Y-101214285D01*
X176452381Y-100738095D02*
X175452381Y-100738095D01*
X175452381Y-100500000D01*
X175500000Y-100357142D01*
X175595238Y-100261904D01*
X175690476Y-100214285D01*
X175880952Y-100166666D01*
X176023810Y-100166666D01*
X176214286Y-100214285D01*
X176309524Y-100261904D01*
X176404762Y-100357142D01*
X176452381Y-100500000D01*
X176452381Y-100738095D01*
X175452381Y-98990476D02*
X175452381Y-99466667D01*
X175928571Y-99514286D01*
X175880952Y-99466667D01*
X175833333Y-99371429D01*
X175833333Y-99133333D01*
X175880952Y-99038095D01*
X175928571Y-98990476D01*
X176023810Y-98942857D01*
X176261905Y-98942857D01*
X176357143Y-98990476D01*
X176404762Y-99038095D01*
X176452381Y-99133333D01*
X176452381Y-99371429D01*
X176404762Y-99466667D01*
X176357143Y-99514286D01*
X175452381Y-98657143D02*
X176452381Y-98323810D01*
X175452381Y-97990476D01*
X190809524Y-89852381D02*
X190238095Y-89852381D01*
X190523809Y-89852381D02*
X190523809Y-88852381D01*
X190428571Y-88995238D01*
X190333333Y-89090476D01*
X190238095Y-89138095D01*
X191714286Y-88852381D02*
X191238095Y-88852381D01*
X191190476Y-89328571D01*
X191238095Y-89280952D01*
X191333333Y-89233333D01*
X191571429Y-89233333D01*
X191666667Y-89280952D01*
X191714286Y-89328571D01*
X191761905Y-89423810D01*
X191761905Y-89661905D01*
X191714286Y-89757143D01*
X191666667Y-89804762D01*
X191571429Y-89852381D01*
X191333333Y-89852381D01*
X191238095Y-89804762D01*
X191190476Y-89757143D01*
X190504762Y-80480952D02*
X190409524Y-80433333D01*
X190361905Y-80385714D01*
X190314286Y-80290476D01*
X190314286Y-80242857D01*
X190361905Y-80147619D01*
X190409524Y-80100000D01*
X190504762Y-80052381D01*
X190695239Y-80052381D01*
X190790477Y-80100000D01*
X190838096Y-80147619D01*
X190885715Y-80242857D01*
X190885715Y-80290476D01*
X190838096Y-80385714D01*
X190790477Y-80433333D01*
X190695239Y-80480952D01*
X190504762Y-80480952D01*
X190409524Y-80528571D01*
X190361905Y-80576190D01*
X190314286Y-80671429D01*
X190314286Y-80861905D01*
X190361905Y-80957143D01*
X190409524Y-81004762D01*
X190504762Y-81052381D01*
X190695239Y-81052381D01*
X190790477Y-81004762D01*
X190838096Y-80957143D01*
X190885715Y-80861905D01*
X190885715Y-80671429D01*
X190838096Y-80576190D01*
X190790477Y-80528571D01*
X190695239Y-80480952D01*
X181166667Y-88952381D02*
X181833334Y-88952381D01*
X181404762Y-89952381D01*
X181452381Y-79952381D02*
X181547620Y-79952381D01*
X181642858Y-80000000D01*
X181690477Y-80047619D01*
X181738096Y-80142857D01*
X181785715Y-80333333D01*
X181785715Y-80571429D01*
X181738096Y-80761905D01*
X181690477Y-80857143D01*
X181642858Y-80904762D01*
X181547620Y-80952381D01*
X181452381Y-80952381D01*
X181357143Y-80904762D01*
X181309524Y-80857143D01*
X181261905Y-80761905D01*
X181214286Y-80571429D01*
X181214286Y-80333333D01*
X181261905Y-80142857D01*
X181309524Y-80047619D01*
X181357143Y-80000000D01*
X181452381Y-79952381D01*
X185833333Y-80690476D02*
X185833333Y-81166667D01*
X185547619Y-80595238D02*
X186547619Y-80928571D01*
X185547619Y-81261905D01*
X185547619Y-81595238D02*
X186547619Y-81595238D01*
X186547619Y-81833333D01*
X186500000Y-81976191D01*
X186404762Y-82071429D01*
X186309524Y-82119048D01*
X186119048Y-82166667D01*
X185976190Y-82166667D01*
X185785714Y-82119048D01*
X185690476Y-82071429D01*
X185595238Y-81976191D01*
X185547619Y-81833333D01*
X185547619Y-81595238D01*
X185642857Y-83166667D02*
X185595238Y-83119048D01*
X185547619Y-82976191D01*
X185547619Y-82880953D01*
X185595238Y-82738095D01*
X185690476Y-82642857D01*
X185785714Y-82595238D01*
X185976190Y-82547619D01*
X186119048Y-82547619D01*
X186309524Y-82595238D01*
X186404762Y-82642857D01*
X186500000Y-82738095D01*
X186547619Y-82880953D01*
X186547619Y-82976191D01*
X186500000Y-83119048D01*
X186452381Y-83166667D01*
X185547619Y-84357143D02*
X186547619Y-84357143D01*
X186547619Y-84738096D01*
X186500000Y-84833334D01*
X186452381Y-84880953D01*
X186357143Y-84928572D01*
X186214286Y-84928572D01*
X186119048Y-84880953D01*
X186071429Y-84833334D01*
X186023810Y-84738096D01*
X186023810Y-84357143D01*
X185547619Y-85357143D02*
X186547619Y-85357143D01*
X185547619Y-85833333D02*
X186547619Y-85833333D01*
X185547619Y-86404762D01*
X186547619Y-86404762D01*
X186547619Y-87071428D02*
X186547619Y-87261905D01*
X186500000Y-87357143D01*
X186404762Y-87452381D01*
X186214286Y-87500000D01*
X185880952Y-87500000D01*
X185690476Y-87452381D01*
X185595238Y-87357143D01*
X185547619Y-87261905D01*
X185547619Y-87071428D01*
X185595238Y-86976190D01*
X185690476Y-86880952D01*
X185880952Y-86833333D01*
X186214286Y-86833333D01*
X186404762Y-86880952D01*
X186500000Y-86976190D01*
X186547619Y-87071428D01*
X186547619Y-87928571D02*
X185738095Y-87928571D01*
X185642857Y-87976190D01*
X185595238Y-88023809D01*
X185547619Y-88119047D01*
X185547619Y-88309524D01*
X185595238Y-88404762D01*
X185642857Y-88452381D01*
X185738095Y-88500000D01*
X186547619Y-88500000D01*
X186547619Y-88833333D02*
X186547619Y-89404762D01*
X185547619Y-89119047D02*
X186547619Y-89119047D01*
D11*
X152900000Y-74400000D02*
X152900000Y-92100000D01*
X174300000Y-74400000D02*
X174300000Y-92200000D01*
X196500000Y-74400000D02*
X196500000Y-92200000D01*
X151500000Y-92200000D02*
X151500000Y-93600000D01*
X197800000Y-92200000D02*
X151500000Y-92200000D01*
X197800000Y-93700000D02*
X197800000Y-92200000D01*
D12*
X195809524Y-93552381D02*
X195238095Y-93552381D01*
X195523809Y-93552381D02*
X195523809Y-92552381D01*
X195428571Y-92695238D01*
X195333333Y-92790476D01*
X195238095Y-92838095D01*
X196714286Y-92552381D02*
X196238095Y-92552381D01*
X196190476Y-93028571D01*
X196238095Y-92980952D01*
X196333333Y-92933333D01*
X196571429Y-92933333D01*
X196666667Y-92980952D01*
X196714286Y-93028571D01*
X196761905Y-93123810D01*
X196761905Y-93361905D01*
X196714286Y-93457143D01*
X196666667Y-93504762D01*
X196571429Y-93552381D01*
X196333333Y-93552381D01*
X196238095Y-93504762D01*
X196190476Y-93457143D01*
X178004762Y-92980952D02*
X177909524Y-92933333D01*
X177861905Y-92885714D01*
X177814286Y-92790476D01*
X177814286Y-92742857D01*
X177861905Y-92647619D01*
X177909524Y-92600000D01*
X178004762Y-92552381D01*
X178195239Y-92552381D01*
X178290477Y-92600000D01*
X178338096Y-92647619D01*
X178385715Y-92742857D01*
X178385715Y-92790476D01*
X178338096Y-92885714D01*
X178290477Y-92933333D01*
X178195239Y-92980952D01*
X178004762Y-92980952D01*
X177909524Y-93028571D01*
X177861905Y-93076190D01*
X177814286Y-93171429D01*
X177814286Y-93361905D01*
X177861905Y-93457143D01*
X177909524Y-93504762D01*
X178004762Y-93552381D01*
X178195239Y-93552381D01*
X178290477Y-93504762D01*
X178338096Y-93457143D01*
X178385715Y-93361905D01*
X178385715Y-93171429D01*
X178338096Y-93076190D01*
X178290477Y-93028571D01*
X178195239Y-92980952D01*
X172766667Y-92552381D02*
X173433334Y-92552381D01*
X173004762Y-93552381D01*
X155252381Y-92552381D02*
X155347620Y-92552381D01*
X155442858Y-92600000D01*
X155490477Y-92647619D01*
X155538096Y-92742857D01*
X155585715Y-92933333D01*
X155585715Y-93171429D01*
X155538096Y-93361905D01*
X155490477Y-93457143D01*
X155442858Y-93504762D01*
X155347620Y-93552381D01*
X155252381Y-93552381D01*
X155157143Y-93504762D01*
X155109524Y-93457143D01*
X155061905Y-93361905D01*
X155014286Y-93171429D01*
X155014286Y-92933333D01*
X155061905Y-92742857D01*
X155109524Y-92647619D01*
X155157143Y-92600000D01*
X155252381Y-92552381D01*
X152966667Y-96638095D02*
X152966667Y-96161904D01*
X153252381Y-96733333D02*
X152252381Y-96400000D01*
X153252381Y-96066666D01*
X153252381Y-95733333D02*
X152252381Y-95733333D01*
X152252381Y-95495238D01*
X152300000Y-95352380D01*
X152395238Y-95257142D01*
X152490476Y-95209523D01*
X152680952Y-95161904D01*
X152823810Y-95161904D01*
X153014286Y-95209523D01*
X153109524Y-95257142D01*
X153204762Y-95352380D01*
X153252381Y-95495238D01*
X153252381Y-95733333D01*
X153157143Y-94161904D02*
X153204762Y-94209523D01*
X153252381Y-94352380D01*
X153252381Y-94447618D01*
X153204762Y-94590476D01*
X153109524Y-94685714D01*
X153014286Y-94733333D01*
X152823810Y-94780952D01*
X152680952Y-94780952D01*
X152490476Y-94733333D01*
X152395238Y-94685714D01*
X152300000Y-94590476D01*
X152252381Y-94447618D01*
X152252381Y-94352380D01*
X152300000Y-94209523D01*
X152347619Y-94161904D01*
X152300000Y-102361904D02*
X152252381Y-102457142D01*
X152252381Y-102599999D01*
X152300000Y-102742857D01*
X152395238Y-102838095D01*
X152490476Y-102885714D01*
X152680952Y-102933333D01*
X152823810Y-102933333D01*
X153014286Y-102885714D01*
X153109524Y-102838095D01*
X153204762Y-102742857D01*
X153252381Y-102599999D01*
X153252381Y-102504761D01*
X153204762Y-102361904D01*
X153157143Y-102314285D01*
X152823810Y-102314285D01*
X152823810Y-102504761D01*
X153252381Y-101885714D02*
X152252381Y-101885714D01*
X153252381Y-101314285D01*
X152252381Y-101314285D01*
X153252381Y-100838095D02*
X152252381Y-100838095D01*
X152252381Y-100600000D01*
X152300000Y-100457142D01*
X152395238Y-100361904D01*
X152490476Y-100314285D01*
X152680952Y-100266666D01*
X152823810Y-100266666D01*
X153014286Y-100314285D01*
X153109524Y-100361904D01*
X153204762Y-100457142D01*
X153252381Y-100600000D01*
X153252381Y-100838095D01*
X152252381Y-98890476D02*
X152252381Y-99366667D01*
X152728571Y-99414286D01*
X152680952Y-99366667D01*
X152633333Y-99271429D01*
X152633333Y-99033333D01*
X152680952Y-98938095D01*
X152728571Y-98890476D01*
X152823810Y-98842857D01*
X153061905Y-98842857D01*
X153157143Y-98890476D01*
X153204762Y-98938095D01*
X153252381Y-99033333D01*
X153252381Y-99271429D01*
X153204762Y-99366667D01*
X153157143Y-99414286D01*
X152252381Y-98557143D02*
X153252381Y-98223810D01*
X152252381Y-97890476D01*
D11*
X151500000Y-103200000D02*
X152100000Y-103200000D01*
X151500000Y-93600000D02*
X151500000Y-103200000D01*
X197800000Y-103200000D02*
X197800000Y-93600000D01*
X152000000Y-103200000D02*
X197800000Y-103200000D01*
D12*
X193952381Y-50990476D02*
X193952381Y-51466667D01*
X194428571Y-51514286D01*
X194380952Y-51466667D01*
X194333333Y-51371429D01*
X194333333Y-51133333D01*
X194380952Y-51038095D01*
X194428571Y-50990476D01*
X194523810Y-50942857D01*
X194761905Y-50942857D01*
X194857143Y-50990476D01*
X194904762Y-51038095D01*
X194952381Y-51133333D01*
X194952381Y-51371429D01*
X194904762Y-51466667D01*
X194857143Y-51514286D01*
X193952381Y-50657143D02*
X194952381Y-50323810D01*
X193952381Y-49990476D01*
X194952381Y-49657143D02*
X193952381Y-49657143D01*
X193952381Y-49419048D01*
X194000000Y-49276190D01*
X194095238Y-49180952D01*
X194190476Y-49133333D01*
X194380952Y-49085714D01*
X194523810Y-49085714D01*
X194714286Y-49133333D01*
X194809524Y-49180952D01*
X194904762Y-49276190D01*
X194952381Y-49419048D01*
X194952381Y-49657143D01*
X191452381Y-50990476D02*
X191452381Y-51466667D01*
X191928571Y-51514286D01*
X191880952Y-51466667D01*
X191833333Y-51371429D01*
X191833333Y-51133333D01*
X191880952Y-51038095D01*
X191928571Y-50990476D01*
X192023810Y-50942857D01*
X192261905Y-50942857D01*
X192357143Y-50990476D01*
X192404762Y-51038095D01*
X192452381Y-51133333D01*
X192452381Y-51371429D01*
X192404762Y-51466667D01*
X192357143Y-51514286D01*
X191452381Y-50657143D02*
X192452381Y-50323810D01*
X191452381Y-49990476D01*
X192452381Y-49657143D02*
X191452381Y-49657143D01*
X191452381Y-49419048D01*
X191500000Y-49276190D01*
X191595238Y-49180952D01*
X191690476Y-49133333D01*
X191880952Y-49085714D01*
X192023810Y-49085714D01*
X192214286Y-49133333D01*
X192309524Y-49180952D01*
X192404762Y-49276190D01*
X192452381Y-49419048D01*
X192452381Y-49657143D01*
X189328571Y-51323810D02*
X189328571Y-50990476D01*
X189852381Y-50847619D02*
X189852381Y-51323810D01*
X188852381Y-51323810D01*
X188852381Y-50847619D01*
X189947619Y-50657143D02*
X189947619Y-49895238D01*
X189566667Y-49704762D02*
X189566667Y-49228571D01*
X189852381Y-49800000D02*
X188852381Y-49466667D01*
X189852381Y-49133333D01*
X186728571Y-51395238D02*
X186728571Y-51061904D01*
X187252381Y-50919047D02*
X187252381Y-51395238D01*
X186252381Y-51395238D01*
X186252381Y-50919047D01*
X187347619Y-50728571D02*
X187347619Y-49966666D01*
X186728571Y-49395237D02*
X186776190Y-49252380D01*
X186823810Y-49204761D01*
X186919048Y-49157142D01*
X187061905Y-49157142D01*
X187157143Y-49204761D01*
X187204762Y-49252380D01*
X187252381Y-49347618D01*
X187252381Y-49728571D01*
X186252381Y-49728571D01*
X186252381Y-49395237D01*
X186300000Y-49299999D01*
X186347619Y-49252380D01*
X186442857Y-49204761D01*
X186538095Y-49204761D01*
X186633333Y-49252380D01*
X186680952Y-49299999D01*
X186728571Y-49395237D01*
X186728571Y-49728571D01*
X184752381Y-51538095D02*
X183752381Y-51538095D01*
X184466667Y-51204761D01*
X183752381Y-50871428D01*
X184752381Y-50871428D01*
X184466667Y-50442857D02*
X184466667Y-49966666D01*
X184752381Y-50538095D02*
X183752381Y-50204762D01*
X184752381Y-49871428D01*
X183752381Y-49633333D02*
X183752381Y-49014285D01*
X184133333Y-49347619D01*
X184133333Y-49204761D01*
X184180952Y-49109523D01*
X184228571Y-49061904D01*
X184323810Y-49014285D01*
X184561905Y-49014285D01*
X184657143Y-49061904D01*
X184704762Y-49109523D01*
X184752381Y-49204761D01*
X184752381Y-49490476D01*
X184704762Y-49585714D01*
X184657143Y-49633333D01*
X182252381Y-51609524D02*
X181252381Y-51609524D01*
X181966667Y-51276190D01*
X181252381Y-50942857D01*
X182252381Y-50942857D01*
X181728571Y-50133333D02*
X181776190Y-49990476D01*
X181823810Y-49942857D01*
X181919048Y-49895238D01*
X182061905Y-49895238D01*
X182157143Y-49942857D01*
X182204762Y-49990476D01*
X182252381Y-50085714D01*
X182252381Y-50466667D01*
X181252381Y-50466667D01*
X181252381Y-50133333D01*
X181300000Y-50038095D01*
X181347619Y-49990476D01*
X181442857Y-49942857D01*
X181538095Y-49942857D01*
X181633333Y-49990476D01*
X181680952Y-50038095D01*
X181728571Y-50133333D01*
X181728571Y-50466667D01*
X181252381Y-49561905D02*
X181252381Y-48942857D01*
X181633333Y-49276191D01*
X181633333Y-49133333D01*
X181680952Y-49038095D01*
X181728571Y-48990476D01*
X181823810Y-48942857D01*
X182061905Y-48942857D01*
X182157143Y-48990476D01*
X182204762Y-49038095D01*
X182252381Y-49133333D01*
X182252381Y-49419048D01*
X182204762Y-49514286D01*
X182157143Y-49561905D01*
X178700000Y-51061904D02*
X178652381Y-51157142D01*
X178652381Y-51299999D01*
X178700000Y-51442857D01*
X178795238Y-51538095D01*
X178890476Y-51585714D01*
X179080952Y-51633333D01*
X179223810Y-51633333D01*
X179414286Y-51585714D01*
X179509524Y-51538095D01*
X179604762Y-51442857D01*
X179652381Y-51299999D01*
X179652381Y-51204761D01*
X179604762Y-51061904D01*
X179557143Y-51014285D01*
X179223810Y-51014285D01*
X179223810Y-51204761D01*
X179652381Y-50585714D02*
X178652381Y-50585714D01*
X179652381Y-50014285D01*
X178652381Y-50014285D01*
X179652381Y-49538095D02*
X178652381Y-49538095D01*
X178652381Y-49300000D01*
X178700000Y-49157142D01*
X178795238Y-49061904D01*
X178890476Y-49014285D01*
X179080952Y-48966666D01*
X179223810Y-48966666D01*
X179414286Y-49014285D01*
X179509524Y-49061904D01*
X179604762Y-49157142D01*
X179652381Y-49300000D01*
X179652381Y-49538095D01*
X176300000Y-51061904D02*
X176252381Y-51157142D01*
X176252381Y-51299999D01*
X176300000Y-51442857D01*
X176395238Y-51538095D01*
X176490476Y-51585714D01*
X176680952Y-51633333D01*
X176823810Y-51633333D01*
X177014286Y-51585714D01*
X177109524Y-51538095D01*
X177204762Y-51442857D01*
X177252381Y-51299999D01*
X177252381Y-51204761D01*
X177204762Y-51061904D01*
X177157143Y-51014285D01*
X176823810Y-51014285D01*
X176823810Y-51204761D01*
X177252381Y-50585714D02*
X176252381Y-50585714D01*
X177252381Y-50014285D01*
X176252381Y-50014285D01*
X177252381Y-49538095D02*
X176252381Y-49538095D01*
X176252381Y-49300000D01*
X176300000Y-49157142D01*
X176395238Y-49061904D01*
X176490476Y-49014285D01*
X176680952Y-48966666D01*
X176823810Y-48966666D01*
X177014286Y-49014285D01*
X177109524Y-49061904D01*
X177204762Y-49157142D01*
X177252381Y-49300000D01*
X177252381Y-49538095D01*
X169952381Y-50990476D02*
X169952381Y-51466667D01*
X170428571Y-51514286D01*
X170380952Y-51466667D01*
X170333333Y-51371429D01*
X170333333Y-51133333D01*
X170380952Y-51038095D01*
X170428571Y-50990476D01*
X170523810Y-50942857D01*
X170761905Y-50942857D01*
X170857143Y-50990476D01*
X170904762Y-51038095D01*
X170952381Y-51133333D01*
X170952381Y-51371429D01*
X170904762Y-51466667D01*
X170857143Y-51514286D01*
X169952381Y-50657143D02*
X170952381Y-50323810D01*
X169952381Y-49990476D01*
X170952381Y-49657143D02*
X169952381Y-49657143D01*
X169952381Y-49419048D01*
X170000000Y-49276190D01*
X170095238Y-49180952D01*
X170190476Y-49133333D01*
X170380952Y-49085714D01*
X170523810Y-49085714D01*
X170714286Y-49133333D01*
X170809524Y-49180952D01*
X170904762Y-49276190D01*
X170952381Y-49419048D01*
X170952381Y-49657143D01*
X167552381Y-50990476D02*
X167552381Y-51466667D01*
X168028571Y-51514286D01*
X167980952Y-51466667D01*
X167933333Y-51371429D01*
X167933333Y-51133333D01*
X167980952Y-51038095D01*
X168028571Y-50990476D01*
X168123810Y-50942857D01*
X168361905Y-50942857D01*
X168457143Y-50990476D01*
X168504762Y-51038095D01*
X168552381Y-51133333D01*
X168552381Y-51371429D01*
X168504762Y-51466667D01*
X168457143Y-51514286D01*
X167552381Y-50657143D02*
X168552381Y-50323810D01*
X167552381Y-49990476D01*
X168552381Y-49657143D02*
X167552381Y-49657143D01*
X167552381Y-49419048D01*
X167600000Y-49276190D01*
X167695238Y-49180952D01*
X167790476Y-49133333D01*
X167980952Y-49085714D01*
X168123810Y-49085714D01*
X168314286Y-49133333D01*
X168409524Y-49180952D01*
X168504762Y-49276190D01*
X168552381Y-49419048D01*
X168552381Y-49657143D01*
X165328571Y-51423810D02*
X165328571Y-51090476D01*
X165852381Y-50947619D02*
X165852381Y-51423810D01*
X164852381Y-51423810D01*
X164852381Y-50947619D01*
X165947619Y-50757143D02*
X165947619Y-49995238D01*
X165566667Y-49804762D02*
X165566667Y-49328571D01*
X165852381Y-49900000D02*
X164852381Y-49566667D01*
X165852381Y-49233333D01*
X162828571Y-51495238D02*
X162828571Y-51161904D01*
X163352381Y-51019047D02*
X163352381Y-51495238D01*
X162352381Y-51495238D01*
X162352381Y-51019047D01*
X163447619Y-50828571D02*
X163447619Y-50066666D01*
X162828571Y-49495237D02*
X162876190Y-49352380D01*
X162923810Y-49304761D01*
X163019048Y-49257142D01*
X163161905Y-49257142D01*
X163257143Y-49304761D01*
X163304762Y-49352380D01*
X163352381Y-49447618D01*
X163352381Y-49828571D01*
X162352381Y-49828571D01*
X162352381Y-49495237D01*
X162400000Y-49399999D01*
X162447619Y-49352380D01*
X162542857Y-49304761D01*
X162638095Y-49304761D01*
X162733333Y-49352380D01*
X162780952Y-49399999D01*
X162828571Y-49495237D01*
X162828571Y-49828571D01*
X160852381Y-51638095D02*
X159852381Y-51638095D01*
X160566667Y-51304761D01*
X159852381Y-50971428D01*
X160852381Y-50971428D01*
X160566667Y-50542857D02*
X160566667Y-50066666D01*
X160852381Y-50638095D02*
X159852381Y-50304762D01*
X160852381Y-49971428D01*
X159947619Y-49685714D02*
X159900000Y-49638095D01*
X159852381Y-49542857D01*
X159852381Y-49304761D01*
X159900000Y-49209523D01*
X159947619Y-49161904D01*
X160042857Y-49114285D01*
X160138095Y-49114285D01*
X160280952Y-49161904D01*
X160852381Y-49733333D01*
X160852381Y-49114285D01*
X158252381Y-51709524D02*
X157252381Y-51709524D01*
X157966667Y-51376190D01*
X157252381Y-51042857D01*
X158252381Y-51042857D01*
X157728571Y-50233333D02*
X157776190Y-50090476D01*
X157823810Y-50042857D01*
X157919048Y-49995238D01*
X158061905Y-49995238D01*
X158157143Y-50042857D01*
X158204762Y-50090476D01*
X158252381Y-50185714D01*
X158252381Y-50566667D01*
X157252381Y-50566667D01*
X157252381Y-50233333D01*
X157300000Y-50138095D01*
X157347619Y-50090476D01*
X157442857Y-50042857D01*
X157538095Y-50042857D01*
X157633333Y-50090476D01*
X157680952Y-50138095D01*
X157728571Y-50233333D01*
X157728571Y-50566667D01*
X157347619Y-49614286D02*
X157300000Y-49566667D01*
X157252381Y-49471429D01*
X157252381Y-49233333D01*
X157300000Y-49138095D01*
X157347619Y-49090476D01*
X157442857Y-49042857D01*
X157538095Y-49042857D01*
X157680952Y-49090476D01*
X158252381Y-49661905D01*
X158252381Y-49042857D01*
X154800000Y-51161904D02*
X154752381Y-51257142D01*
X154752381Y-51399999D01*
X154800000Y-51542857D01*
X154895238Y-51638095D01*
X154990476Y-51685714D01*
X155180952Y-51733333D01*
X155323810Y-51733333D01*
X155514286Y-51685714D01*
X155609524Y-51638095D01*
X155704762Y-51542857D01*
X155752381Y-51399999D01*
X155752381Y-51304761D01*
X155704762Y-51161904D01*
X155657143Y-51114285D01*
X155323810Y-51114285D01*
X155323810Y-51304761D01*
X155752381Y-50685714D02*
X154752381Y-50685714D01*
X155752381Y-50114285D01*
X154752381Y-50114285D01*
X155752381Y-49638095D02*
X154752381Y-49638095D01*
X154752381Y-49400000D01*
X154800000Y-49257142D01*
X154895238Y-49161904D01*
X154990476Y-49114285D01*
X155180952Y-49066666D01*
X155323810Y-49066666D01*
X155514286Y-49114285D01*
X155609524Y-49161904D01*
X155704762Y-49257142D01*
X155752381Y-49400000D01*
X155752381Y-49638095D01*
X152200000Y-51161904D02*
X152152381Y-51257142D01*
X152152381Y-51399999D01*
X152200000Y-51542857D01*
X152295238Y-51638095D01*
X152390476Y-51685714D01*
X152580952Y-51733333D01*
X152723810Y-51733333D01*
X152914286Y-51685714D01*
X153009524Y-51638095D01*
X153104762Y-51542857D01*
X153152381Y-51399999D01*
X153152381Y-51304761D01*
X153104762Y-51161904D01*
X153057143Y-51114285D01*
X152723810Y-51114285D01*
X152723810Y-51304761D01*
X153152381Y-50685714D02*
X152152381Y-50685714D01*
X153152381Y-50114285D01*
X152152381Y-50114285D01*
X153152381Y-49638095D02*
X152152381Y-49638095D01*
X152152381Y-49400000D01*
X152200000Y-49257142D01*
X152295238Y-49161904D01*
X152390476Y-49114285D01*
X152580952Y-49066666D01*
X152723810Y-49066666D01*
X152914286Y-49114285D01*
X153009524Y-49161904D01*
X153104762Y-49257142D01*
X153152381Y-49400000D01*
X153152381Y-49638095D01*
X145952381Y-51090476D02*
X145952381Y-51566667D01*
X146428571Y-51614286D01*
X146380952Y-51566667D01*
X146333333Y-51471429D01*
X146333333Y-51233333D01*
X146380952Y-51138095D01*
X146428571Y-51090476D01*
X146523810Y-51042857D01*
X146761905Y-51042857D01*
X146857143Y-51090476D01*
X146904762Y-51138095D01*
X146952381Y-51233333D01*
X146952381Y-51471429D01*
X146904762Y-51566667D01*
X146857143Y-51614286D01*
X145952381Y-50757143D02*
X146952381Y-50423810D01*
X145952381Y-50090476D01*
X146952381Y-49757143D02*
X145952381Y-49757143D01*
X145952381Y-49519048D01*
X146000000Y-49376190D01*
X146095238Y-49280952D01*
X146190476Y-49233333D01*
X146380952Y-49185714D01*
X146523810Y-49185714D01*
X146714286Y-49233333D01*
X146809524Y-49280952D01*
X146904762Y-49376190D01*
X146952381Y-49519048D01*
X146952381Y-49757143D01*
X143452381Y-51090476D02*
X143452381Y-51566667D01*
X143928571Y-51614286D01*
X143880952Y-51566667D01*
X143833333Y-51471429D01*
X143833333Y-51233333D01*
X143880952Y-51138095D01*
X143928571Y-51090476D01*
X144023810Y-51042857D01*
X144261905Y-51042857D01*
X144357143Y-51090476D01*
X144404762Y-51138095D01*
X144452381Y-51233333D01*
X144452381Y-51471429D01*
X144404762Y-51566667D01*
X144357143Y-51614286D01*
X143452381Y-50757143D02*
X144452381Y-50423810D01*
X143452381Y-50090476D01*
X144452381Y-49757143D02*
X143452381Y-49757143D01*
X143452381Y-49519048D01*
X143500000Y-49376190D01*
X143595238Y-49280952D01*
X143690476Y-49233333D01*
X143880952Y-49185714D01*
X144023810Y-49185714D01*
X144214286Y-49233333D01*
X144309524Y-49280952D01*
X144404762Y-49376190D01*
X144452381Y-49519048D01*
X144452381Y-49757143D01*
X141428571Y-51423810D02*
X141428571Y-51090476D01*
X141952381Y-50947619D02*
X141952381Y-51423810D01*
X140952381Y-51423810D01*
X140952381Y-50947619D01*
X142047619Y-50757143D02*
X142047619Y-49995238D01*
X141666667Y-49804762D02*
X141666667Y-49328571D01*
X141952381Y-49900000D02*
X140952381Y-49566667D01*
X141952381Y-49233333D01*
X138828571Y-51495238D02*
X138828571Y-51161904D01*
X139352381Y-51019047D02*
X139352381Y-51495238D01*
X138352381Y-51495238D01*
X138352381Y-51019047D01*
X139447619Y-50828571D02*
X139447619Y-50066666D01*
X138828571Y-49495237D02*
X138876190Y-49352380D01*
X138923810Y-49304761D01*
X139019048Y-49257142D01*
X139161905Y-49257142D01*
X139257143Y-49304761D01*
X139304762Y-49352380D01*
X139352381Y-49447618D01*
X139352381Y-49828571D01*
X138352381Y-49828571D01*
X138352381Y-49495237D01*
X138400000Y-49399999D01*
X138447619Y-49352380D01*
X138542857Y-49304761D01*
X138638095Y-49304761D01*
X138733333Y-49352380D01*
X138780952Y-49399999D01*
X138828571Y-49495237D01*
X138828571Y-49828571D01*
X136852381Y-51638095D02*
X135852381Y-51638095D01*
X136566667Y-51304761D01*
X135852381Y-50971428D01*
X136852381Y-50971428D01*
X136566667Y-50542857D02*
X136566667Y-50066666D01*
X136852381Y-50638095D02*
X135852381Y-50304762D01*
X136852381Y-49971428D01*
X136852381Y-49114285D02*
X136852381Y-49685714D01*
X136852381Y-49400000D02*
X135852381Y-49400000D01*
X135995238Y-49495238D01*
X136090476Y-49590476D01*
X136138095Y-49685714D01*
X134352381Y-51709524D02*
X133352381Y-51709524D01*
X134066667Y-51376190D01*
X133352381Y-51042857D01*
X134352381Y-51042857D01*
X133828571Y-50233333D02*
X133876190Y-50090476D01*
X133923810Y-50042857D01*
X134019048Y-49995238D01*
X134161905Y-49995238D01*
X134257143Y-50042857D01*
X134304762Y-50090476D01*
X134352381Y-50185714D01*
X134352381Y-50566667D01*
X133352381Y-50566667D01*
X133352381Y-50233333D01*
X133400000Y-50138095D01*
X133447619Y-50090476D01*
X133542857Y-50042857D01*
X133638095Y-50042857D01*
X133733333Y-50090476D01*
X133780952Y-50138095D01*
X133828571Y-50233333D01*
X133828571Y-50566667D01*
X134352381Y-49042857D02*
X134352381Y-49614286D01*
X134352381Y-49328572D02*
X133352381Y-49328572D01*
X133495238Y-49423810D01*
X133590476Y-49519048D01*
X133638095Y-49614286D01*
X130800000Y-51161904D02*
X130752381Y-51257142D01*
X130752381Y-51399999D01*
X130800000Y-51542857D01*
X130895238Y-51638095D01*
X130990476Y-51685714D01*
X131180952Y-51733333D01*
X131323810Y-51733333D01*
X131514286Y-51685714D01*
X131609524Y-51638095D01*
X131704762Y-51542857D01*
X131752381Y-51399999D01*
X131752381Y-51304761D01*
X131704762Y-51161904D01*
X131657143Y-51114285D01*
X131323810Y-51114285D01*
X131323810Y-51304761D01*
X131752381Y-50685714D02*
X130752381Y-50685714D01*
X131752381Y-50114285D01*
X130752381Y-50114285D01*
X131752381Y-49638095D02*
X130752381Y-49638095D01*
X130752381Y-49400000D01*
X130800000Y-49257142D01*
X130895238Y-49161904D01*
X130990476Y-49114285D01*
X131180952Y-49066666D01*
X131323810Y-49066666D01*
X131514286Y-49114285D01*
X131609524Y-49161904D01*
X131704762Y-49257142D01*
X131752381Y-49400000D01*
X131752381Y-49638095D01*
X128300000Y-51161904D02*
X128252381Y-51257142D01*
X128252381Y-51399999D01*
X128300000Y-51542857D01*
X128395238Y-51638095D01*
X128490476Y-51685714D01*
X128680952Y-51733333D01*
X128823810Y-51733333D01*
X129014286Y-51685714D01*
X129109524Y-51638095D01*
X129204762Y-51542857D01*
X129252381Y-51399999D01*
X129252381Y-51304761D01*
X129204762Y-51161904D01*
X129157143Y-51114285D01*
X128823810Y-51114285D01*
X128823810Y-51304761D01*
X129252381Y-50685714D02*
X128252381Y-50685714D01*
X129252381Y-50114285D01*
X128252381Y-50114285D01*
X129252381Y-49638095D02*
X128252381Y-49638095D01*
X128252381Y-49400000D01*
X128300000Y-49257142D01*
X128395238Y-49161904D01*
X128490476Y-49114285D01*
X128680952Y-49066666D01*
X128823810Y-49066666D01*
X129014286Y-49114285D01*
X129109524Y-49161904D01*
X129204762Y-49257142D01*
X129252381Y-49400000D01*
X129252381Y-49638095D01*
D13*
X108871429Y-91578571D02*
X108014286Y-91578571D01*
X108442858Y-91578571D02*
X108442858Y-90078571D01*
X108300001Y-90292857D01*
X108157143Y-90435714D01*
X108014286Y-90507143D01*
X109442857Y-90221429D02*
X109514286Y-90150000D01*
X109657143Y-90078571D01*
X110014286Y-90078571D01*
X110157143Y-90150000D01*
X110228572Y-90221429D01*
X110300000Y-90364286D01*
X110300000Y-90507143D01*
X110228572Y-90721429D01*
X109371429Y-91578571D01*
X110300000Y-91578571D01*
X110728571Y-90078571D02*
X111228571Y-91578571D01*
X111728571Y-90078571D01*
X108757143Y-102550000D02*
X108614286Y-102478571D01*
X108400000Y-102478571D01*
X108185715Y-102550000D01*
X108042857Y-102692857D01*
X107971429Y-102835714D01*
X107900000Y-103121429D01*
X107900000Y-103335714D01*
X107971429Y-103621429D01*
X108042857Y-103764286D01*
X108185715Y-103907143D01*
X108400000Y-103978571D01*
X108542857Y-103978571D01*
X108757143Y-103907143D01*
X108828572Y-103835714D01*
X108828572Y-103335714D01*
X108542857Y-103335714D01*
X109471429Y-103978571D02*
X109471429Y-102478571D01*
X110328572Y-103978571D01*
X110328572Y-102478571D01*
X111042858Y-103978571D02*
X111042858Y-102478571D01*
X111400001Y-102478571D01*
X111614286Y-102550000D01*
X111757144Y-102692857D01*
X111828572Y-102835714D01*
X111900001Y-103121429D01*
X111900001Y-103335714D01*
X111828572Y-103621429D01*
X111757144Y-103764286D01*
X111614286Y-103907143D01*
X111400001Y-103978571D01*
X111042858Y-103978571D01*
X108757143Y-77550000D02*
X108614286Y-77478571D01*
X108400000Y-77478571D01*
X108185715Y-77550000D01*
X108042857Y-77692857D01*
X107971429Y-77835714D01*
X107900000Y-78121429D01*
X107900000Y-78335714D01*
X107971429Y-78621429D01*
X108042857Y-78764286D01*
X108185715Y-78907143D01*
X108400000Y-78978571D01*
X108542857Y-78978571D01*
X108757143Y-78907143D01*
X108828572Y-78835714D01*
X108828572Y-78335714D01*
X108542857Y-78335714D01*
X109471429Y-78978571D02*
X109471429Y-77478571D01*
X110328572Y-78978571D01*
X110328572Y-77478571D01*
X111042858Y-78978571D02*
X111042858Y-77478571D01*
X111400001Y-77478571D01*
X111614286Y-77550000D01*
X111757144Y-77692857D01*
X111828572Y-77835714D01*
X111900001Y-78121429D01*
X111900001Y-78335714D01*
X111828572Y-78621429D01*
X111757144Y-78764286D01*
X111614286Y-78907143D01*
X111400001Y-78978571D01*
X111042858Y-78978571D01*
X108864287Y-64778571D02*
X108150001Y-64778571D01*
X108078572Y-65492857D01*
X108150001Y-65421429D01*
X108292858Y-65350000D01*
X108650001Y-65350000D01*
X108792858Y-65421429D01*
X108864287Y-65492857D01*
X108935715Y-65635714D01*
X108935715Y-65992857D01*
X108864287Y-66135714D01*
X108792858Y-66207143D01*
X108650001Y-66278571D01*
X108292858Y-66278571D01*
X108150001Y-66207143D01*
X108078572Y-66135714D01*
X109364286Y-64778571D02*
X109864286Y-66278571D01*
X110364286Y-64778571D01*
X110864286Y-66278571D02*
X110864286Y-64778571D01*
X111221429Y-64778571D01*
X111435714Y-64850000D01*
X111578572Y-64992857D01*
X111650000Y-65135714D01*
X111721429Y-65421429D01*
X111721429Y-65635714D01*
X111650000Y-65921429D01*
X111578572Y-66064286D01*
X111435714Y-66207143D01*
X111221429Y-66278571D01*
X110864286Y-66278571D01*
D11*
X173600000Y-45700000D02*
X173600000Y-37200000D01*
X173600000Y-70300000D02*
X173600000Y-48800000D01*
X104700000Y-85700000D02*
X104700000Y-85600000D01*
X131500000Y-85700000D02*
X104700000Y-85700000D01*
X113300000Y-63300000D02*
X127000000Y-63300000D01*
D13*
X105742858Y-60678571D02*
X106600001Y-60678571D01*
X106171430Y-62178571D02*
X106171430Y-60678571D01*
X106957144Y-60678571D02*
X107957144Y-62178571D01*
X107957144Y-60678571D02*
X106957144Y-62178571D01*
X108814286Y-60678571D02*
X108957143Y-60678571D01*
X109100000Y-60750000D01*
X109171429Y-60821429D01*
X109242858Y-60964286D01*
X109314286Y-61250000D01*
X109314286Y-61607143D01*
X109242858Y-61892857D01*
X109171429Y-62035714D01*
X109100000Y-62107143D01*
X108957143Y-62178571D01*
X108814286Y-62178571D01*
X108671429Y-62107143D01*
X108600000Y-62035714D01*
X108528572Y-61892857D01*
X108457143Y-61607143D01*
X108457143Y-61250000D01*
X108528572Y-60964286D01*
X108600000Y-60821429D01*
X108671429Y-60750000D01*
X108814286Y-60678571D01*
X106635715Y-59578571D02*
X106135715Y-58864286D01*
X105778572Y-59578571D02*
X105778572Y-58078571D01*
X106350000Y-58078571D01*
X106492858Y-58150000D01*
X106564286Y-58221429D01*
X106635715Y-58364286D01*
X106635715Y-58578571D01*
X106564286Y-58721429D01*
X106492858Y-58792857D01*
X106350000Y-58864286D01*
X105778572Y-58864286D01*
X107135715Y-58078571D02*
X108135715Y-59578571D01*
X108135715Y-58078571D02*
X107135715Y-59578571D01*
X108992857Y-58078571D02*
X109135714Y-58078571D01*
X109278571Y-58150000D01*
X109350000Y-58221429D01*
X109421429Y-58364286D01*
X109492857Y-58650000D01*
X109492857Y-59007143D01*
X109421429Y-59292857D01*
X109350000Y-59435714D01*
X109278571Y-59507143D01*
X109135714Y-59578571D01*
X108992857Y-59578571D01*
X108850000Y-59507143D01*
X108778571Y-59435714D01*
X108707143Y-59292857D01*
X108635714Y-59007143D01*
X108635714Y-58650000D01*
X108707143Y-58364286D01*
X108778571Y-58221429D01*
X108850000Y-58150000D01*
X108992857Y-58078571D01*
X106457143Y-55650000D02*
X106314286Y-55578571D01*
X106100000Y-55578571D01*
X105885715Y-55650000D01*
X105742857Y-55792857D01*
X105671429Y-55935714D01*
X105600000Y-56221429D01*
X105600000Y-56435714D01*
X105671429Y-56721429D01*
X105742857Y-56864286D01*
X105885715Y-57007143D01*
X106100000Y-57078571D01*
X106242857Y-57078571D01*
X106457143Y-57007143D01*
X106528572Y-56935714D01*
X106528572Y-56435714D01*
X106242857Y-56435714D01*
X107171429Y-57078571D02*
X107171429Y-55578571D01*
X108028572Y-57078571D01*
X108028572Y-55578571D01*
X108742858Y-57078571D02*
X108742858Y-55578571D01*
X109100001Y-55578571D01*
X109314286Y-55650000D01*
X109457144Y-55792857D01*
X109528572Y-55935714D01*
X109600001Y-56221429D01*
X109600001Y-56435714D01*
X109528572Y-56721429D01*
X109457144Y-56864286D01*
X109314286Y-57007143D01*
X109100001Y-57078571D01*
X108742858Y-57078571D01*
X105642858Y-52178571D02*
X106500001Y-52178571D01*
X106071430Y-53678571D02*
X106071430Y-52178571D01*
X106857144Y-52178571D02*
X107857144Y-53678571D01*
X107857144Y-52178571D02*
X106857144Y-53678571D01*
X108285715Y-52178571D02*
X109214286Y-52178571D01*
X108714286Y-52750000D01*
X108928572Y-52750000D01*
X109071429Y-52821429D01*
X109142858Y-52892857D01*
X109214286Y-53035714D01*
X109214286Y-53392857D01*
X109142858Y-53535714D01*
X109071429Y-53607143D01*
X108928572Y-53678571D01*
X108500000Y-53678571D01*
X108357143Y-53607143D01*
X108285715Y-53535714D01*
X106535715Y-51178571D02*
X106035715Y-50464286D01*
X105678572Y-51178571D02*
X105678572Y-49678571D01*
X106250000Y-49678571D01*
X106392858Y-49750000D01*
X106464286Y-49821429D01*
X106535715Y-49964286D01*
X106535715Y-50178571D01*
X106464286Y-50321429D01*
X106392858Y-50392857D01*
X106250000Y-50464286D01*
X105678572Y-50464286D01*
X107035715Y-49678571D02*
X108035715Y-51178571D01*
X108035715Y-49678571D02*
X107035715Y-51178571D01*
X108464286Y-49678571D02*
X109392857Y-49678571D01*
X108892857Y-50250000D01*
X109107143Y-50250000D01*
X109250000Y-50321429D01*
X109321429Y-50392857D01*
X109392857Y-50535714D01*
X109392857Y-50892857D01*
X109321429Y-51035714D01*
X109250000Y-51107143D01*
X109107143Y-51178571D01*
X108678571Y-51178571D01*
X108535714Y-51107143D01*
X108464286Y-51035714D01*
X106357143Y-47150000D02*
X106214286Y-47078571D01*
X106000000Y-47078571D01*
X105785715Y-47150000D01*
X105642857Y-47292857D01*
X105571429Y-47435714D01*
X105500000Y-47721429D01*
X105500000Y-47935714D01*
X105571429Y-48221429D01*
X105642857Y-48364286D01*
X105785715Y-48507143D01*
X106000000Y-48578571D01*
X106142857Y-48578571D01*
X106357143Y-48507143D01*
X106428572Y-48435714D01*
X106428572Y-47935714D01*
X106142857Y-47935714D01*
X107071429Y-48578571D02*
X107071429Y-47078571D01*
X107928572Y-48578571D01*
X107928572Y-47078571D01*
X108642858Y-48578571D02*
X108642858Y-47078571D01*
X109000001Y-47078571D01*
X109214286Y-47150000D01*
X109357144Y-47292857D01*
X109428572Y-47435714D01*
X109500001Y-47721429D01*
X109500001Y-47935714D01*
X109428572Y-48221429D01*
X109357144Y-48364286D01*
X109214286Y-48507143D01*
X109000001Y-48578571D01*
X108642858Y-48578571D01*
X105742858Y-43678571D02*
X106600001Y-43678571D01*
X106171430Y-45178571D02*
X106171430Y-43678571D01*
X106957144Y-43678571D02*
X107957144Y-45178571D01*
X107957144Y-43678571D02*
X106957144Y-45178571D01*
X108457143Y-43821429D02*
X108528572Y-43750000D01*
X108671429Y-43678571D01*
X109028572Y-43678571D01*
X109171429Y-43750000D01*
X109242858Y-43821429D01*
X109314286Y-43964286D01*
X109314286Y-44107143D01*
X109242858Y-44321429D01*
X108385715Y-45178571D01*
X109314286Y-45178571D01*
X106535715Y-42678571D02*
X106035715Y-41964286D01*
X105678572Y-42678571D02*
X105678572Y-41178571D01*
X106250000Y-41178571D01*
X106392858Y-41250000D01*
X106464286Y-41321429D01*
X106535715Y-41464286D01*
X106535715Y-41678571D01*
X106464286Y-41821429D01*
X106392858Y-41892857D01*
X106250000Y-41964286D01*
X105678572Y-41964286D01*
X107035715Y-41178571D02*
X108035715Y-42678571D01*
X108035715Y-41178571D02*
X107035715Y-42678571D01*
X108535714Y-41321429D02*
X108607143Y-41250000D01*
X108750000Y-41178571D01*
X109107143Y-41178571D01*
X109250000Y-41250000D01*
X109321429Y-41321429D01*
X109392857Y-41464286D01*
X109392857Y-41607143D01*
X109321429Y-41821429D01*
X108464286Y-42678571D01*
X109392857Y-42678571D01*
X106357143Y-38650000D02*
X106214286Y-38578571D01*
X106000000Y-38578571D01*
X105785715Y-38650000D01*
X105642857Y-38792857D01*
X105571429Y-38935714D01*
X105500000Y-39221429D01*
X105500000Y-39435714D01*
X105571429Y-39721429D01*
X105642857Y-39864286D01*
X105785715Y-40007143D01*
X106000000Y-40078571D01*
X106142857Y-40078571D01*
X106357143Y-40007143D01*
X106428572Y-39935714D01*
X106428572Y-39435714D01*
X106142857Y-39435714D01*
X107071429Y-40078571D02*
X107071429Y-38578571D01*
X107928572Y-40078571D01*
X107928572Y-38578571D01*
X108642858Y-40078571D02*
X108642858Y-38578571D01*
X109000001Y-38578571D01*
X109214286Y-38650000D01*
X109357144Y-38792857D01*
X109428572Y-38935714D01*
X109500001Y-39221429D01*
X109500001Y-39435714D01*
X109428572Y-39721429D01*
X109357144Y-39864286D01*
X109214286Y-40007143D01*
X109000001Y-40078571D01*
X108642858Y-40078571D01*
D11*
X104600000Y-54700000D02*
X104600000Y-54600000D01*
X113300000Y-54700000D02*
X104600000Y-54700000D01*
X104800000Y-46200000D02*
X104800000Y-46100000D01*
X113300000Y-46200000D02*
X104800000Y-46200000D01*
X113300000Y-37100000D02*
X113200000Y-37100000D01*
X113300000Y-63300000D02*
X113300000Y-37100000D01*
X113300000Y-63300000D02*
X104600000Y-63300000D01*
X174300000Y-102900000D02*
X174400000Y-102900000D01*
X174300000Y-105400000D02*
X174300000Y-102900000D01*
X196400000Y-105200000D02*
X196400000Y-103000000D01*
X152800000Y-74400000D02*
X196500000Y-74400000D01*
X131500000Y-74400000D02*
X131700000Y-74400000D01*
X131500000Y-74800000D02*
X131500000Y-74400000D01*
X152800000Y-74400000D02*
X131600000Y-74400000D01*
X131500000Y-97250000D02*
X131500000Y-105250000D01*
X131500000Y-74750000D02*
X131500000Y-88500000D01*
X127000000Y-37250000D02*
X127000000Y-68500000D01*
X149750000Y-37250000D02*
X150000000Y-37250000D01*
X149750000Y-45500000D02*
X149750000Y-37250000D01*
X149750000Y-70250000D02*
X149750000Y-48750000D01*
X173500000Y-70250000D02*
X142000000Y-70250000D01*
X196500000Y-37000000D02*
X196750000Y-37000000D01*
X196500000Y-70250000D02*
X196500000Y-37000000D01*
X173500000Y-70250000D02*
X196500000Y-70250000D01*
X202750000Y-59250000D02*
X233750000Y-59250000D01*
X202750000Y-82750000D02*
X233750000Y-82750000D01*
X202750000Y-37250000D02*
X202750000Y-105250000D01*
D14*
X234040000Y-103080000D02*
X234040000Y-105620000D01*
X234040000Y-105620000D02*
X104500000Y-105620000D01*
X104500000Y-105620000D02*
X104500000Y-103080000D01*
X104500000Y-39580000D02*
X104500000Y-37040000D01*
X104500000Y-37040000D02*
X234040000Y-37040000D01*
X234040000Y-37040000D02*
X234040000Y-39580000D01*
X104500000Y-98000000D02*
X104500000Y-103080000D01*
X234040000Y-103080000D02*
X234040000Y-39580000D01*
X104500000Y-39580000D02*
X104500000Y-98000000D01*
D15*
X104500000Y-98000000D02*
X104500000Y-44660000D01*
D16*
X156520000Y-100140000D02*
X174420000Y-100140000D01*
X174420000Y-100140000D02*
X174420000Y-97360000D01*
X174420000Y-97360000D02*
X156520000Y-97360000D01*
X156520000Y-97360000D02*
X156520000Y-100140000D01*
X155250000Y-100140000D02*
X153860000Y-100140000D01*
X153860000Y-100140000D02*
X153860000Y-98750000D01*
X179520000Y-100140000D02*
X197420000Y-100140000D01*
X197420000Y-100140000D02*
X197420000Y-97360000D01*
X197420000Y-97360000D02*
X179520000Y-97360000D01*
X179520000Y-97360000D02*
X179520000Y-100140000D01*
X178250000Y-100140000D02*
X176860000Y-100140000D01*
X176860000Y-100140000D02*
X176860000Y-98750000D01*
X156520000Y-102890000D02*
X174420000Y-102890000D01*
X174420000Y-102890000D02*
X174420000Y-100110000D01*
X174420000Y-100110000D02*
X156520000Y-100110000D01*
X156520000Y-100110000D02*
X156520000Y-102890000D01*
X155250000Y-102890000D02*
X153860000Y-102890000D01*
X153860000Y-102890000D02*
X153860000Y-101500000D01*
X179520000Y-102890000D02*
X197420000Y-102890000D01*
X197420000Y-102890000D02*
X197420000Y-100110000D01*
X197420000Y-100110000D02*
X179520000Y-100110000D01*
X179520000Y-100110000D02*
X179520000Y-102890000D01*
X178250000Y-102890000D02*
X176860000Y-102890000D01*
X176860000Y-102890000D02*
X176860000Y-101500000D01*
X145230000Y-52110000D02*
X127330000Y-52110000D01*
X127330000Y-52110000D02*
X127330000Y-54890000D01*
X127330000Y-54890000D02*
X145230000Y-54890000D01*
X145230000Y-54890000D02*
X145230000Y-52110000D01*
X146500000Y-52110000D02*
X147890000Y-52110000D01*
X147890000Y-52110000D02*
X147890000Y-53500000D01*
X169230000Y-52110000D02*
X151330000Y-52110000D01*
X151330000Y-52110000D02*
X151330000Y-54890000D01*
X151330000Y-54890000D02*
X169230000Y-54890000D01*
X169230000Y-54890000D02*
X169230000Y-52110000D01*
X170500000Y-52110000D02*
X171890000Y-52110000D01*
X171890000Y-52110000D02*
X171890000Y-53500000D01*
X193230000Y-52110000D02*
X175330000Y-52110000D01*
X175330000Y-52110000D02*
X175330000Y-54890000D01*
X175330000Y-54890000D02*
X193230000Y-54890000D01*
X193230000Y-54890000D02*
X193230000Y-52110000D01*
X194500000Y-52110000D02*
X195890000Y-52110000D01*
X195890000Y-52110000D02*
X195890000Y-53500000D01*
X112890000Y-60230000D02*
X112890000Y-55030000D01*
X112890000Y-55030000D02*
X110110000Y-55030000D01*
X110110000Y-55030000D02*
X110110000Y-60230000D01*
X110110000Y-60230000D02*
X112890000Y-60230000D01*
X112890000Y-61500000D02*
X112890000Y-62890000D01*
X112890000Y-62890000D02*
X111500000Y-62890000D01*
X112890000Y-43230000D02*
X112890000Y-38030000D01*
X112890000Y-38030000D02*
X110110000Y-38030000D01*
X110110000Y-38030000D02*
X110110000Y-43230000D01*
X110110000Y-43230000D02*
X112890000Y-43230000D01*
X112890000Y-44500000D02*
X112890000Y-45890000D01*
X112890000Y-45890000D02*
X111500000Y-45890000D01*
X112890000Y-51730000D02*
X112890000Y-46530000D01*
X112890000Y-46530000D02*
X110110000Y-46530000D01*
X110110000Y-46530000D02*
X110110000Y-51730000D01*
X110110000Y-51730000D02*
X112890000Y-51730000D01*
X112890000Y-53000000D02*
X112890000Y-54390000D01*
X112890000Y-54390000D02*
X111500000Y-54390000D01*
X124850000Y-92500000D02*
X124850000Y-91500000D01*
X123150000Y-91500000D02*
X123150000Y-92500000D01*
X127200000Y-96800000D02*
X129380000Y-96800000D01*
X133800000Y-96800000D02*
X131620000Y-96800000D01*
X127960000Y-90200000D02*
X129380000Y-90200000D01*
X133040000Y-90200000D02*
X131620000Y-90200000D01*
X127200000Y-96800000D02*
X127200000Y-90960000D01*
X127200000Y-90960000D02*
X127960000Y-90200000D01*
X133040000Y-90200000D02*
X133800000Y-90960000D01*
X133800000Y-90960000D02*
X133800000Y-96800000D01*
X121550000Y-90650000D02*
X121550000Y-86350000D01*
X121550000Y-86350000D02*
X115850000Y-86350000D01*
X121550000Y-90650000D02*
X115850000Y-90650000D01*
D17*
X105900000Y-97000000D02*
X105400000Y-97000000D01*
X111900000Y-99500000D02*
G75*
G03X111900000Y-99500000I-2000000J0D01*
G01*
X111900000Y-94500000D02*
G75*
G03X111900000Y-94500000I-2000000J0D01*
G01*
X107400000Y-92000000D02*
X107400000Y-102000000D01*
X112300000Y-92000000D02*
X112300000Y-102000000D01*
X105900000Y-92000000D02*
X105900000Y-102000000D01*
X105400000Y-92000000D02*
X105400000Y-102000000D01*
X105400000Y-102000000D02*
X115200000Y-102000000D01*
X115200000Y-102000000D02*
X115200000Y-92000000D01*
X115200000Y-92000000D02*
X105400000Y-92000000D01*
D16*
X184670000Y-79880000D02*
X184670000Y-79860000D01*
X184670000Y-79860000D02*
X187330000Y-79860000D01*
X187330000Y-79860000D02*
X187330000Y-79880000D01*
X184670000Y-90120000D02*
X184670000Y-90140000D01*
X184670000Y-90140000D02*
X187330000Y-90140000D01*
X187330000Y-90140000D02*
X187330000Y-90120000D01*
X182365000Y-79880000D02*
X184670000Y-79880000D01*
X137650000Y-69000000D02*
X137650000Y-70000000D01*
X139350000Y-70000000D02*
X139350000Y-69000000D01*
X137300000Y-66200000D02*
X135120000Y-66200000D01*
X130700000Y-66200000D02*
X132880000Y-66200000D01*
X136540000Y-72800000D02*
X135120000Y-72800000D01*
X131460000Y-72800000D02*
X132880000Y-72800000D01*
X137300000Y-66200000D02*
X137300000Y-72040000D01*
X137300000Y-72040000D02*
X136540000Y-72800000D01*
X131460000Y-72800000D02*
X130700000Y-72040000D01*
X130700000Y-72040000D02*
X130700000Y-66200000D01*
X135200000Y-86800000D02*
X137380000Y-86800000D01*
X141800000Y-86800000D02*
X139620000Y-86800000D01*
X135960000Y-80200000D02*
X137380000Y-80200000D01*
X141040000Y-80200000D02*
X139620000Y-80200000D01*
X135200000Y-86800000D02*
X135200000Y-80960000D01*
X135200000Y-80960000D02*
X135960000Y-80200000D01*
X141040000Y-80200000D02*
X141800000Y-80960000D01*
X141800000Y-80960000D02*
X141800000Y-86800000D01*
X143850000Y-84000000D02*
X143850000Y-83000000D01*
X142150000Y-83000000D02*
X142150000Y-84000000D01*
D17*
X105900000Y-72000000D02*
X105400000Y-72000000D01*
X111900000Y-74500000D02*
G75*
G03X111900000Y-74500000I-2000000J0D01*
G01*
X111900000Y-69500000D02*
G75*
G03X111900000Y-69500000I-2000000J0D01*
G01*
X107400000Y-67000000D02*
X107400000Y-77000000D01*
X112300000Y-67000000D02*
X112300000Y-77000000D01*
X105900000Y-67000000D02*
X105900000Y-77000000D01*
X105400000Y-67000000D02*
X105400000Y-77000000D01*
X105400000Y-77000000D02*
X115200000Y-77000000D01*
X115200000Y-77000000D02*
X115200000Y-67000000D01*
X115200000Y-67000000D02*
X105400000Y-67000000D01*
D16*
X120100000Y-69460000D02*
X120100000Y-69110000D01*
X120100000Y-69110000D02*
X121600000Y-69110000D01*
X120100000Y-74110000D02*
X120100000Y-70910000D01*
X121600000Y-75910000D02*
X120100000Y-75910000D01*
X120100000Y-75910000D02*
X120100000Y-75510000D01*
X124900000Y-84540000D02*
X124900000Y-84890000D01*
X124900000Y-84890000D02*
X123400000Y-84890000D01*
X124900000Y-79890000D02*
X124900000Y-83090000D01*
X123400000Y-78090000D02*
X124900000Y-78090000D01*
X124900000Y-78090000D02*
X124900000Y-78490000D01*
X221200000Y-95060000D02*
X220940000Y-95060000D01*
X220940000Y-95060000D02*
X220940000Y-92940000D01*
X220940000Y-92940000D02*
X221200000Y-92940000D01*
X232800000Y-95060000D02*
X233060000Y-95060000D01*
X233060000Y-95060000D02*
X233060000Y-92940000D01*
X233060000Y-92940000D02*
X232800000Y-92940000D01*
X222680000Y-92940000D02*
X225320000Y-92940000D01*
X226680000Y-92940000D02*
X229320000Y-92940000D01*
X230680000Y-92940000D02*
X233060000Y-92940000D01*
X220940000Y-95060000D02*
X223320000Y-95060000D01*
X221200000Y-92940000D02*
X221200000Y-90500000D01*
X224680000Y-95060000D02*
X227320000Y-95060000D01*
X228680000Y-95060000D02*
X231320000Y-95060000D01*
X138540000Y-97730000D02*
X144080000Y-97730000D01*
X144080000Y-97730000D02*
X144080000Y-102070000D01*
X144080000Y-102070000D02*
X138540000Y-102070000D01*
X138540000Y-102070000D02*
X138540000Y-101170000D01*
X139500000Y-99265000D02*
X139500000Y-100535000D01*
X139500000Y-100535000D02*
X143120000Y-100535000D01*
X143120000Y-100535000D02*
X143120000Y-99265000D01*
X143120000Y-99265000D02*
X139500000Y-99265000D01*
X141310000Y-99265000D02*
X141310000Y-100535000D01*
X119800000Y-63800000D02*
X119800000Y-65200000D01*
X119800000Y-65200000D02*
X122600000Y-65200000D01*
X119800000Y-63800000D02*
X122600000Y-63800000D01*
X124600000Y-63620000D02*
X125800000Y-63620000D01*
X125800000Y-65380000D02*
X124600000Y-65380000D01*
X203010000Y-70690000D02*
X203010000Y-74510000D01*
X203010000Y-74510000D02*
X204790000Y-74510000D01*
X204790000Y-74510000D02*
X204790000Y-70690000D01*
X203010000Y-70690000D02*
X204790000Y-70690000D01*
D18*
G36*
X222472027Y-41027212D02*
X222588532Y-41027827D01*
X222689656Y-41028820D01*
X222768185Y-41030189D01*
X222816906Y-41031936D01*
X222829517Y-41033462D01*
X222839112Y-41053753D01*
X222863476Y-41108547D01*
X222900691Y-41193442D01*
X222948840Y-41304033D01*
X223006006Y-41435919D01*
X223070272Y-41584696D01*
X223136333Y-41738084D01*
X223205584Y-41898893D01*
X223269558Y-42047040D01*
X223326338Y-42178118D01*
X223374006Y-42287715D01*
X223410644Y-42371423D01*
X223434335Y-42424833D01*
X223443105Y-42443496D01*
X223465175Y-42451173D01*
X223519427Y-42465955D01*
X223596789Y-42485446D01*
X223657467Y-42500051D01*
X223777281Y-42530380D01*
X223912871Y-42567745D01*
X224039988Y-42605392D01*
X224073005Y-42615783D01*
X224280761Y-42682372D01*
X224891870Y-42224389D01*
X225052719Y-42104058D01*
X225183326Y-42007035D01*
X225287170Y-41931034D01*
X225367731Y-41873771D01*
X225428489Y-41832960D01*
X225472922Y-41806316D01*
X225504510Y-41791553D01*
X225526732Y-41786387D01*
X225543067Y-41788533D01*
X225550476Y-41791825D01*
X225582469Y-41810007D01*
X225644633Y-41846237D01*
X225730784Y-41896877D01*
X225834735Y-41958288D01*
X225950304Y-42026832D01*
X225983796Y-42046743D01*
X226369618Y-42276241D01*
X226360125Y-42356162D01*
X226355705Y-42396241D01*
X226347581Y-42472763D01*
X226336343Y-42580056D01*
X226322582Y-42712450D01*
X226306888Y-42864273D01*
X226289851Y-43029852D01*
X226279147Y-43134247D01*
X226207662Y-43832410D01*
X226457802Y-44086747D01*
X226546072Y-44176837D01*
X226628385Y-44261472D01*
X226698191Y-44333868D01*
X226748938Y-44387244D01*
X226768263Y-44408151D01*
X226828583Y-44475219D01*
X227576905Y-44390945D01*
X227749854Y-44371664D01*
X227908970Y-44354299D01*
X228049489Y-44339344D01*
X228166648Y-44327288D01*
X228255686Y-44318622D01*
X228311839Y-44313837D01*
X228330369Y-44313294D01*
X228341689Y-44332851D01*
X228370713Y-44384210D01*
X228414536Y-44462193D01*
X228470252Y-44561624D01*
X228534955Y-44677328D01*
X228581073Y-44759916D01*
X228826635Y-45199916D01*
X228450794Y-45733583D01*
X228353777Y-45871442D01*
X228261498Y-46002761D01*
X228177654Y-46122263D01*
X228105942Y-46224674D01*
X228050058Y-46304717D01*
X228013700Y-46357118D01*
X228006828Y-46367135D01*
X227938702Y-46467021D01*
X227995908Y-46663469D01*
X228025831Y-46771407D01*
X228059443Y-46900756D01*
X228091627Y-47031517D01*
X228107598Y-47100011D01*
X228162083Y-47340105D01*
X228855291Y-47658653D01*
X229548500Y-47977201D01*
X229548500Y-49002130D01*
X228855291Y-49321146D01*
X228162083Y-49640163D01*
X228107598Y-49879873D01*
X228078548Y-50002269D01*
X228045106Y-50134866D01*
X228012401Y-50257628D01*
X227995908Y-50316031D01*
X227938702Y-50512479D01*
X228006828Y-50612364D01*
X228036202Y-50654869D01*
X228086277Y-50726694D01*
X228153357Y-50822563D01*
X228233743Y-50937202D01*
X228323741Y-51065335D01*
X228419652Y-51201686D01*
X228450794Y-51245917D01*
X228826635Y-51779583D01*
X228581073Y-52219583D01*
X228512040Y-52343174D01*
X228450083Y-52453900D01*
X228398107Y-52546584D01*
X228359018Y-52616052D01*
X228335720Y-52657127D01*
X228330407Y-52666167D01*
X228308955Y-52665412D01*
X228250207Y-52660336D01*
X228158925Y-52651428D01*
X228039872Y-52639177D01*
X227897810Y-52624073D01*
X227737503Y-52606606D01*
X227576943Y-52588750D01*
X226828583Y-52504749D01*
X226768263Y-52571583D01*
X226732998Y-52609302D01*
X226674523Y-52670351D01*
X226599386Y-52747955D01*
X226514140Y-52835336D01*
X226457802Y-52892753D01*
X226207662Y-53147089D01*
X226279147Y-53845253D01*
X226296710Y-54016399D01*
X226313286Y-54177217D01*
X226328287Y-54322035D01*
X226341121Y-54445182D01*
X226351198Y-54540987D01*
X226357928Y-54603777D01*
X226360125Y-54623338D01*
X226369618Y-54703259D01*
X225983796Y-54932757D01*
X225866089Y-55002641D01*
X225758273Y-55066409D01*
X225666531Y-55120421D01*
X225597050Y-55161040D01*
X225556013Y-55184625D01*
X225550476Y-55187674D01*
X225535841Y-55192750D01*
X225517150Y-55191716D01*
X225490924Y-55182288D01*
X225453684Y-55162181D01*
X225401951Y-55129110D01*
X225332244Y-55080789D01*
X225241085Y-55014933D01*
X225124995Y-54929257D01*
X224980493Y-54821476D01*
X224891870Y-54755111D01*
X224280761Y-54297128D01*
X224073005Y-54363717D01*
X223953201Y-54400124D01*
X223817612Y-54438286D01*
X223690488Y-54471447D01*
X223657467Y-54479449D01*
X223569646Y-54500765D01*
X223498819Y-54518986D01*
X223454058Y-54531719D01*
X223443151Y-54536004D01*
X223433579Y-54556483D01*
X223409243Y-54611459D01*
X223372060Y-54696521D01*
X223323947Y-54807256D01*
X223266822Y-54939255D01*
X223202600Y-55088105D01*
X223136815Y-55240979D01*
X223067620Y-55401728D01*
X223003678Y-55549794D01*
X222946908Y-55680768D01*
X222899231Y-55790242D01*
X222862566Y-55873807D01*
X222838832Y-55927055D01*
X222830012Y-55945543D01*
X222806978Y-55948462D01*
X222748904Y-55951028D01*
X222663079Y-55953204D01*
X222556797Y-55954954D01*
X222437347Y-55956240D01*
X222312021Y-55957025D01*
X222188110Y-55957274D01*
X222072905Y-55956947D01*
X221973699Y-55956010D01*
X221897781Y-55954424D01*
X221852443Y-55952153D01*
X221843088Y-55950543D01*
X221830883Y-55929187D01*
X221804086Y-55873329D01*
X221764691Y-55787418D01*
X221714692Y-55675899D01*
X221656085Y-55543221D01*
X221590865Y-55393829D01*
X221525019Y-55241460D01*
X221455765Y-55080646D01*
X221391789Y-54932493D01*
X221335006Y-54801410D01*
X221287336Y-54691807D01*
X221250695Y-54608092D01*
X221227001Y-54554675D01*
X221218227Y-54536004D01*
X221196157Y-54528326D01*
X221141905Y-54513545D01*
X221064544Y-54494054D01*
X221003865Y-54479449D01*
X220884051Y-54449120D01*
X220748461Y-54411755D01*
X220621344Y-54374108D01*
X220588327Y-54363717D01*
X220380571Y-54297128D01*
X219769462Y-54755111D01*
X219608614Y-54875442D01*
X219478007Y-54972465D01*
X219374162Y-55048465D01*
X219293601Y-55105729D01*
X219232843Y-55146540D01*
X219188410Y-55173184D01*
X219156823Y-55187946D01*
X219134601Y-55193112D01*
X219118265Y-55190967D01*
X219110856Y-55187674D01*
X219078864Y-55169492D01*
X219016699Y-55133262D01*
X218930549Y-55082622D01*
X218826597Y-55021211D01*
X218711029Y-54952668D01*
X218677537Y-54932757D01*
X218291715Y-54703259D01*
X218301207Y-54623338D01*
X218305627Y-54583259D01*
X218313752Y-54506737D01*
X218324989Y-54399443D01*
X218338750Y-54267049D01*
X218354445Y-54115227D01*
X218371482Y-53949648D01*
X218382185Y-53845253D01*
X218453671Y-53147089D01*
X218203530Y-52892753D01*
X218115261Y-52802662D01*
X218032947Y-52718028D01*
X217963141Y-52645632D01*
X217912394Y-52592256D01*
X217893069Y-52571349D01*
X217832750Y-52504281D01*
X217084427Y-52588554D01*
X216911478Y-52607836D01*
X216752363Y-52625200D01*
X216611844Y-52640156D01*
X216494684Y-52652212D01*
X216405646Y-52660878D01*
X216349494Y-52665662D01*
X216330963Y-52666205D01*
X216319643Y-52646648D01*
X216290619Y-52595290D01*
X216246796Y-52517307D01*
X216191080Y-52417875D01*
X216126377Y-52302172D01*
X216080260Y-52219583D01*
X215834698Y-51779583D01*
X216210538Y-51245917D01*
X216307555Y-51108057D01*
X216399834Y-50976739D01*
X216483678Y-50857237D01*
X216555390Y-50754826D01*
X216611274Y-50674782D01*
X216647633Y-50622382D01*
X216654505Y-50612364D01*
X216722630Y-50512479D01*
X216665425Y-50316031D01*
X216635502Y-50208092D01*
X216601890Y-50078744D01*
X216569705Y-49947982D01*
X216553734Y-49879489D01*
X216499250Y-49639394D01*
X215806041Y-49320847D01*
X215112833Y-49002299D01*
X215112833Y-48489750D01*
X218097333Y-48489750D01*
X218104179Y-48791920D01*
X218126115Y-49067069D01*
X218165232Y-49328468D01*
X218223626Y-49589384D01*
X218303390Y-49863088D01*
X218324001Y-49926299D01*
X218478136Y-50325529D01*
X218668684Y-50705594D01*
X218893703Y-51063933D01*
X219151256Y-51397983D01*
X219439402Y-51705181D01*
X219756202Y-51982964D01*
X220034083Y-52185719D01*
X220181339Y-52277056D01*
X220355415Y-52373427D01*
X220543668Y-52468662D01*
X220733458Y-52556593D01*
X220912143Y-52631051D01*
X221043797Y-52678470D01*
X221243873Y-52737253D01*
X221460446Y-52789982D01*
X221674867Y-52832508D01*
X221856621Y-52859335D01*
X221978243Y-52869380D01*
X222128692Y-52875667D01*
X222294629Y-52878191D01*
X222462713Y-52876948D01*
X222619607Y-52871931D01*
X222751969Y-52863137D01*
X222785595Y-52859681D01*
X223170563Y-52797893D01*
X223540036Y-52701435D01*
X223902832Y-52567699D01*
X224140416Y-52458969D01*
X224396375Y-52324532D01*
X224625927Y-52184300D01*
X224844764Y-52028020D01*
X225033374Y-51875496D01*
X225337992Y-51589882D01*
X225612675Y-51275669D01*
X225855992Y-50935558D01*
X226066510Y-50572250D01*
X226242799Y-50188445D01*
X226383425Y-49786844D01*
X226486958Y-49370149D01*
X226541828Y-49030055D01*
X226549503Y-48945537D01*
X226556026Y-48830933D01*
X226560895Y-48698482D01*
X226563608Y-48560427D01*
X226564000Y-48489750D01*
X226557153Y-48187580D01*
X226535218Y-47912430D01*
X226496100Y-47651032D01*
X226437706Y-47390115D01*
X226357943Y-47116412D01*
X226337331Y-47053201D01*
X226183196Y-46653971D01*
X225992649Y-46273905D01*
X225767629Y-45915566D01*
X225510077Y-45581517D01*
X225221931Y-45274319D01*
X224905131Y-44996536D01*
X224627250Y-44793781D01*
X224480737Y-44702886D01*
X224307487Y-44606912D01*
X224120078Y-44511999D01*
X223931090Y-44424289D01*
X223753101Y-44349924D01*
X223618956Y-44301500D01*
X223215036Y-44192011D01*
X222804961Y-44123883D01*
X222391598Y-44097116D01*
X221977813Y-44111710D01*
X221566472Y-44167666D01*
X221160443Y-44264982D01*
X221042376Y-44301500D01*
X220883801Y-44359559D01*
X220703457Y-44436221D01*
X220513922Y-44525344D01*
X220327774Y-44620787D01*
X220157593Y-44716409D01*
X220034083Y-44793781D01*
X219695376Y-45045711D01*
X219383744Y-45329143D01*
X219101125Y-45641514D01*
X218849459Y-45980262D01*
X218630685Y-46342823D01*
X218446744Y-46726636D01*
X218324001Y-47053201D01*
X218239258Y-47331495D01*
X218176345Y-47594085D01*
X218133169Y-47854240D01*
X218107635Y-48125228D01*
X218097651Y-48420319D01*
X218097333Y-48489750D01*
X215112833Y-48489750D01*
X215112833Y-47977201D01*
X215806041Y-47658653D01*
X216499250Y-47340105D01*
X216553734Y-47100011D01*
X216582754Y-46977572D01*
X216616163Y-46844968D01*
X216648845Y-46722197D01*
X216665425Y-46663469D01*
X216722630Y-46467021D01*
X216654505Y-46367135D01*
X216625130Y-46324631D01*
X216575055Y-46252806D01*
X216507976Y-46156937D01*
X216427589Y-46042298D01*
X216337592Y-45914165D01*
X216241681Y-45777814D01*
X216210538Y-45733583D01*
X215834698Y-45199916D01*
X216080260Y-44759916D01*
X216149295Y-44636323D01*
X216211256Y-44525592D01*
X216263239Y-44432900D01*
X216302337Y-44363424D01*
X216325644Y-44322340D01*
X216330963Y-44313294D01*
X216352423Y-44314048D01*
X216411177Y-44319137D01*
X216502463Y-44328071D01*
X216621519Y-44340359D01*
X216763580Y-44355510D01*
X216923884Y-44373033D01*
X217084427Y-44390945D01*
X217832750Y-44475219D01*
X217893069Y-44408151D01*
X217928337Y-44370350D01*
X217986817Y-44309228D01*
X218061959Y-44231567D01*
X218147212Y-44144149D01*
X218203530Y-44086747D01*
X218453671Y-43832410D01*
X218382185Y-43134247D01*
X218364623Y-42963101D01*
X218348046Y-42802283D01*
X218333045Y-42657465D01*
X218320211Y-42534317D01*
X218310134Y-42438513D01*
X218303404Y-42375722D01*
X218301207Y-42356162D01*
X218291715Y-42276241D01*
X218677537Y-42046743D01*
X218795243Y-41976858D01*
X218903060Y-41913091D01*
X218994801Y-41859078D01*
X219064283Y-41818460D01*
X219105319Y-41794874D01*
X219110856Y-41791825D01*
X219125492Y-41786750D01*
X219144182Y-41787784D01*
X219170408Y-41797211D01*
X219207648Y-41817318D01*
X219259382Y-41850390D01*
X219329088Y-41898711D01*
X219420247Y-41964567D01*
X219536338Y-42050243D01*
X219680839Y-42158024D01*
X219769462Y-42224389D01*
X220380571Y-42682372D01*
X220588327Y-42615783D01*
X220708131Y-42579375D01*
X220843720Y-42541214D01*
X220970844Y-42508052D01*
X221003865Y-42500051D01*
X221091693Y-42478734D01*
X221162532Y-42460513D01*
X221207309Y-42447780D01*
X221218227Y-42443496D01*
X221227814Y-42423019D01*
X221252173Y-42368047D01*
X221289387Y-42282989D01*
X221337538Y-42172255D01*
X221394709Y-42040254D01*
X221458982Y-41891394D01*
X221525000Y-41738084D01*
X221594245Y-41577313D01*
X221658217Y-41429238D01*
X221714998Y-41298264D01*
X221762671Y-41188794D01*
X221799319Y-41105229D01*
X221823025Y-41051974D01*
X221831815Y-41033462D01*
X221853991Y-41031438D01*
X221911285Y-41029791D01*
X221996482Y-41028521D01*
X222102369Y-41027628D01*
X222221732Y-41027112D01*
X222347356Y-41026973D01*
X222472027Y-41027212D01*
X222472027Y-41027212D01*
G37*
X222472027Y-41027212D02*
X222588532Y-41027827D01*
X222689656Y-41028820D01*
X222768185Y-41030189D01*
X222816906Y-41031936D01*
X222829517Y-41033462D01*
X222839112Y-41053753D01*
X222863476Y-41108547D01*
X222900691Y-41193442D01*
X222948840Y-41304033D01*
X223006006Y-41435919D01*
X223070272Y-41584696D01*
X223136333Y-41738084D01*
X223205584Y-41898893D01*
X223269558Y-42047040D01*
X223326338Y-42178118D01*
X223374006Y-42287715D01*
X223410644Y-42371423D01*
X223434335Y-42424833D01*
X223443105Y-42443496D01*
X223465175Y-42451173D01*
X223519427Y-42465955D01*
X223596789Y-42485446D01*
X223657467Y-42500051D01*
X223777281Y-42530380D01*
X223912871Y-42567745D01*
X224039988Y-42605392D01*
X224073005Y-42615783D01*
X224280761Y-42682372D01*
X224891870Y-42224389D01*
X225052719Y-42104058D01*
X225183326Y-42007035D01*
X225287170Y-41931034D01*
X225367731Y-41873771D01*
X225428489Y-41832960D01*
X225472922Y-41806316D01*
X225504510Y-41791553D01*
X225526732Y-41786387D01*
X225543067Y-41788533D01*
X225550476Y-41791825D01*
X225582469Y-41810007D01*
X225644633Y-41846237D01*
X225730784Y-41896877D01*
X225834735Y-41958288D01*
X225950304Y-42026832D01*
X225983796Y-42046743D01*
X226369618Y-42276241D01*
X226360125Y-42356162D01*
X226355705Y-42396241D01*
X226347581Y-42472763D01*
X226336343Y-42580056D01*
X226322582Y-42712450D01*
X226306888Y-42864273D01*
X226289851Y-43029852D01*
X226279147Y-43134247D01*
X226207662Y-43832410D01*
X226457802Y-44086747D01*
X226546072Y-44176837D01*
X226628385Y-44261472D01*
X226698191Y-44333868D01*
X226748938Y-44387244D01*
X226768263Y-44408151D01*
X226828583Y-44475219D01*
X227576905Y-44390945D01*
X227749854Y-44371664D01*
X227908970Y-44354299D01*
X228049489Y-44339344D01*
X228166648Y-44327288D01*
X228255686Y-44318622D01*
X228311839Y-44313837D01*
X228330369Y-44313294D01*
X228341689Y-44332851D01*
X228370713Y-44384210D01*
X228414536Y-44462193D01*
X228470252Y-44561624D01*
X228534955Y-44677328D01*
X228581073Y-44759916D01*
X228826635Y-45199916D01*
X228450794Y-45733583D01*
X228353777Y-45871442D01*
X228261498Y-46002761D01*
X228177654Y-46122263D01*
X228105942Y-46224674D01*
X228050058Y-46304717D01*
X228013700Y-46357118D01*
X228006828Y-46367135D01*
X227938702Y-46467021D01*
X227995908Y-46663469D01*
X228025831Y-46771407D01*
X228059443Y-46900756D01*
X228091627Y-47031517D01*
X228107598Y-47100011D01*
X228162083Y-47340105D01*
X228855291Y-47658653D01*
X229548500Y-47977201D01*
X229548500Y-49002130D01*
X228855291Y-49321146D01*
X228162083Y-49640163D01*
X228107598Y-49879873D01*
X228078548Y-50002269D01*
X228045106Y-50134866D01*
X228012401Y-50257628D01*
X227995908Y-50316031D01*
X227938702Y-50512479D01*
X228006828Y-50612364D01*
X228036202Y-50654869D01*
X228086277Y-50726694D01*
X228153357Y-50822563D01*
X228233743Y-50937202D01*
X228323741Y-51065335D01*
X228419652Y-51201686D01*
X228450794Y-51245917D01*
X228826635Y-51779583D01*
X228581073Y-52219583D01*
X228512040Y-52343174D01*
X228450083Y-52453900D01*
X228398107Y-52546584D01*
X228359018Y-52616052D01*
X228335720Y-52657127D01*
X228330407Y-52666167D01*
X228308955Y-52665412D01*
X228250207Y-52660336D01*
X228158925Y-52651428D01*
X228039872Y-52639177D01*
X227897810Y-52624073D01*
X227737503Y-52606606D01*
X227576943Y-52588750D01*
X226828583Y-52504749D01*
X226768263Y-52571583D01*
X226732998Y-52609302D01*
X226674523Y-52670351D01*
X226599386Y-52747955D01*
X226514140Y-52835336D01*
X226457802Y-52892753D01*
X226207662Y-53147089D01*
X226279147Y-53845253D01*
X226296710Y-54016399D01*
X226313286Y-54177217D01*
X226328287Y-54322035D01*
X226341121Y-54445182D01*
X226351198Y-54540987D01*
X226357928Y-54603777D01*
X226360125Y-54623338D01*
X226369618Y-54703259D01*
X225983796Y-54932757D01*
X225866089Y-55002641D01*
X225758273Y-55066409D01*
X225666531Y-55120421D01*
X225597050Y-55161040D01*
X225556013Y-55184625D01*
X225550476Y-55187674D01*
X225535841Y-55192750D01*
X225517150Y-55191716D01*
X225490924Y-55182288D01*
X225453684Y-55162181D01*
X225401951Y-55129110D01*
X225332244Y-55080789D01*
X225241085Y-55014933D01*
X225124995Y-54929257D01*
X224980493Y-54821476D01*
X224891870Y-54755111D01*
X224280761Y-54297128D01*
X224073005Y-54363717D01*
X223953201Y-54400124D01*
X223817612Y-54438286D01*
X223690488Y-54471447D01*
X223657467Y-54479449D01*
X223569646Y-54500765D01*
X223498819Y-54518986D01*
X223454058Y-54531719D01*
X223443151Y-54536004D01*
X223433579Y-54556483D01*
X223409243Y-54611459D01*
X223372060Y-54696521D01*
X223323947Y-54807256D01*
X223266822Y-54939255D01*
X223202600Y-55088105D01*
X223136815Y-55240979D01*
X223067620Y-55401728D01*
X223003678Y-55549794D01*
X222946908Y-55680768D01*
X222899231Y-55790242D01*
X222862566Y-55873807D01*
X222838832Y-55927055D01*
X222830012Y-55945543D01*
X222806978Y-55948462D01*
X222748904Y-55951028D01*
X222663079Y-55953204D01*
X222556797Y-55954954D01*
X222437347Y-55956240D01*
X222312021Y-55957025D01*
X222188110Y-55957274D01*
X222072905Y-55956947D01*
X221973699Y-55956010D01*
X221897781Y-55954424D01*
X221852443Y-55952153D01*
X221843088Y-55950543D01*
X221830883Y-55929187D01*
X221804086Y-55873329D01*
X221764691Y-55787418D01*
X221714692Y-55675899D01*
X221656085Y-55543221D01*
X221590865Y-55393829D01*
X221525019Y-55241460D01*
X221455765Y-55080646D01*
X221391789Y-54932493D01*
X221335006Y-54801410D01*
X221287336Y-54691807D01*
X221250695Y-54608092D01*
X221227001Y-54554675D01*
X221218227Y-54536004D01*
X221196157Y-54528326D01*
X221141905Y-54513545D01*
X221064544Y-54494054D01*
X221003865Y-54479449D01*
X220884051Y-54449120D01*
X220748461Y-54411755D01*
X220621344Y-54374108D01*
X220588327Y-54363717D01*
X220380571Y-54297128D01*
X219769462Y-54755111D01*
X219608614Y-54875442D01*
X219478007Y-54972465D01*
X219374162Y-55048465D01*
X219293601Y-55105729D01*
X219232843Y-55146540D01*
X219188410Y-55173184D01*
X219156823Y-55187946D01*
X219134601Y-55193112D01*
X219118265Y-55190967D01*
X219110856Y-55187674D01*
X219078864Y-55169492D01*
X219016699Y-55133262D01*
X218930549Y-55082622D01*
X218826597Y-55021211D01*
X218711029Y-54952668D01*
X218677537Y-54932757D01*
X218291715Y-54703259D01*
X218301207Y-54623338D01*
X218305627Y-54583259D01*
X218313752Y-54506737D01*
X218324989Y-54399443D01*
X218338750Y-54267049D01*
X218354445Y-54115227D01*
X218371482Y-53949648D01*
X218382185Y-53845253D01*
X218453671Y-53147089D01*
X218203530Y-52892753D01*
X218115261Y-52802662D01*
X218032947Y-52718028D01*
X217963141Y-52645632D01*
X217912394Y-52592256D01*
X217893069Y-52571349D01*
X217832750Y-52504281D01*
X217084427Y-52588554D01*
X216911478Y-52607836D01*
X216752363Y-52625200D01*
X216611844Y-52640156D01*
X216494684Y-52652212D01*
X216405646Y-52660878D01*
X216349494Y-52665662D01*
X216330963Y-52666205D01*
X216319643Y-52646648D01*
X216290619Y-52595290D01*
X216246796Y-52517307D01*
X216191080Y-52417875D01*
X216126377Y-52302172D01*
X216080260Y-52219583D01*
X215834698Y-51779583D01*
X216210538Y-51245917D01*
X216307555Y-51108057D01*
X216399834Y-50976739D01*
X216483678Y-50857237D01*
X216555390Y-50754826D01*
X216611274Y-50674782D01*
X216647633Y-50622382D01*
X216654505Y-50612364D01*
X216722630Y-50512479D01*
X216665425Y-50316031D01*
X216635502Y-50208092D01*
X216601890Y-50078744D01*
X216569705Y-49947982D01*
X216553734Y-49879489D01*
X216499250Y-49639394D01*
X215806041Y-49320847D01*
X215112833Y-49002299D01*
X215112833Y-48489750D01*
X218097333Y-48489750D01*
X218104179Y-48791920D01*
X218126115Y-49067069D01*
X218165232Y-49328468D01*
X218223626Y-49589384D01*
X218303390Y-49863088D01*
X218324001Y-49926299D01*
X218478136Y-50325529D01*
X218668684Y-50705594D01*
X218893703Y-51063933D01*
X219151256Y-51397983D01*
X219439402Y-51705181D01*
X219756202Y-51982964D01*
X220034083Y-52185719D01*
X220181339Y-52277056D01*
X220355415Y-52373427D01*
X220543668Y-52468662D01*
X220733458Y-52556593D01*
X220912143Y-52631051D01*
X221043797Y-52678470D01*
X221243873Y-52737253D01*
X221460446Y-52789982D01*
X221674867Y-52832508D01*
X221856621Y-52859335D01*
X221978243Y-52869380D01*
X222128692Y-52875667D01*
X222294629Y-52878191D01*
X222462713Y-52876948D01*
X222619607Y-52871931D01*
X222751969Y-52863137D01*
X222785595Y-52859681D01*
X223170563Y-52797893D01*
X223540036Y-52701435D01*
X223902832Y-52567699D01*
X224140416Y-52458969D01*
X224396375Y-52324532D01*
X224625927Y-52184300D01*
X224844764Y-52028020D01*
X225033374Y-51875496D01*
X225337992Y-51589882D01*
X225612675Y-51275669D01*
X225855992Y-50935558D01*
X226066510Y-50572250D01*
X226242799Y-50188445D01*
X226383425Y-49786844D01*
X226486958Y-49370149D01*
X226541828Y-49030055D01*
X226549503Y-48945537D01*
X226556026Y-48830933D01*
X226560895Y-48698482D01*
X226563608Y-48560427D01*
X226564000Y-48489750D01*
X226557153Y-48187580D01*
X226535218Y-47912430D01*
X226496100Y-47651032D01*
X226437706Y-47390115D01*
X226357943Y-47116412D01*
X226337331Y-47053201D01*
X226183196Y-46653971D01*
X225992649Y-46273905D01*
X225767629Y-45915566D01*
X225510077Y-45581517D01*
X225221931Y-45274319D01*
X224905131Y-44996536D01*
X224627250Y-44793781D01*
X224480737Y-44702886D01*
X224307487Y-44606912D01*
X224120078Y-44511999D01*
X223931090Y-44424289D01*
X223753101Y-44349924D01*
X223618956Y-44301500D01*
X223215036Y-44192011D01*
X222804961Y-44123883D01*
X222391598Y-44097116D01*
X221977813Y-44111710D01*
X221566472Y-44167666D01*
X221160443Y-44264982D01*
X221042376Y-44301500D01*
X220883801Y-44359559D01*
X220703457Y-44436221D01*
X220513922Y-44525344D01*
X220327774Y-44620787D01*
X220157593Y-44716409D01*
X220034083Y-44793781D01*
X219695376Y-45045711D01*
X219383744Y-45329143D01*
X219101125Y-45641514D01*
X218849459Y-45980262D01*
X218630685Y-46342823D01*
X218446744Y-46726636D01*
X218324001Y-47053201D01*
X218239258Y-47331495D01*
X218176345Y-47594085D01*
X218133169Y-47854240D01*
X218107635Y-48125228D01*
X218097651Y-48420319D01*
X218097333Y-48489750D01*
X215112833Y-48489750D01*
X215112833Y-47977201D01*
X215806041Y-47658653D01*
X216499250Y-47340105D01*
X216553734Y-47100011D01*
X216582754Y-46977572D01*
X216616163Y-46844968D01*
X216648845Y-46722197D01*
X216665425Y-46663469D01*
X216722630Y-46467021D01*
X216654505Y-46367135D01*
X216625130Y-46324631D01*
X216575055Y-46252806D01*
X216507976Y-46156937D01*
X216427589Y-46042298D01*
X216337592Y-45914165D01*
X216241681Y-45777814D01*
X216210538Y-45733583D01*
X215834698Y-45199916D01*
X216080260Y-44759916D01*
X216149295Y-44636323D01*
X216211256Y-44525592D01*
X216263239Y-44432900D01*
X216302337Y-44363424D01*
X216325644Y-44322340D01*
X216330963Y-44313294D01*
X216352423Y-44314048D01*
X216411177Y-44319137D01*
X216502463Y-44328071D01*
X216621519Y-44340359D01*
X216763580Y-44355510D01*
X216923884Y-44373033D01*
X217084427Y-44390945D01*
X217832750Y-44475219D01*
X217893069Y-44408151D01*
X217928337Y-44370350D01*
X217986817Y-44309228D01*
X218061959Y-44231567D01*
X218147212Y-44144149D01*
X218203530Y-44086747D01*
X218453671Y-43832410D01*
X218382185Y-43134247D01*
X218364623Y-42963101D01*
X218348046Y-42802283D01*
X218333045Y-42657465D01*
X218320211Y-42534317D01*
X218310134Y-42438513D01*
X218303404Y-42375722D01*
X218301207Y-42356162D01*
X218291715Y-42276241D01*
X218677537Y-42046743D01*
X218795243Y-41976858D01*
X218903060Y-41913091D01*
X218994801Y-41859078D01*
X219064283Y-41818460D01*
X219105319Y-41794874D01*
X219110856Y-41791825D01*
X219125492Y-41786750D01*
X219144182Y-41787784D01*
X219170408Y-41797211D01*
X219207648Y-41817318D01*
X219259382Y-41850390D01*
X219329088Y-41898711D01*
X219420247Y-41964567D01*
X219536338Y-42050243D01*
X219680839Y-42158024D01*
X219769462Y-42224389D01*
X220380571Y-42682372D01*
X220588327Y-42615783D01*
X220708131Y-42579375D01*
X220843720Y-42541214D01*
X220970844Y-42508052D01*
X221003865Y-42500051D01*
X221091693Y-42478734D01*
X221162532Y-42460513D01*
X221207309Y-42447780D01*
X221218227Y-42443496D01*
X221227814Y-42423019D01*
X221252173Y-42368047D01*
X221289387Y-42282989D01*
X221337538Y-42172255D01*
X221394709Y-42040254D01*
X221458982Y-41891394D01*
X221525000Y-41738084D01*
X221594245Y-41577313D01*
X221658217Y-41429238D01*
X221714998Y-41298264D01*
X221762671Y-41188794D01*
X221799319Y-41105229D01*
X221823025Y-41051974D01*
X221831815Y-41033462D01*
X221853991Y-41031438D01*
X221911285Y-41029791D01*
X221996482Y-41028521D01*
X222102369Y-41027628D01*
X222221732Y-41027112D01*
X222347356Y-41026973D01*
X222472027Y-41027212D01*
G36*
X220415761Y-54377272D02*
X220444590Y-54393825D01*
X220432271Y-54403855D01*
X220403250Y-54405833D01*
X220373739Y-54398018D01*
X220372178Y-54385591D01*
X220399714Y-54374060D01*
X220415761Y-54377272D01*
X220415761Y-54377272D01*
G37*
X220415761Y-54377272D02*
X220444590Y-54393825D01*
X220432271Y-54403855D01*
X220403250Y-54405833D01*
X220373739Y-54398018D01*
X220372178Y-54385591D01*
X220399714Y-54374060D01*
X220415761Y-54377272D01*
G36*
X221222280Y-45706467D02*
X221511633Y-45706908D01*
X221762967Y-45707710D01*
X221978436Y-45708931D01*
X222160197Y-45710627D01*
X222310406Y-45712854D01*
X222431219Y-45715669D01*
X222524793Y-45719127D01*
X222593284Y-45723286D01*
X222638847Y-45728201D01*
X222663639Y-45733929D01*
X222669816Y-45740526D01*
X222659534Y-45748048D01*
X222648834Y-45752194D01*
X222639406Y-45773886D01*
X222622580Y-45831887D01*
X222599616Y-45921068D01*
X222571776Y-46036299D01*
X222540320Y-46172451D01*
X222506509Y-46324395D01*
X222493637Y-46383667D01*
X222358939Y-47008083D01*
X221078007Y-47013538D01*
X219797075Y-47018992D01*
X219738019Y-47288704D01*
X219715123Y-47391891D01*
X219694758Y-47481117D01*
X219678953Y-47547674D01*
X219669735Y-47582854D01*
X219669050Y-47584875D01*
X219674570Y-47593263D01*
X219700726Y-47599794D01*
X219751369Y-47604659D01*
X219830350Y-47608049D01*
X219941522Y-47610155D01*
X220088734Y-47611169D01*
X220202108Y-47611333D01*
X220745079Y-47611333D01*
X221162164Y-48241042D01*
X221258709Y-48386944D01*
X221347746Y-48521773D01*
X221426590Y-48641443D01*
X221492559Y-48741866D01*
X221542967Y-48818960D01*
X221575130Y-48868636D01*
X221586305Y-48886625D01*
X221567176Y-48889671D01*
X221509610Y-48892526D01*
X221417501Y-48895132D01*
X221294747Y-48897433D01*
X221145242Y-48899372D01*
X220972882Y-48900893D01*
X220781563Y-48901940D01*
X220575181Y-48902455D01*
X220492356Y-48902500D01*
X220247825Y-48902571D01*
X220042227Y-48902861D01*
X219872163Y-48903482D01*
X219734236Y-48904547D01*
X219625044Y-48906171D01*
X219541188Y-48908466D01*
X219479270Y-48911545D01*
X219435891Y-48915522D01*
X219407650Y-48920510D01*
X219391148Y-48926622D01*
X219382987Y-48933972D01*
X219380522Y-48939542D01*
X219373194Y-48969768D01*
X219358732Y-49033582D01*
X219338561Y-49124402D01*
X219314105Y-49235649D01*
X219286789Y-49360742D01*
X219258037Y-49493101D01*
X219229275Y-49626145D01*
X219201927Y-49753294D01*
X219177418Y-49867968D01*
X219157172Y-49963586D01*
X219142614Y-50033569D01*
X219135168Y-50071335D01*
X219134500Y-50075901D01*
X219155063Y-50078016D01*
X219214340Y-50080012D01*
X219308711Y-50081855D01*
X219434556Y-50083511D01*
X219588255Y-50084948D01*
X219766190Y-50086131D01*
X219964739Y-50087029D01*
X220180285Y-50087606D01*
X220409206Y-50087831D01*
X220431839Y-50087833D01*
X221729179Y-50087833D01*
X222162140Y-50684205D01*
X222264396Y-50824776D01*
X222359558Y-50955060D01*
X222444583Y-51070930D01*
X222516423Y-51168259D01*
X222572035Y-51242916D01*
X222608372Y-51290775D01*
X222621634Y-51307110D01*
X222644453Y-51335873D01*
X222648166Y-51345738D01*
X222627521Y-51347598D01*
X222567672Y-51349371D01*
X222471749Y-51351035D01*
X222342880Y-51352568D01*
X222184196Y-51353948D01*
X221998825Y-51355154D01*
X221789898Y-51356163D01*
X221560543Y-51356954D01*
X221313890Y-51357505D01*
X221053068Y-51357794D01*
X220912477Y-51357833D01*
X219176789Y-51357833D01*
X219076269Y-51229023D01*
X218831110Y-50881041D01*
X218620217Y-50510632D01*
X218445261Y-50121900D01*
X218307912Y-49718950D01*
X218209841Y-49305886D01*
X218162055Y-48982709D01*
X218140487Y-48659330D01*
X218142554Y-48317459D01*
X218167513Y-47973213D01*
X218214623Y-47642712D01*
X218226656Y-47579583D01*
X218295412Y-47298774D01*
X218390116Y-47007705D01*
X218506493Y-46715718D01*
X218640266Y-46432153D01*
X218787160Y-46166353D01*
X218942898Y-45927659D01*
X219042908Y-45796292D01*
X219116167Y-45706333D01*
X220892750Y-45706333D01*
X221222280Y-45706467D01*
X221222280Y-45706467D01*
G37*
X221222280Y-45706467D02*
X221511633Y-45706908D01*
X221762967Y-45707710D01*
X221978436Y-45708931D01*
X222160197Y-45710627D01*
X222310406Y-45712854D01*
X222431219Y-45715669D01*
X222524793Y-45719127D01*
X222593284Y-45723286D01*
X222638847Y-45728201D01*
X222663639Y-45733929D01*
X222669816Y-45740526D01*
X222659534Y-45748048D01*
X222648834Y-45752194D01*
X222639406Y-45773886D01*
X222622580Y-45831887D01*
X222599616Y-45921068D01*
X222571776Y-46036299D01*
X222540320Y-46172451D01*
X222506509Y-46324395D01*
X222493637Y-46383667D01*
X222358939Y-47008083D01*
X221078007Y-47013538D01*
X219797075Y-47018992D01*
X219738019Y-47288704D01*
X219715123Y-47391891D01*
X219694758Y-47481117D01*
X219678953Y-47547674D01*
X219669735Y-47582854D01*
X219669050Y-47584875D01*
X219674570Y-47593263D01*
X219700726Y-47599794D01*
X219751369Y-47604659D01*
X219830350Y-47608049D01*
X219941522Y-47610155D01*
X220088734Y-47611169D01*
X220202108Y-47611333D01*
X220745079Y-47611333D01*
X221162164Y-48241042D01*
X221258709Y-48386944D01*
X221347746Y-48521773D01*
X221426590Y-48641443D01*
X221492559Y-48741866D01*
X221542967Y-48818960D01*
X221575130Y-48868636D01*
X221586305Y-48886625D01*
X221567176Y-48889671D01*
X221509610Y-48892526D01*
X221417501Y-48895132D01*
X221294747Y-48897433D01*
X221145242Y-48899372D01*
X220972882Y-48900893D01*
X220781563Y-48901940D01*
X220575181Y-48902455D01*
X220492356Y-48902500D01*
X220247825Y-48902571D01*
X220042227Y-48902861D01*
X219872163Y-48903482D01*
X219734236Y-48904547D01*
X219625044Y-48906171D01*
X219541188Y-48908466D01*
X219479270Y-48911545D01*
X219435891Y-48915522D01*
X219407650Y-48920510D01*
X219391148Y-48926622D01*
X219382987Y-48933972D01*
X219380522Y-48939542D01*
X219373194Y-48969768D01*
X219358732Y-49033582D01*
X219338561Y-49124402D01*
X219314105Y-49235649D01*
X219286789Y-49360742D01*
X219258037Y-49493101D01*
X219229275Y-49626145D01*
X219201927Y-49753294D01*
X219177418Y-49867968D01*
X219157172Y-49963586D01*
X219142614Y-50033569D01*
X219135168Y-50071335D01*
X219134500Y-50075901D01*
X219155063Y-50078016D01*
X219214340Y-50080012D01*
X219308711Y-50081855D01*
X219434556Y-50083511D01*
X219588255Y-50084948D01*
X219766190Y-50086131D01*
X219964739Y-50087029D01*
X220180285Y-50087606D01*
X220409206Y-50087831D01*
X220431839Y-50087833D01*
X221729179Y-50087833D01*
X222162140Y-50684205D01*
X222264396Y-50824776D01*
X222359558Y-50955060D01*
X222444583Y-51070930D01*
X222516423Y-51168259D01*
X222572035Y-51242916D01*
X222608372Y-51290775D01*
X222621634Y-51307110D01*
X222644453Y-51335873D01*
X222648166Y-51345738D01*
X222627521Y-51347598D01*
X222567672Y-51349371D01*
X222471749Y-51351035D01*
X222342880Y-51352568D01*
X222184196Y-51353948D01*
X221998825Y-51355154D01*
X221789898Y-51356163D01*
X221560543Y-51356954D01*
X221313890Y-51357505D01*
X221053068Y-51357794D01*
X220912477Y-51357833D01*
X219176789Y-51357833D01*
X219076269Y-51229023D01*
X218831110Y-50881041D01*
X218620217Y-50510632D01*
X218445261Y-50121900D01*
X218307912Y-49718950D01*
X218209841Y-49305886D01*
X218162055Y-48982709D01*
X218140487Y-48659330D01*
X218142554Y-48317459D01*
X218167513Y-47973213D01*
X218214623Y-47642712D01*
X218226656Y-47579583D01*
X218295412Y-47298774D01*
X218390116Y-47007705D01*
X218506493Y-46715718D01*
X218640266Y-46432153D01*
X218787160Y-46166353D01*
X218942898Y-45927659D01*
X219042908Y-45796292D01*
X219116167Y-45706333D01*
X220892750Y-45706333D01*
X221222280Y-45706467D01*
G36*
X225618425Y-45796292D02*
X225781183Y-46018473D01*
X225936812Y-46273927D01*
X226081222Y-46553705D01*
X226210322Y-46848855D01*
X226320022Y-47150427D01*
X226406232Y-47449470D01*
X226438208Y-47590167D01*
X226464216Y-47737363D01*
X226477041Y-47871220D01*
X226476285Y-48003369D01*
X226461552Y-48145440D01*
X226432445Y-48309064D01*
X226410126Y-48412629D01*
X226341750Y-48716509D01*
X224870666Y-49516344D01*
X224640271Y-49641500D01*
X224420800Y-49760506D01*
X224215066Y-49871849D01*
X224025881Y-49974018D01*
X223856058Y-50065500D01*
X223708409Y-50144785D01*
X223585746Y-50210359D01*
X223490881Y-50260711D01*
X223426627Y-50294329D01*
X223395797Y-50309701D01*
X223393434Y-50310510D01*
X223396645Y-50289710D01*
X223407741Y-50233025D01*
X223425548Y-50145926D01*
X223448891Y-50033880D01*
X223476596Y-49902357D01*
X223507488Y-49756825D01*
X223540392Y-49602753D01*
X223574134Y-49445610D01*
X223607540Y-49290864D01*
X223639434Y-49143985D01*
X223668643Y-49010440D01*
X223693991Y-48895699D01*
X223714303Y-48805231D01*
X223728407Y-48744504D01*
X223735126Y-48718987D01*
X223735354Y-48718574D01*
X223754018Y-48707596D01*
X223805271Y-48678240D01*
X223884837Y-48632936D01*
X223988440Y-48574111D01*
X224111802Y-48504197D01*
X224250646Y-48425620D01*
X224363148Y-48362024D01*
X224511609Y-48277955D01*
X224648430Y-48200124D01*
X224769209Y-48131063D01*
X224869545Y-48073303D01*
X224945035Y-48029376D01*
X224991277Y-48001812D01*
X225004066Y-47993450D01*
X225012541Y-47969208D01*
X225027561Y-47909673D01*
X225047799Y-47821148D01*
X225071930Y-47709935D01*
X225098626Y-47582337D01*
X225126564Y-47444655D01*
X225154415Y-47303194D01*
X225180855Y-47164254D01*
X225196910Y-47076875D01*
X225211251Y-46997500D01*
X224427125Y-46997500D01*
X224223510Y-46997627D01*
X224058272Y-46998129D01*
X223927456Y-46999181D01*
X223827107Y-47000963D01*
X223753269Y-47003650D01*
X223701987Y-47007422D01*
X223669306Y-47012455D01*
X223651269Y-47018927D01*
X223643922Y-47027016D01*
X223643000Y-47032701D01*
X223638579Y-47058490D01*
X223625807Y-47122249D01*
X223605418Y-47220599D01*
X223578144Y-47350165D01*
X223544721Y-47507568D01*
X223505882Y-47689432D01*
X223462361Y-47892378D01*
X223414892Y-48113030D01*
X223364208Y-48348010D01*
X223311044Y-48593940D01*
X223256133Y-48847444D01*
X223200210Y-49105144D01*
X223144008Y-49363663D01*
X223088261Y-49619623D01*
X223033703Y-49869647D01*
X222981068Y-50110358D01*
X222931090Y-50338379D01*
X222884502Y-50550331D01*
X222842039Y-50742838D01*
X222804435Y-50912522D01*
X222772422Y-51056006D01*
X222746736Y-51169912D01*
X222728110Y-51250864D01*
X222717278Y-51295484D01*
X222715096Y-51302924D01*
X222706493Y-51308599D01*
X222689341Y-51298944D01*
X222661386Y-51271160D01*
X222620371Y-51222446D01*
X222564044Y-51150005D01*
X222490148Y-51051036D01*
X222396429Y-50922740D01*
X222288861Y-50773757D01*
X222187338Y-50632922D01*
X222090804Y-50499538D01*
X222002790Y-50378444D01*
X221926825Y-50274474D01*
X221866437Y-50192466D01*
X221825156Y-50137257D01*
X221811468Y-50119556D01*
X221743794Y-50034863D01*
X222699952Y-45706333D01*
X225545165Y-45706333D01*
X225618425Y-45796292D01*
X225618425Y-45796292D01*
G37*
X225618425Y-45796292D02*
X225781183Y-46018473D01*
X225936812Y-46273927D01*
X226081222Y-46553705D01*
X226210322Y-46848855D01*
X226320022Y-47150427D01*
X226406232Y-47449470D01*
X226438208Y-47590167D01*
X226464216Y-47737363D01*
X226477041Y-47871220D01*
X226476285Y-48003369D01*
X226461552Y-48145440D01*
X226432445Y-48309064D01*
X226410126Y-48412629D01*
X226341750Y-48716509D01*
X224870666Y-49516344D01*
X224640271Y-49641500D01*
X224420800Y-49760506D01*
X224215066Y-49871849D01*
X224025881Y-49974018D01*
X223856058Y-50065500D01*
X223708409Y-50144785D01*
X223585746Y-50210359D01*
X223490881Y-50260711D01*
X223426627Y-50294329D01*
X223395797Y-50309701D01*
X223393434Y-50310510D01*
X223396645Y-50289710D01*
X223407741Y-50233025D01*
X223425548Y-50145926D01*
X223448891Y-50033880D01*
X223476596Y-49902357D01*
X223507488Y-49756825D01*
X223540392Y-49602753D01*
X223574134Y-49445610D01*
X223607540Y-49290864D01*
X223639434Y-49143985D01*
X223668643Y-49010440D01*
X223693991Y-48895699D01*
X223714303Y-48805231D01*
X223728407Y-48744504D01*
X223735126Y-48718987D01*
X223735354Y-48718574D01*
X223754018Y-48707596D01*
X223805271Y-48678240D01*
X223884837Y-48632936D01*
X223988440Y-48574111D01*
X224111802Y-48504197D01*
X224250646Y-48425620D01*
X224363148Y-48362024D01*
X224511609Y-48277955D01*
X224648430Y-48200124D01*
X224769209Y-48131063D01*
X224869545Y-48073303D01*
X224945035Y-48029376D01*
X224991277Y-48001812D01*
X225004066Y-47993450D01*
X225012541Y-47969208D01*
X225027561Y-47909673D01*
X225047799Y-47821148D01*
X225071930Y-47709935D01*
X225098626Y-47582337D01*
X225126564Y-47444655D01*
X225154415Y-47303194D01*
X225180855Y-47164254D01*
X225196910Y-47076875D01*
X225211251Y-46997500D01*
X224427125Y-46997500D01*
X224223510Y-46997627D01*
X224058272Y-46998129D01*
X223927456Y-46999181D01*
X223827107Y-47000963D01*
X223753269Y-47003650D01*
X223701987Y-47007422D01*
X223669306Y-47012455D01*
X223651269Y-47018927D01*
X223643922Y-47027016D01*
X223643000Y-47032701D01*
X223638579Y-47058490D01*
X223625807Y-47122249D01*
X223605418Y-47220599D01*
X223578144Y-47350165D01*
X223544721Y-47507568D01*
X223505882Y-47689432D01*
X223462361Y-47892378D01*
X223414892Y-48113030D01*
X223364208Y-48348010D01*
X223311044Y-48593940D01*
X223256133Y-48847444D01*
X223200210Y-49105144D01*
X223144008Y-49363663D01*
X223088261Y-49619623D01*
X223033703Y-49869647D01*
X222981068Y-50110358D01*
X222931090Y-50338379D01*
X222884502Y-50550331D01*
X222842039Y-50742838D01*
X222804435Y-50912522D01*
X222772422Y-51056006D01*
X222746736Y-51169912D01*
X222728110Y-51250864D01*
X222717278Y-51295484D01*
X222715096Y-51302924D01*
X222706493Y-51308599D01*
X222689341Y-51298944D01*
X222661386Y-51271160D01*
X222620371Y-51222446D01*
X222564044Y-51150005D01*
X222490148Y-51051036D01*
X222396429Y-50922740D01*
X222288861Y-50773757D01*
X222187338Y-50632922D01*
X222090804Y-50499538D01*
X222002790Y-50378444D01*
X221926825Y-50274474D01*
X221866437Y-50192466D01*
X221825156Y-50137257D01*
X221811468Y-50119556D01*
X221743794Y-50034863D01*
X222699952Y-45706333D01*
X225545165Y-45706333D01*
X225618425Y-45796292D01*
G36*
X222166745Y-65236375D02*
X222331485Y-65248039D01*
X222954641Y-65330898D01*
X223549684Y-65470688D01*
X224116937Y-65667561D01*
X224656725Y-65921674D01*
X225169372Y-66233181D01*
X225655202Y-66602235D01*
X226114540Y-67028991D01*
X226152125Y-67067674D01*
X226440209Y-67384144D01*
X226685622Y-67695332D01*
X226903208Y-68022173D01*
X227107810Y-68385603D01*
X227163223Y-68493650D01*
X227415728Y-69062882D01*
X227606032Y-69643557D01*
X227733973Y-70233572D01*
X227799389Y-70830819D01*
X227802116Y-71433196D01*
X227741993Y-72038596D01*
X227618855Y-72644914D01*
X227512574Y-73014806D01*
X227302332Y-73569723D01*
X227036077Y-74098650D01*
X226717296Y-74597777D01*
X226349476Y-75063292D01*
X225936106Y-75491384D01*
X225480673Y-75878242D01*
X224986663Y-76220055D01*
X224457566Y-76513012D01*
X224204478Y-76629832D01*
X223966431Y-76725338D01*
X223774852Y-76783863D01*
X223624730Y-76805605D01*
X223511055Y-76790760D01*
X223428817Y-76739526D01*
X223377507Y-76662392D01*
X223365657Y-76602058D01*
X223356218Y-76478498D01*
X223349196Y-76291941D01*
X223344598Y-76042615D01*
X223342433Y-75730748D01*
X223342250Y-75593051D01*
X223341582Y-75292145D01*
X223339386Y-75047607D01*
X223335375Y-74852321D01*
X223329260Y-74699167D01*
X223320754Y-74581027D01*
X223309569Y-74490782D01*
X223295418Y-74421313D01*
X223294776Y-74418827D01*
X223220930Y-74196772D01*
X223126144Y-74007832D01*
X223033567Y-73883792D01*
X222954121Y-73798959D01*
X223108498Y-73777139D01*
X223564497Y-73693594D01*
X223968184Y-73578553D01*
X224323257Y-73430442D01*
X224633411Y-73247683D01*
X224902346Y-73028702D01*
X224931923Y-73000014D01*
X225054369Y-72873559D01*
X225147570Y-72760673D01*
X225227037Y-72639497D01*
X225308277Y-72488170D01*
X225338770Y-72426557D01*
X225442793Y-72197581D01*
X225521255Y-71983021D01*
X225577235Y-71767708D01*
X225613810Y-71536475D01*
X225634059Y-71274153D01*
X225641060Y-70965576D01*
X225641143Y-70936500D01*
X225640856Y-70731405D01*
X225638328Y-70576463D01*
X225632170Y-70458330D01*
X225620992Y-70363666D01*
X225603407Y-70279128D01*
X225578026Y-70191373D01*
X225556887Y-70126875D01*
X225436807Y-69835969D01*
X225279167Y-69555228D01*
X225151409Y-69376217D01*
X225095389Y-69298183D01*
X225076020Y-69238762D01*
X225085893Y-69170838D01*
X225090690Y-69153967D01*
X225145352Y-68883120D01*
X225162791Y-68582863D01*
X225143606Y-68274792D01*
X225088398Y-67980503D01*
X225054926Y-67867146D01*
X225017317Y-67759866D01*
X224986874Y-67699694D01*
X224952042Y-67673058D01*
X224901266Y-67666388D01*
X224883869Y-67666249D01*
X224670889Y-67687966D01*
X224423744Y-67750511D01*
X224153337Y-67849979D01*
X223870569Y-67982463D01*
X223637286Y-68112899D01*
X223360423Y-68279528D01*
X223009121Y-68210122D01*
X222431096Y-68127243D01*
X221836531Y-68102451D01*
X221234020Y-68135518D01*
X220632155Y-68226217D01*
X220389500Y-68279546D01*
X220357469Y-68265863D01*
X220282687Y-68225837D01*
X220176799Y-68165889D01*
X220068801Y-68102742D01*
X219806360Y-67959254D01*
X219548150Y-67840671D01*
X219304069Y-67750404D01*
X219084016Y-67691863D01*
X218897888Y-67668457D01*
X218816832Y-67671413D01*
X218769284Y-67681003D01*
X218734960Y-67705344D01*
X218705659Y-67757198D01*
X218673178Y-67849326D01*
X218646691Y-67936125D01*
X218605433Y-68120011D01*
X218578810Y-68334947D01*
X218567245Y-68561911D01*
X218571159Y-68781880D01*
X218590973Y-68975834D01*
X218620771Y-69106461D01*
X218670906Y-69260797D01*
X218540927Y-69423961D01*
X218412752Y-69613475D01*
X218293503Y-69842100D01*
X218194319Y-70085487D01*
X218126338Y-70319284D01*
X218121961Y-70339848D01*
X218089870Y-70565186D01*
X218075017Y-70830035D01*
X218077429Y-71112783D01*
X218097133Y-71391819D01*
X218120491Y-71568848D01*
X218205679Y-71962011D01*
X218327651Y-72308331D01*
X218489875Y-72615022D01*
X218695816Y-72889297D01*
X218815847Y-73016125D01*
X219089261Y-73245298D01*
X219404345Y-73434672D01*
X219764416Y-73585769D01*
X220172793Y-73700112D01*
X220405375Y-73745556D01*
X220539217Y-73769072D01*
X220647303Y-73789508D01*
X220715891Y-73804179D01*
X220732984Y-73809519D01*
X220721022Y-73837866D01*
X220679574Y-73900605D01*
X220635888Y-73959956D01*
X220564958Y-74073400D01*
X220500597Y-74210227D01*
X220472817Y-74288514D01*
X220438029Y-74401598D01*
X220405992Y-74498998D01*
X220388601Y-74546812D01*
X220332185Y-74608378D01*
X220222571Y-74659989D01*
X220069637Y-74699004D01*
X219883263Y-74722783D01*
X219706875Y-74729046D01*
X219555870Y-74725598D01*
X219445375Y-74713690D01*
X219352538Y-74689029D01*
X219254506Y-74647326D01*
X219243541Y-74642056D01*
X219047588Y-74516517D01*
X218854196Y-74332506D01*
X218668471Y-74095000D01*
X218642124Y-74055877D01*
X218469550Y-73839004D01*
X218273606Y-73671210D01*
X218061044Y-73556753D01*
X217838616Y-73499888D01*
X217751278Y-73494247D01*
X217605420Y-73504314D01*
X217518324Y-73537534D01*
X217490030Y-73592890D01*
X217520578Y-73669369D01*
X217610008Y-73765953D01*
X217736528Y-73866112D01*
X217888188Y-73986133D01*
X218015414Y-74114557D01*
X218129509Y-74265729D01*
X218241773Y-74453991D01*
X218322491Y-74609824D01*
X218427585Y-74809947D01*
X218522987Y-74962783D01*
X218619002Y-75081315D01*
X218725935Y-75178526D01*
X218834686Y-75255100D01*
X219071669Y-75374933D01*
X219343931Y-75451657D01*
X219655426Y-75485911D01*
X220010111Y-75478332D01*
X220143437Y-75466103D01*
X220389500Y-75439582D01*
X220389500Y-76027230D01*
X220389287Y-76233785D01*
X220387855Y-76386786D01*
X220384011Y-76496178D01*
X220376561Y-76571907D01*
X220364313Y-76623918D01*
X220346073Y-76662158D01*
X220320650Y-76696572D01*
X220307302Y-76712563D01*
X220235461Y-76775643D01*
X220147140Y-76806388D01*
X220033407Y-76804436D01*
X219885328Y-76769421D01*
X219693970Y-76700981D01*
X219656642Y-76686056D01*
X219125486Y-76442957D01*
X218635110Y-76158112D01*
X218174284Y-75824271D01*
X217760797Y-75461952D01*
X217345013Y-75023954D01*
X216981633Y-74553824D01*
X216671059Y-74055867D01*
X216413691Y-73534392D01*
X216209930Y-72993704D01*
X216060176Y-72438111D01*
X215964831Y-71871920D01*
X215924294Y-71299436D01*
X215938967Y-70724968D01*
X216009250Y-70152822D01*
X216135544Y-69587304D01*
X216318249Y-69032722D01*
X216557767Y-68493382D01*
X216854498Y-67973591D01*
X217038869Y-67702262D01*
X217416014Y-67231497D01*
X217835204Y-66805030D01*
X218291976Y-66424930D01*
X218781867Y-66093268D01*
X219300413Y-65812112D01*
X219843150Y-65583532D01*
X220405616Y-65409599D01*
X220983346Y-65292382D01*
X221571877Y-65233950D01*
X222166745Y-65236375D01*
X222166745Y-65236375D01*
G37*
X222166745Y-65236375D02*
X222331485Y-65248039D01*
X222954641Y-65330898D01*
X223549684Y-65470688D01*
X224116937Y-65667561D01*
X224656725Y-65921674D01*
X225169372Y-66233181D01*
X225655202Y-66602235D01*
X226114540Y-67028991D01*
X226152125Y-67067674D01*
X226440209Y-67384144D01*
X226685622Y-67695332D01*
X226903208Y-68022173D01*
X227107810Y-68385603D01*
X227163223Y-68493650D01*
X227415728Y-69062882D01*
X227606032Y-69643557D01*
X227733973Y-70233572D01*
X227799389Y-70830819D01*
X227802116Y-71433196D01*
X227741993Y-72038596D01*
X227618855Y-72644914D01*
X227512574Y-73014806D01*
X227302332Y-73569723D01*
X227036077Y-74098650D01*
X226717296Y-74597777D01*
X226349476Y-75063292D01*
X225936106Y-75491384D01*
X225480673Y-75878242D01*
X224986663Y-76220055D01*
X224457566Y-76513012D01*
X224204478Y-76629832D01*
X223966431Y-76725338D01*
X223774852Y-76783863D01*
X223624730Y-76805605D01*
X223511055Y-76790760D01*
X223428817Y-76739526D01*
X223377507Y-76662392D01*
X223365657Y-76602058D01*
X223356218Y-76478498D01*
X223349196Y-76291941D01*
X223344598Y-76042615D01*
X223342433Y-75730748D01*
X223342250Y-75593051D01*
X223341582Y-75292145D01*
X223339386Y-75047607D01*
X223335375Y-74852321D01*
X223329260Y-74699167D01*
X223320754Y-74581027D01*
X223309569Y-74490782D01*
X223295418Y-74421313D01*
X223294776Y-74418827D01*
X223220930Y-74196772D01*
X223126144Y-74007832D01*
X223033567Y-73883792D01*
X222954121Y-73798959D01*
X223108498Y-73777139D01*
X223564497Y-73693594D01*
X223968184Y-73578553D01*
X224323257Y-73430442D01*
X224633411Y-73247683D01*
X224902346Y-73028702D01*
X224931923Y-73000014D01*
X225054369Y-72873559D01*
X225147570Y-72760673D01*
X225227037Y-72639497D01*
X225308277Y-72488170D01*
X225338770Y-72426557D01*
X225442793Y-72197581D01*
X225521255Y-71983021D01*
X225577235Y-71767708D01*
X225613810Y-71536475D01*
X225634059Y-71274153D01*
X225641060Y-70965576D01*
X225641143Y-70936500D01*
X225640856Y-70731405D01*
X225638328Y-70576463D01*
X225632170Y-70458330D01*
X225620992Y-70363666D01*
X225603407Y-70279128D01*
X225578026Y-70191373D01*
X225556887Y-70126875D01*
X225436807Y-69835969D01*
X225279167Y-69555228D01*
X225151409Y-69376217D01*
X225095389Y-69298183D01*
X225076020Y-69238762D01*
X225085893Y-69170838D01*
X225090690Y-69153967D01*
X225145352Y-68883120D01*
X225162791Y-68582863D01*
X225143606Y-68274792D01*
X225088398Y-67980503D01*
X225054926Y-67867146D01*
X225017317Y-67759866D01*
X224986874Y-67699694D01*
X224952042Y-67673058D01*
X224901266Y-67666388D01*
X224883869Y-67666249D01*
X224670889Y-67687966D01*
X224423744Y-67750511D01*
X224153337Y-67849979D01*
X223870569Y-67982463D01*
X223637286Y-68112899D01*
X223360423Y-68279528D01*
X223009121Y-68210122D01*
X222431096Y-68127243D01*
X221836531Y-68102451D01*
X221234020Y-68135518D01*
X220632155Y-68226217D01*
X220389500Y-68279546D01*
X220357469Y-68265863D01*
X220282687Y-68225837D01*
X220176799Y-68165889D01*
X220068801Y-68102742D01*
X219806360Y-67959254D01*
X219548150Y-67840671D01*
X219304069Y-67750404D01*
X219084016Y-67691863D01*
X218897888Y-67668457D01*
X218816832Y-67671413D01*
X218769284Y-67681003D01*
X218734960Y-67705344D01*
X218705659Y-67757198D01*
X218673178Y-67849326D01*
X218646691Y-67936125D01*
X218605433Y-68120011D01*
X218578810Y-68334947D01*
X218567245Y-68561911D01*
X218571159Y-68781880D01*
X218590973Y-68975834D01*
X218620771Y-69106461D01*
X218670906Y-69260797D01*
X218540927Y-69423961D01*
X218412752Y-69613475D01*
X218293503Y-69842100D01*
X218194319Y-70085487D01*
X218126338Y-70319284D01*
X218121961Y-70339848D01*
X218089870Y-70565186D01*
X218075017Y-70830035D01*
X218077429Y-71112783D01*
X218097133Y-71391819D01*
X218120491Y-71568848D01*
X218205679Y-71962011D01*
X218327651Y-72308331D01*
X218489875Y-72615022D01*
X218695816Y-72889297D01*
X218815847Y-73016125D01*
X219089261Y-73245298D01*
X219404345Y-73434672D01*
X219764416Y-73585769D01*
X220172793Y-73700112D01*
X220405375Y-73745556D01*
X220539217Y-73769072D01*
X220647303Y-73789508D01*
X220715891Y-73804179D01*
X220732984Y-73809519D01*
X220721022Y-73837866D01*
X220679574Y-73900605D01*
X220635888Y-73959956D01*
X220564958Y-74073400D01*
X220500597Y-74210227D01*
X220472817Y-74288514D01*
X220438029Y-74401598D01*
X220405992Y-74498998D01*
X220388601Y-74546812D01*
X220332185Y-74608378D01*
X220222571Y-74659989D01*
X220069637Y-74699004D01*
X219883263Y-74722783D01*
X219706875Y-74729046D01*
X219555870Y-74725598D01*
X219445375Y-74713690D01*
X219352538Y-74689029D01*
X219254506Y-74647326D01*
X219243541Y-74642056D01*
X219047588Y-74516517D01*
X218854196Y-74332506D01*
X218668471Y-74095000D01*
X218642124Y-74055877D01*
X218469550Y-73839004D01*
X218273606Y-73671210D01*
X218061044Y-73556753D01*
X217838616Y-73499888D01*
X217751278Y-73494247D01*
X217605420Y-73504314D01*
X217518324Y-73537534D01*
X217490030Y-73592890D01*
X217520578Y-73669369D01*
X217610008Y-73765953D01*
X217736528Y-73866112D01*
X217888188Y-73986133D01*
X218015414Y-74114557D01*
X218129509Y-74265729D01*
X218241773Y-74453991D01*
X218322491Y-74609824D01*
X218427585Y-74809947D01*
X218522987Y-74962783D01*
X218619002Y-75081315D01*
X218725935Y-75178526D01*
X218834686Y-75255100D01*
X219071669Y-75374933D01*
X219343931Y-75451657D01*
X219655426Y-75485911D01*
X220010111Y-75478332D01*
X220143437Y-75466103D01*
X220389500Y-75439582D01*
X220389500Y-76027230D01*
X220389287Y-76233785D01*
X220387855Y-76386786D01*
X220384011Y-76496178D01*
X220376561Y-76571907D01*
X220364313Y-76623918D01*
X220346073Y-76662158D01*
X220320650Y-76696572D01*
X220307302Y-76712563D01*
X220235461Y-76775643D01*
X220147140Y-76806388D01*
X220033407Y-76804436D01*
X219885328Y-76769421D01*
X219693970Y-76700981D01*
X219656642Y-76686056D01*
X219125486Y-76442957D01*
X218635110Y-76158112D01*
X218174284Y-75824271D01*
X217760797Y-75461952D01*
X217345013Y-75023954D01*
X216981633Y-74553824D01*
X216671059Y-74055867D01*
X216413691Y-73534392D01*
X216209930Y-72993704D01*
X216060176Y-72438111D01*
X215964831Y-71871920D01*
X215924294Y-71299436D01*
X215938967Y-70724968D01*
X216009250Y-70152822D01*
X216135544Y-69587304D01*
X216318249Y-69032722D01*
X216557767Y-68493382D01*
X216854498Y-67973591D01*
X217038869Y-67702262D01*
X217416014Y-67231497D01*
X217835204Y-66805030D01*
X218291976Y-66424930D01*
X218781867Y-66093268D01*
X219300413Y-65812112D01*
X219843150Y-65583532D01*
X220405616Y-65409599D01*
X220983346Y-65292382D01*
X221571877Y-65233950D01*
X222166745Y-65236375D01*
G36*
X219830960Y-74860900D02*
X219875572Y-74897967D01*
X219869057Y-74943035D01*
X219819325Y-74980727D01*
X219762177Y-74994574D01*
X219690332Y-74994663D01*
X219662334Y-74969583D01*
X219659250Y-74941151D01*
X219685833Y-74881601D01*
X219751071Y-74851751D01*
X219830960Y-74860900D01*
X219830960Y-74860900D01*
G37*
X219830960Y-74860900D02*
X219875572Y-74897967D01*
X219869057Y-74943035D01*
X219819325Y-74980727D01*
X219762177Y-74994574D01*
X219690332Y-74994663D01*
X219662334Y-74969583D01*
X219659250Y-74941151D01*
X219685833Y-74881601D01*
X219751071Y-74851751D01*
X219830960Y-74860900D01*
G36*
X220294250Y-74810000D02*
X220347065Y-74843582D01*
X220347496Y-74874862D01*
X220307857Y-74918857D01*
X220237732Y-74962328D01*
X220154565Y-74952007D01*
X220143437Y-74947722D01*
X220106534Y-74908058D01*
X220118104Y-74853767D01*
X220167250Y-74810000D01*
X220248439Y-74793384D01*
X220294250Y-74810000D01*
X220294250Y-74810000D01*
G37*
X220294250Y-74810000D02*
X220347065Y-74843582D01*
X220347496Y-74874862D01*
X220307857Y-74918857D01*
X220237732Y-74962328D01*
X220154565Y-74952007D01*
X220143437Y-74947722D01*
X220106534Y-74908058D01*
X220118104Y-74853767D01*
X220167250Y-74810000D01*
X220248439Y-74793384D01*
X220294250Y-74810000D01*
G36*
X219332507Y-74796720D02*
X219383609Y-74840432D01*
X219395522Y-74891836D01*
X219390234Y-74903859D01*
X219340505Y-74932679D01*
X219266453Y-74932353D01*
X219199110Y-74904852D01*
X219184154Y-74890765D01*
X219161306Y-74831937D01*
X219194152Y-74790915D01*
X219260361Y-74778250D01*
X219332507Y-74796720D01*
X219332507Y-74796720D01*
G37*
X219332507Y-74796720D02*
X219383609Y-74840432D01*
X219395522Y-74891836D01*
X219390234Y-74903859D01*
X219340505Y-74932679D01*
X219266453Y-74932353D01*
X219199110Y-74904852D01*
X219184154Y-74890765D01*
X219161306Y-74831937D01*
X219194152Y-74790915D01*
X219260361Y-74778250D01*
X219332507Y-74796720D01*
G36*
X218889009Y-74545814D02*
X218943049Y-74596011D01*
X218975303Y-74653101D01*
X218973427Y-74688174D01*
X218926571Y-74712765D01*
X218858565Y-74705801D01*
X218808350Y-74676650D01*
X218772874Y-74614212D01*
X218778033Y-74556093D01*
X218820283Y-74525165D01*
X218831949Y-74524250D01*
X218889009Y-74545814D01*
X218889009Y-74545814D01*
G37*
X218889009Y-74545814D02*
X218943049Y-74596011D01*
X218975303Y-74653101D01*
X218973427Y-74688174D01*
X218926571Y-74712765D01*
X218858565Y-74705801D01*
X218808350Y-74676650D01*
X218772874Y-74614212D01*
X218778033Y-74556093D01*
X218820283Y-74525165D01*
X218831949Y-74524250D01*
X218889009Y-74545814D01*
G36*
X218612148Y-74200543D02*
X218652270Y-74257830D01*
X218664478Y-74317845D01*
X218658719Y-74334406D01*
X218609925Y-74363983D01*
X218546966Y-74345820D01*
X218516585Y-74318279D01*
X218492616Y-74255356D01*
X218510755Y-74198951D01*
X218561761Y-74175000D01*
X218612148Y-74200543D01*
X218612148Y-74200543D01*
G37*
X218612148Y-74200543D02*
X218652270Y-74257830D01*
X218664478Y-74317845D01*
X218658719Y-74334406D01*
X218609925Y-74363983D01*
X218546966Y-74345820D01*
X218516585Y-74318279D01*
X218492616Y-74255356D01*
X218510755Y-74198951D01*
X218561761Y-74175000D01*
X218612148Y-74200543D01*
G36*
X218359672Y-73888028D02*
X218402743Y-73925197D01*
X218414977Y-73976073D01*
X218383050Y-74030842D01*
X218330655Y-74031306D01*
X218295213Y-74001836D01*
X218270268Y-73938710D01*
X218274101Y-73904160D01*
X218309007Y-73877042D01*
X218359672Y-73888028D01*
X218359672Y-73888028D01*
G37*
X218359672Y-73888028D02*
X218402743Y-73925197D01*
X218414977Y-73976073D01*
X218383050Y-74030842D01*
X218330655Y-74031306D01*
X218295213Y-74001836D01*
X218270268Y-73938710D01*
X218274101Y-73904160D01*
X218309007Y-73877042D01*
X218359672Y-73888028D01*
G36*
X218154355Y-73710021D02*
X218153940Y-73757620D01*
X218152834Y-73759483D01*
X218108754Y-73792126D01*
X218054478Y-73762518D01*
X218040311Y-73746750D01*
X218019146Y-73704965D01*
X218053462Y-73679409D01*
X218054433Y-73679034D01*
X218113930Y-73677894D01*
X218154355Y-73710021D01*
X218154355Y-73710021D01*
G37*
X218154355Y-73710021D02*
X218153940Y-73757620D01*
X218152834Y-73759483D01*
X218108754Y-73792126D01*
X218054478Y-73762518D01*
X218040311Y-73746750D01*
X218019146Y-73704965D01*
X218053462Y-73679409D01*
X218054433Y-73679034D01*
X218113930Y-73677894D01*
X218154355Y-73710021D01*
D17*
X122857143Y-92166666D02*
X122904762Y-92214285D01*
X122952381Y-92357142D01*
X122952381Y-92452380D01*
X122904762Y-92595238D01*
X122809524Y-92690476D01*
X122714286Y-92738095D01*
X122523810Y-92785714D01*
X122380952Y-92785714D01*
X122190476Y-92738095D01*
X122095238Y-92690476D01*
X122000000Y-92595238D01*
X121952381Y-92452380D01*
X121952381Y-92357142D01*
X122000000Y-92214285D01*
X122047619Y-92166666D01*
X122952381Y-91214285D02*
X122952381Y-91785714D01*
X122952381Y-91500000D02*
X121952381Y-91500000D01*
X122095238Y-91595238D01*
X122190476Y-91690476D01*
X122238095Y-91785714D01*
X126907143Y-96166666D02*
X126954762Y-96214285D01*
X127002381Y-96357142D01*
X127002381Y-96452380D01*
X126954762Y-96595238D01*
X126859524Y-96690476D01*
X126764286Y-96738095D01*
X126573810Y-96785714D01*
X126430952Y-96785714D01*
X126240476Y-96738095D01*
X126145238Y-96690476D01*
X126050000Y-96595238D01*
X126002381Y-96452380D01*
X126002381Y-96357142D01*
X126050000Y-96214285D01*
X126097619Y-96166666D01*
X126097619Y-95785714D02*
X126050000Y-95738095D01*
X126002381Y-95642857D01*
X126002381Y-95404761D01*
X126050000Y-95309523D01*
X126097619Y-95261904D01*
X126192857Y-95214285D01*
X126288095Y-95214285D01*
X126430952Y-95261904D01*
X127002381Y-95833333D01*
X127002381Y-95214285D01*
X127611429Y-89600952D02*
X127611429Y-88839047D01*
X127992381Y-89219999D02*
X127230476Y-89219999D01*
X113952381Y-89238095D02*
X112952381Y-89238095D01*
X112952381Y-89000000D01*
X113000000Y-88857142D01*
X113095238Y-88761904D01*
X113190476Y-88714285D01*
X113380952Y-88666666D01*
X113523810Y-88666666D01*
X113714286Y-88714285D01*
X113809524Y-88761904D01*
X113904762Y-88857142D01*
X113952381Y-89000000D01*
X113952381Y-89238095D01*
X113952381Y-87714285D02*
X113952381Y-88285714D01*
X113952381Y-88000000D02*
X112952381Y-88000000D01*
X113095238Y-88095238D01*
X113190476Y-88190476D01*
X113238095Y-88285714D01*
X131333334Y-65857143D02*
X131285715Y-65904762D01*
X131142858Y-65952381D01*
X131047620Y-65952381D01*
X130904762Y-65904762D01*
X130809524Y-65809524D01*
X130761905Y-65714286D01*
X130714286Y-65523810D01*
X130714286Y-65380952D01*
X130761905Y-65190476D01*
X130809524Y-65095238D01*
X130904762Y-65000000D01*
X131047620Y-64952381D01*
X131142858Y-64952381D01*
X131285715Y-65000000D01*
X131333334Y-65047619D01*
X131666667Y-64952381D02*
X132285715Y-64952381D01*
X131952381Y-65333333D01*
X132095239Y-65333333D01*
X132190477Y-65380952D01*
X132238096Y-65428571D01*
X132285715Y-65523810D01*
X132285715Y-65761905D01*
X132238096Y-65857143D01*
X132190477Y-65904762D01*
X132095239Y-65952381D01*
X131809524Y-65952381D01*
X131714286Y-65904762D01*
X131666667Y-65857143D01*
X140857143Y-69666666D02*
X140904762Y-69714285D01*
X140952381Y-69857142D01*
X140952381Y-69952380D01*
X140904762Y-70095238D01*
X140809524Y-70190476D01*
X140714286Y-70238095D01*
X140523810Y-70285714D01*
X140380952Y-70285714D01*
X140190476Y-70238095D01*
X140095238Y-70190476D01*
X140000000Y-70095238D01*
X139952381Y-69952380D01*
X139952381Y-69857142D01*
X140000000Y-69714285D01*
X140047619Y-69666666D01*
X140285714Y-68809523D02*
X140952381Y-68809523D01*
X139904762Y-69047619D02*
X140619048Y-69285714D01*
X140619048Y-68666666D01*
X137031429Y-74160952D02*
X137031429Y-73399047D01*
X137412381Y-73779999D02*
X136650476Y-73779999D01*
X140333334Y-79857143D02*
X140285715Y-79904762D01*
X140142858Y-79952381D01*
X140047620Y-79952381D01*
X139904762Y-79904762D01*
X139809524Y-79809524D01*
X139761905Y-79714286D01*
X139714286Y-79523810D01*
X139714286Y-79380952D01*
X139761905Y-79190476D01*
X139809524Y-79095238D01*
X139904762Y-79000000D01*
X140047620Y-78952381D01*
X140142858Y-78952381D01*
X140285715Y-79000000D01*
X140333334Y-79047619D01*
X140666667Y-78952381D02*
X141333334Y-78952381D01*
X140904762Y-79952381D01*
X135611429Y-79600952D02*
X135611429Y-78839047D01*
X135992381Y-79219999D02*
X135230476Y-79219999D01*
X145107143Y-83666666D02*
X145154762Y-83714285D01*
X145202381Y-83857142D01*
X145202381Y-83952380D01*
X145154762Y-84095238D01*
X145059524Y-84190476D01*
X144964286Y-84238095D01*
X144773810Y-84285714D01*
X144630952Y-84285714D01*
X144440476Y-84238095D01*
X144345238Y-84190476D01*
X144250000Y-84095238D01*
X144202381Y-83952380D01*
X144202381Y-83857142D01*
X144250000Y-83714285D01*
X144297619Y-83666666D01*
X144630952Y-83095238D02*
X144583333Y-83190476D01*
X144535714Y-83238095D01*
X144440476Y-83285714D01*
X144392857Y-83285714D01*
X144297619Y-83238095D01*
X144250000Y-83190476D01*
X144202381Y-83095238D01*
X144202381Y-82904761D01*
X144250000Y-82809523D01*
X144297619Y-82761904D01*
X144392857Y-82714285D01*
X144440476Y-82714285D01*
X144535714Y-82761904D01*
X144583333Y-82809523D01*
X144630952Y-82904761D01*
X144630952Y-83095238D01*
X144678571Y-83190476D01*
X144726190Y-83238095D01*
X144821429Y-83285714D01*
X145011905Y-83285714D01*
X145107143Y-83238095D01*
X145154762Y-83190476D01*
X145202381Y-83095238D01*
X145202381Y-82904761D01*
X145154762Y-82809523D01*
X145107143Y-82761904D01*
X145011905Y-82714285D01*
X144821429Y-82714285D01*
X144726190Y-82761904D01*
X144678571Y-82809523D01*
X144630952Y-82904761D01*
X121704762Y-68507619D02*
X121609524Y-68460000D01*
X121514286Y-68364762D01*
X121371429Y-68221905D01*
X121276190Y-68174286D01*
X121180952Y-68174286D01*
X121228571Y-68412381D02*
X121133333Y-68364762D01*
X121038095Y-68269524D01*
X120990476Y-68079048D01*
X120990476Y-67745714D01*
X121038095Y-67555238D01*
X121133333Y-67460000D01*
X121228571Y-67412381D01*
X121419048Y-67412381D01*
X121514286Y-67460000D01*
X121609524Y-67555238D01*
X121657143Y-67745714D01*
X121657143Y-68079048D01*
X121609524Y-68269524D01*
X121514286Y-68364762D01*
X121419048Y-68412381D01*
X121228571Y-68412381D01*
X122609524Y-68412381D02*
X122038095Y-68412381D01*
X122323809Y-68412381D02*
X122323809Y-67412381D01*
X122228571Y-67555238D01*
X122133333Y-67650476D01*
X122038095Y-67698095D01*
X126538095Y-80952381D02*
X126538095Y-81761905D01*
X126585714Y-81857143D01*
X126633333Y-81904762D01*
X126728571Y-81952381D01*
X126919048Y-81952381D01*
X127014286Y-81904762D01*
X127061905Y-81857143D01*
X127109524Y-81761905D01*
X127109524Y-80952381D01*
X128109524Y-81952381D02*
X127538095Y-81952381D01*
X127823809Y-81952381D02*
X127823809Y-80952381D01*
X127728571Y-81095238D01*
X127633333Y-81190476D01*
X127538095Y-81238095D01*
X120861905Y-66552381D02*
X120861905Y-65552381D01*
X121100000Y-65552381D01*
X121242858Y-65600000D01*
X121338096Y-65695238D01*
X121385715Y-65790476D01*
X121433334Y-65980952D01*
X121433334Y-66123810D01*
X121385715Y-66314286D01*
X121338096Y-66409524D01*
X121242858Y-66504762D01*
X121100000Y-66552381D01*
X120861905Y-66552381D01*
X121814286Y-65647619D02*
X121861905Y-65600000D01*
X121957143Y-65552381D01*
X122195239Y-65552381D01*
X122290477Y-65600000D01*
X122338096Y-65647619D01*
X122385715Y-65742857D01*
X122385715Y-65838095D01*
X122338096Y-65980952D01*
X121766667Y-66552381D01*
X122385715Y-66552381D01*
X125033334Y-66602381D02*
X124700000Y-66126190D01*
X124461905Y-66602381D02*
X124461905Y-65602381D01*
X124842858Y-65602381D01*
X124938096Y-65650000D01*
X124985715Y-65697619D01*
X125033334Y-65792857D01*
X125033334Y-65935714D01*
X124985715Y-66030952D01*
X124938096Y-66078571D01*
X124842858Y-66126190D01*
X124461905Y-66126190D01*
X125985715Y-66602381D02*
X125414286Y-66602381D01*
X125700000Y-66602381D02*
X125700000Y-65602381D01*
X125604762Y-65745238D01*
X125509524Y-65840476D01*
X125414286Y-65888095D01*
M02*
