G04 #@! TF.FileFunction,Copper,L1,Top,Signal*
%FSLAX46Y46*%
G04 Gerber Fmt 4.6, Leading zero omitted, Abs format (unit mm)*
G04 Created by KiCad (PCBNEW 4.0.6+dfsg1-1) date Sun Mar 11 01:01:58 2018*
%MOMM*%
%LPD*%
G01*
G04 APERTURE LIST*
%ADD10C,0.100000*%
%ADD11C,1.524000*%
%ADD12O,1.524000X2.540000*%
%ADD13C,3.937000*%
%ADD14C,1.500000*%
%ADD15R,1.700000X1.700000*%
%ADD16O,1.700000X1.700000*%
%ADD17R,1.250000X1.000000*%
%ADD18R,1.600000X3.500000*%
%ADD19R,2.500000X2.300000*%
%ADD20R,2.500000X2.500000*%
%ADD21C,2.500000*%
%ADD22R,2.100000X0.750000*%
%ADD23R,3.500000X2.000000*%
%ADD24R,7.000000X7.000000*%
%ADD25R,1.000000X2.750000*%
%ADD26R,1.600000X1.600000*%
%ADD27O,1.600000X1.600000*%
%ADD28R,1.200000X1.200000*%
%ADD29R,0.700000X1.300000*%
%ADD30R,1.270000X0.970000*%
%ADD31C,0.600000*%
%ADD32C,0.500000*%
%ADD33C,1.000000*%
%ADD34C,1.500000*%
%ADD35C,0.250000*%
%ADD36C,1.250000*%
%ADD37C,3.000000*%
%ADD38C,0.750000*%
%ADD39C,2.000000*%
G04 APERTURE END LIST*
D10*
D11*
X170550000Y-67730000D03*
X170550000Y-65190000D03*
X170550000Y-61380000D03*
X170550000Y-58840000D03*
X152770000Y-67730000D03*
X152770000Y-39790000D03*
X170550000Y-39790000D03*
X152770000Y-63920000D03*
X152770000Y-61380000D03*
X152770000Y-58840000D03*
X152770000Y-56300000D03*
D12*
X173080000Y-47200000D03*
X175620000Y-47200000D03*
X178160000Y-47200000D03*
X180700000Y-47200000D03*
X183240000Y-47200000D03*
X185780000Y-47200000D03*
X188320000Y-47200000D03*
X190860000Y-47200000D03*
X195940000Y-95460000D03*
X193400000Y-95460000D03*
X190860000Y-95460000D03*
X188320000Y-95460000D03*
X178160000Y-95460000D03*
X173080000Y-95460000D03*
X170540000Y-95460000D03*
X180700000Y-95460000D03*
X183240000Y-95460000D03*
X185780000Y-95460000D03*
X168000000Y-95460000D03*
X165460000Y-95460000D03*
X162920000Y-95460000D03*
X155300000Y-95460000D03*
X157840000Y-95460000D03*
X160380000Y-95460000D03*
X150220000Y-95460000D03*
X147680000Y-95460000D03*
X145140000Y-95460000D03*
X140060000Y-95460000D03*
X137520000Y-95460000D03*
X168000000Y-47200000D03*
X165460000Y-47200000D03*
X162920000Y-47200000D03*
X160380000Y-47200000D03*
X157840000Y-47200000D03*
X155300000Y-47200000D03*
X152760000Y-47200000D03*
X150220000Y-47200000D03*
X146156000Y-47200000D03*
X143616000Y-47200000D03*
X141076000Y-47200000D03*
X138536000Y-47200000D03*
X135996000Y-47200000D03*
X133456000Y-47200000D03*
X130916000Y-47200000D03*
X128376000Y-47200000D03*
X142600000Y-95460000D03*
D13*
X201020000Y-95460000D03*
D14*
X194670000Y-47200000D03*
D13*
X119740000Y-47200000D03*
X118470000Y-95460000D03*
D11*
X198480000Y-49740000D03*
X201020000Y-49740000D03*
X198480000Y-52280000D03*
X201020000Y-52280000D03*
X198480000Y-54820000D03*
X201020000Y-54820000D03*
X198480000Y-57360000D03*
X201020000Y-57360000D03*
X198480000Y-47200000D03*
X201020000Y-47200000D03*
X201020000Y-59900000D03*
X198480000Y-59900000D03*
X198480000Y-62440000D03*
X201020000Y-62440000D03*
X198480000Y-64980000D03*
X201020000Y-64980000D03*
X198480000Y-67520000D03*
X201020000Y-67520000D03*
X198480000Y-70060000D03*
X201020000Y-70060000D03*
X198480000Y-72600000D03*
X201020000Y-72600000D03*
X198480000Y-75140000D03*
X201020000Y-75140000D03*
X198480000Y-77680000D03*
X201020000Y-77680000D03*
X198480000Y-80220000D03*
X201020000Y-80220000D03*
X198480000Y-82760000D03*
X201020000Y-82760000D03*
X198480000Y-85300000D03*
X201020000Y-85300000D03*
X198480000Y-87840000D03*
X201020000Y-87840000D03*
X198480000Y-90380000D03*
X201020000Y-90380000D03*
X204270000Y-56550000D03*
X206810000Y-56550000D03*
X210620000Y-56550000D03*
X213160000Y-56550000D03*
X204270000Y-38770000D03*
X232210000Y-38770000D03*
X232210000Y-56550000D03*
X208080000Y-38770000D03*
X210620000Y-38770000D03*
X213160000Y-38770000D03*
X215700000Y-38770000D03*
D15*
X155250000Y-98750000D03*
D16*
X157790000Y-98750000D03*
X160330000Y-98750000D03*
X162870000Y-98750000D03*
X165410000Y-98750000D03*
X167950000Y-98750000D03*
X170490000Y-98750000D03*
X173030000Y-98750000D03*
D15*
X178250000Y-98750000D03*
D16*
X180790000Y-98750000D03*
X183330000Y-98750000D03*
X185870000Y-98750000D03*
X188410000Y-98750000D03*
X190950000Y-98750000D03*
X193490000Y-98750000D03*
X196030000Y-98750000D03*
D15*
X155250000Y-101500000D03*
D16*
X157790000Y-101500000D03*
X160330000Y-101500000D03*
X162870000Y-101500000D03*
X165410000Y-101500000D03*
X167950000Y-101500000D03*
X170490000Y-101500000D03*
X173030000Y-101500000D03*
D15*
X178250000Y-101500000D03*
D16*
X180790000Y-101500000D03*
X183330000Y-101500000D03*
X185870000Y-101500000D03*
X188410000Y-101500000D03*
X190950000Y-101500000D03*
X193490000Y-101500000D03*
X196030000Y-101500000D03*
D15*
X146500000Y-53500000D03*
D16*
X143960000Y-53500000D03*
X141420000Y-53500000D03*
X138880000Y-53500000D03*
X136340000Y-53500000D03*
X133800000Y-53500000D03*
X131260000Y-53500000D03*
X128720000Y-53500000D03*
D15*
X170500000Y-53500000D03*
D16*
X167960000Y-53500000D03*
X165420000Y-53500000D03*
X162880000Y-53500000D03*
X160340000Y-53500000D03*
X157800000Y-53500000D03*
X155260000Y-53500000D03*
X152720000Y-53500000D03*
D15*
X194500000Y-53500000D03*
D16*
X191960000Y-53500000D03*
X189420000Y-53500000D03*
X186880000Y-53500000D03*
X184340000Y-53500000D03*
X181800000Y-53500000D03*
X179260000Y-53500000D03*
X176720000Y-53500000D03*
D11*
X194550000Y-67730000D03*
X194550000Y-65190000D03*
X194550000Y-61380000D03*
X194550000Y-58840000D03*
X176770000Y-67730000D03*
X176770000Y-39790000D03*
X194550000Y-39790000D03*
X176770000Y-63920000D03*
X176770000Y-61380000D03*
X176770000Y-58840000D03*
X176770000Y-56300000D03*
X146550000Y-67730000D03*
X146550000Y-65190000D03*
X146550000Y-61380000D03*
X146550000Y-58840000D03*
X128770000Y-67730000D03*
X128770000Y-39790000D03*
X146550000Y-39790000D03*
X128770000Y-63920000D03*
X128770000Y-61380000D03*
X128770000Y-58840000D03*
X128770000Y-56300000D03*
X204270000Y-103550000D03*
X206810000Y-103550000D03*
X210620000Y-103550000D03*
X213160000Y-103550000D03*
X204270000Y-85770000D03*
X232210000Y-85770000D03*
X232210000Y-103550000D03*
X208080000Y-85770000D03*
X210620000Y-85770000D03*
X213160000Y-85770000D03*
X215700000Y-85770000D03*
X204270000Y-80050000D03*
X206810000Y-80050000D03*
X210620000Y-80050000D03*
X213160000Y-80050000D03*
X204270000Y-62270000D03*
X232210000Y-62270000D03*
X232210000Y-80050000D03*
X208080000Y-62270000D03*
X210620000Y-62270000D03*
X213160000Y-62270000D03*
X215700000Y-62270000D03*
X154700000Y-76270000D03*
X154700000Y-78810000D03*
X154700000Y-82620000D03*
X154700000Y-85160000D03*
X172480000Y-76270000D03*
X172480000Y-104210000D03*
X154700000Y-104210000D03*
X172480000Y-80080000D03*
X172480000Y-82620000D03*
X172480000Y-85160000D03*
X172480000Y-87700000D03*
X176200000Y-76270000D03*
X176200000Y-78810000D03*
X176200000Y-82620000D03*
X176200000Y-85160000D03*
X193980000Y-76270000D03*
X193980000Y-104210000D03*
X176200000Y-104210000D03*
X193980000Y-80080000D03*
X193980000Y-82620000D03*
X193980000Y-85160000D03*
X193980000Y-87700000D03*
X133200000Y-76270000D03*
X133200000Y-78810000D03*
X133200000Y-82620000D03*
X133200000Y-85160000D03*
X150980000Y-76270000D03*
X150980000Y-104210000D03*
X133200000Y-104210000D03*
X150980000Y-80080000D03*
X150980000Y-82620000D03*
X150980000Y-85160000D03*
X150980000Y-87700000D03*
D15*
X111500000Y-61500000D03*
D16*
X111500000Y-58960000D03*
X111500000Y-56420000D03*
D15*
X111500000Y-44500000D03*
D16*
X111500000Y-41960000D03*
X111500000Y-39420000D03*
D15*
X111500000Y-53000000D03*
D16*
X111500000Y-50460000D03*
X111500000Y-47920000D03*
D17*
X124000000Y-91000000D03*
X124000000Y-93000000D03*
D18*
X130500000Y-90800000D03*
X130500000Y-96200000D03*
D19*
X120150000Y-88500000D03*
X115850000Y-88500000D03*
D20*
X110000000Y-94500000D03*
D21*
X110000000Y-99500000D03*
D22*
X183415000Y-80555000D03*
X188585000Y-80555000D03*
X183415000Y-81825000D03*
X188585000Y-81825000D03*
X183415000Y-83095000D03*
X188585000Y-83095000D03*
X183415000Y-84365000D03*
X188585000Y-84365000D03*
X183415000Y-85635000D03*
X188585000Y-85635000D03*
X183415000Y-86905000D03*
X188585000Y-86905000D03*
X183415000Y-88175000D03*
X188585000Y-88175000D03*
X183415000Y-89445000D03*
X188585000Y-89445000D03*
D17*
X138500000Y-70500000D03*
X138500000Y-68500000D03*
D18*
X134000000Y-72200000D03*
X134000000Y-66800000D03*
X138500000Y-80800000D03*
X138500000Y-86200000D03*
D17*
X143000000Y-82500000D03*
X143000000Y-84500000D03*
D20*
X110000000Y-69500000D03*
D21*
X110000000Y-74500000D03*
D23*
X117800000Y-70210000D03*
X117800000Y-74790000D03*
D24*
X125200000Y-72510000D03*
D23*
X127200000Y-83790000D03*
X127200000Y-79210000D03*
D24*
X119800000Y-81490000D03*
D25*
X224000000Y-96125000D03*
X228000000Y-96125000D03*
X232000000Y-96125000D03*
X222000000Y-91875000D03*
X226000000Y-91875000D03*
X230000000Y-91875000D03*
D26*
X137500000Y-99900000D03*
D27*
X145120000Y-99900000D03*
D28*
X122700000Y-64500000D03*
X120500000Y-64500000D03*
D29*
X126150000Y-64500000D03*
X124250000Y-64500000D03*
D30*
X203900000Y-71330000D03*
X203900000Y-72600000D03*
X203900000Y-73870000D03*
D31*
X178400000Y-62400000D03*
X172000000Y-63200000D03*
X143025000Y-82475000D03*
X229100000Y-65725000D03*
X202900000Y-42550000D03*
X202950000Y-100475000D03*
X119800000Y-81490000D03*
X117800000Y-71210000D03*
X119550000Y-70210000D03*
X117800000Y-69210000D03*
X116050000Y-70210000D03*
X117800000Y-70210000D03*
X116050000Y-71210000D03*
X119550000Y-71210000D03*
X119550000Y-69210000D03*
X116050000Y-69210000D03*
X120500000Y-64500000D03*
X130500000Y-96200000D03*
X124000000Y-93000000D03*
X143000000Y-84500000D03*
X138500000Y-86200000D03*
X222000000Y-91875000D03*
X171675000Y-55950000D03*
X138500000Y-68500000D03*
X134000000Y-66800000D03*
X165450000Y-51000000D03*
X209025000Y-69150000D03*
X170675000Y-80100000D03*
X170700000Y-76250000D03*
X188800000Y-85750000D03*
X190900000Y-88500000D03*
X191950000Y-88700000D03*
X192050000Y-86850000D03*
X188850000Y-89450000D03*
X226600000Y-83825000D03*
X224000000Y-96125000D03*
X226000000Y-91875000D03*
D32*
X172000000Y-63200000D02*
X174400000Y-65600000D01*
X177400000Y-65600000D02*
X174400000Y-65600000D01*
X179400000Y-63600000D02*
X177400000Y-65600000D01*
X179400000Y-63400000D02*
X179400000Y-63600000D01*
X179400000Y-63400000D02*
X178400000Y-62400000D01*
D33*
X143025000Y-82475000D02*
X143000000Y-82500000D01*
X201020000Y-47200000D02*
X201020000Y-44430000D01*
X232000000Y-89800000D02*
X232000000Y-96125000D01*
X230025000Y-87825000D02*
X232000000Y-89800000D01*
X230025000Y-66650000D02*
X230025000Y-87825000D01*
X229100000Y-65725000D02*
X230025000Y-66650000D01*
X201020000Y-44430000D02*
X202900000Y-42550000D01*
D34*
X198480000Y-47200000D02*
X201020000Y-47200000D01*
D33*
X143025000Y-82500000D02*
X143000000Y-82500000D01*
D35*
X232000000Y-96125000D02*
X232000000Y-98825000D01*
X232000000Y-98825000D02*
X230300000Y-100525000D01*
X230300000Y-100525000D02*
X203000000Y-100525000D01*
X203000000Y-100525000D02*
X202950000Y-100475000D01*
D36*
X143000000Y-82500000D02*
X143000000Y-82200000D01*
X143000000Y-82200000D02*
X141600000Y-80800000D01*
X141600000Y-80800000D02*
X138500000Y-80800000D01*
X127200000Y-79210000D02*
X129760000Y-79210000D01*
X131250000Y-80700000D02*
X138400000Y-80700000D01*
X129760000Y-79210000D02*
X131250000Y-80700000D01*
X138400000Y-80700000D02*
X138500000Y-80800000D01*
D33*
X117800000Y-70210000D02*
X116050000Y-70210000D01*
X116050000Y-70210000D02*
X116050000Y-69210000D01*
X116050000Y-69210000D02*
X117800000Y-69210000D01*
X117800000Y-69210000D02*
X119550000Y-69210000D01*
X119550000Y-69210000D02*
X119550000Y-70210000D01*
X119550000Y-70210000D02*
X119550000Y-71210000D01*
X119550000Y-71210000D02*
X117800000Y-71210000D01*
X117800000Y-71210000D02*
X116050000Y-71210000D01*
X116050000Y-71210000D02*
X116050000Y-70210000D01*
D35*
X117800000Y-70210000D02*
X117800000Y-71210000D01*
X119550000Y-70210000D02*
X117800000Y-70210000D01*
X117800000Y-70210000D02*
X117800000Y-69210000D01*
X116050000Y-70210000D02*
X117800000Y-70210000D01*
X116050000Y-71210000D02*
X117050000Y-70210000D01*
X117800000Y-70210000D02*
X118550000Y-70210000D01*
X118550000Y-70210000D02*
X119550000Y-71210000D01*
X119550000Y-69210000D02*
X117800000Y-70210000D01*
X117800000Y-70210000D02*
X117050000Y-70210000D01*
X117050000Y-70210000D02*
X116050000Y-69210000D01*
D37*
X110000000Y-99500000D02*
X108600000Y-99500000D01*
X111810000Y-81490000D02*
X119800000Y-81490000D01*
X105900000Y-87400000D02*
X111810000Y-81490000D01*
X105900000Y-96800000D02*
X105900000Y-87400000D01*
X108600000Y-99500000D02*
X105900000Y-96800000D01*
D36*
X141300000Y-86200000D02*
X138500000Y-86200000D01*
X143000000Y-84500000D02*
X141300000Y-86200000D01*
D33*
X145120000Y-99900000D02*
X146300000Y-99900000D01*
X146300000Y-99900000D02*
X147680000Y-98520000D01*
X145140000Y-95460000D02*
X147680000Y-95460000D01*
X145120000Y-99900000D02*
X145120000Y-95480000D01*
X145120000Y-95480000D02*
X145140000Y-95460000D01*
X222000000Y-91225000D02*
X222000000Y-91875000D01*
X176720000Y-53500000D02*
X174125000Y-53500000D01*
X174125000Y-53500000D02*
X171675000Y-55950000D01*
D34*
X133200000Y-104210000D02*
X150980000Y-104210000D01*
D38*
X124000000Y-93000000D02*
X127300000Y-93000000D01*
X127300000Y-93000000D02*
X130500000Y-96200000D01*
D39*
X130500000Y-96200000D02*
X130500000Y-101510000D01*
X130500000Y-101510000D02*
X133200000Y-104210000D01*
D37*
X110000000Y-99500000D02*
X113900000Y-99500000D01*
X113900000Y-99500000D02*
X115910000Y-101510000D01*
X115910000Y-101510000D02*
X130500000Y-101510000D01*
D34*
X130500000Y-101510000D02*
X133200000Y-104210000D01*
X176200000Y-104210000D02*
X177690000Y-104210000D01*
X178250000Y-103650000D02*
X178250000Y-101500000D01*
X177690000Y-104210000D02*
X178250000Y-103650000D01*
X172480000Y-104210000D02*
X172480000Y-102050000D01*
X172480000Y-102050000D02*
X173030000Y-101500000D01*
X176200000Y-104210000D02*
X172480000Y-104210000D01*
X193980000Y-104210000D02*
X193980000Y-104005000D01*
X193980000Y-104005000D02*
X193490000Y-103515000D01*
X193490000Y-103515000D02*
X193490000Y-101500000D01*
X193490000Y-101500000D02*
X196030000Y-101500000D01*
X190950000Y-101500000D02*
X193490000Y-101500000D01*
X188410000Y-101500000D02*
X190950000Y-101500000D01*
X185870000Y-101500000D02*
X188410000Y-101500000D01*
X183330000Y-101500000D02*
X185870000Y-101500000D01*
X180790000Y-101500000D02*
X183330000Y-101500000D01*
X178250000Y-101500000D02*
X181500000Y-101500000D01*
X181500000Y-101500000D02*
X180790000Y-101500000D01*
X173030000Y-101500000D02*
X178250000Y-101500000D01*
D33*
X176720000Y-53500000D02*
X179260000Y-53500000D01*
X134000000Y-66800000D02*
X136800000Y-66800000D01*
X136800000Y-66800000D02*
X138500000Y-68500000D01*
D39*
X170490000Y-101500000D02*
X173030000Y-101500000D01*
X167950000Y-101500000D02*
X170490000Y-101500000D01*
X162870000Y-101500000D02*
X167950000Y-101500000D01*
X160330000Y-101500000D02*
X162870000Y-101500000D01*
X157790000Y-101500000D02*
X160330000Y-101500000D01*
X155250000Y-101500000D02*
X157790000Y-101500000D01*
X154700000Y-104210000D02*
X154700000Y-102050000D01*
X154700000Y-102050000D02*
X155250000Y-101500000D01*
X150980000Y-104210000D02*
X154700000Y-104210000D01*
X147680000Y-95460000D02*
X147680000Y-98520000D01*
X147680000Y-98520000D02*
X147680000Y-100910000D01*
X147680000Y-100910000D02*
X150980000Y-104210000D01*
D35*
X162920000Y-47200000D02*
X162920000Y-51470000D01*
X143470000Y-51450000D02*
X141420000Y-53500000D01*
X162900000Y-51450000D02*
X143470000Y-51450000D01*
X162920000Y-51470000D02*
X162900000Y-51450000D01*
X160380000Y-47200000D02*
X160380000Y-50770000D01*
X141480000Y-50900000D02*
X138880000Y-53500000D01*
X160250000Y-50900000D02*
X141480000Y-50900000D01*
X160380000Y-50770000D02*
X160250000Y-50900000D01*
D32*
X128770000Y-61380000D02*
X134720000Y-61380000D01*
X138880000Y-57220000D02*
X138880000Y-53500000D01*
X134720000Y-61380000D02*
X138880000Y-57220000D01*
X136340000Y-53500000D02*
X136340000Y-52060000D01*
X138536000Y-49864000D02*
X138536000Y-47200000D01*
X136340000Y-52060000D02*
X138536000Y-49864000D01*
X128770000Y-58840000D02*
X131760000Y-58840000D01*
X133800000Y-56800000D02*
X133800000Y-53500000D01*
X131760000Y-58840000D02*
X133800000Y-56800000D01*
X133800000Y-53500000D02*
X133800000Y-52350000D01*
X135996000Y-50154000D02*
X135996000Y-47200000D01*
X133800000Y-52350000D02*
X135996000Y-50154000D01*
D35*
X183240000Y-47200000D02*
X183240000Y-50510000D01*
X182750000Y-51000000D02*
X165450000Y-51000000D01*
X183240000Y-50510000D02*
X182750000Y-51000000D01*
X162880000Y-53500000D02*
X162880000Y-55120000D01*
X156620000Y-61380000D02*
X152770000Y-61380000D01*
X162880000Y-55120000D02*
X156620000Y-61380000D01*
X185780000Y-47200000D02*
X185780000Y-51420000D01*
X164730000Y-51650000D02*
X162880000Y-53500000D01*
X185550000Y-51650000D02*
X164730000Y-51650000D01*
X185780000Y-51420000D02*
X185550000Y-51650000D01*
D32*
X189420000Y-53500000D02*
X189420000Y-55080000D01*
X189420000Y-55080000D02*
X176770000Y-67730000D01*
X188320000Y-47200000D02*
X188320000Y-48870000D01*
X189420000Y-49970000D02*
X189420000Y-53500000D01*
X188320000Y-48870000D02*
X189420000Y-49970000D01*
X186880000Y-53500000D02*
X186880000Y-55820000D01*
X181320000Y-61380000D02*
X176770000Y-61380000D01*
X186880000Y-55820000D02*
X181320000Y-61380000D01*
X176770000Y-58840000D02*
X180460000Y-58840000D01*
X181800000Y-57500000D02*
X181800000Y-53500000D01*
X180460000Y-58840000D02*
X181800000Y-57500000D01*
X173080000Y-47200000D02*
X173080000Y-44870000D01*
X113850000Y-50650000D02*
X111500000Y-53000000D01*
X113850000Y-49200000D02*
X113850000Y-50650000D01*
X118750000Y-44300000D02*
X113850000Y-49200000D01*
X172510000Y-44300000D02*
X118750000Y-44300000D01*
X173080000Y-44870000D02*
X172510000Y-44300000D01*
X175620000Y-47200000D02*
X175620000Y-44020000D01*
X118460000Y-43500000D02*
X111500000Y-50460000D01*
X175100000Y-43500000D02*
X118460000Y-43500000D01*
X175620000Y-44020000D02*
X175100000Y-43500000D01*
X178160000Y-47200000D02*
X178160000Y-43210000D01*
X112400000Y-44500000D02*
X111500000Y-44500000D01*
X114200000Y-42700000D02*
X112400000Y-44500000D01*
X177650000Y-42700000D02*
X114200000Y-42700000D01*
X178160000Y-43210000D02*
X177650000Y-42700000D01*
X180700000Y-47200000D02*
X180700000Y-42100000D01*
X180560000Y-41960000D02*
X111500000Y-41960000D01*
X180700000Y-42100000D02*
X180560000Y-41960000D01*
X168000000Y-47200000D02*
X168000000Y-45400000D01*
X122500000Y-48700000D02*
X112240000Y-58960000D01*
X122500000Y-46050000D02*
X122500000Y-48700000D01*
X123450000Y-45100000D02*
X122500000Y-46050000D01*
X167700000Y-45100000D02*
X123450000Y-45100000D01*
X168000000Y-45400000D02*
X167700000Y-45100000D01*
X112240000Y-58960000D02*
X111500000Y-58960000D01*
D35*
X199675000Y-66175000D02*
X198480000Y-64980000D01*
X206050000Y-66175000D02*
X199675000Y-66175000D01*
X209025000Y-69150000D02*
X206050000Y-66175000D01*
X213160000Y-85770000D02*
X213020000Y-85770000D01*
X202250000Y-58900000D02*
X201800000Y-58900000D01*
X208080000Y-60330000D02*
X206650000Y-58900000D01*
X206650000Y-58900000D02*
X202250000Y-58900000D01*
X208080000Y-62270000D02*
X208080000Y-60330000D01*
X199770000Y-58650000D02*
X198480000Y-57360000D01*
X201550000Y-58650000D02*
X199770000Y-58650000D01*
X201800000Y-58900000D02*
X201550000Y-58650000D01*
X210620000Y-62270000D02*
X210620000Y-62220000D01*
X210620000Y-62220000D02*
X206650000Y-58250000D01*
X206650000Y-58250000D02*
X201910000Y-58250000D01*
X201910000Y-58250000D02*
X201020000Y-57360000D01*
X213160000Y-62270000D02*
X213160000Y-62390000D01*
X213160000Y-62390000D02*
X212000000Y-63550000D01*
X212000000Y-63550000D02*
X203500000Y-63550000D01*
X203500000Y-63550000D02*
X202650000Y-62700000D01*
X202650000Y-62700000D02*
X202650000Y-61300000D01*
X202650000Y-61300000D02*
X202500000Y-61150000D01*
X202500000Y-61150000D02*
X199730000Y-61150000D01*
X199730000Y-61150000D02*
X198480000Y-59900000D01*
X198480000Y-49740000D02*
X198480000Y-49445000D01*
X198480000Y-49445000D02*
X199425000Y-48500000D01*
X199425000Y-48500000D02*
X201900000Y-48500000D01*
X201900000Y-48500000D02*
X204270000Y-46130000D01*
X204270000Y-46130000D02*
X204270000Y-38770000D01*
X201020000Y-49740000D02*
X202185000Y-49740000D01*
X208080000Y-43845000D02*
X208080000Y-38770000D01*
X202185000Y-49740000D02*
X208080000Y-43845000D01*
X198480000Y-52280000D02*
X198480000Y-52045000D01*
X198480000Y-52045000D02*
X199500000Y-51025000D01*
X199500000Y-51025000D02*
X202450000Y-51025000D01*
X202450000Y-51025000D02*
X210620000Y-42855000D01*
X210620000Y-42855000D02*
X210620000Y-38770000D01*
X198480000Y-54820000D02*
X198480000Y-54745000D01*
X198480000Y-54745000D02*
X199675000Y-53550000D01*
X199675000Y-53550000D02*
X202250000Y-53550000D01*
X202250000Y-53550000D02*
X213160000Y-42640000D01*
X213160000Y-42640000D02*
X213160000Y-38770000D01*
X201020000Y-64980000D02*
X201020000Y-64720000D01*
X201020000Y-64720000D02*
X200000000Y-63700000D01*
X200000000Y-63700000D02*
X196650000Y-63700000D01*
X196650000Y-63700000D02*
X196100000Y-64250000D01*
X196100000Y-64250000D02*
X196100000Y-68375000D01*
X196100000Y-68375000D02*
X194000000Y-70475000D01*
X194000000Y-70475000D02*
X190875000Y-70475000D01*
X190875000Y-70475000D02*
X186725000Y-74625000D01*
X186725000Y-74625000D02*
X174125000Y-74625000D01*
X174125000Y-74625000D02*
X172480000Y-76270000D01*
X170675000Y-80100000D02*
X170700000Y-80075000D01*
X170700000Y-80075000D02*
X170700000Y-76250000D01*
D34*
X210620000Y-103550000D02*
X213160000Y-103550000D01*
D39*
X210620000Y-80050000D02*
X213160000Y-80050000D01*
X170550000Y-61380000D02*
X170550000Y-58840000D01*
X180200000Y-72650000D02*
X180200000Y-72600000D01*
X180200000Y-72600000D02*
X180200000Y-72650000D01*
X180200000Y-72650000D02*
X180200000Y-72600000D01*
D36*
X192850000Y-60000000D02*
X193170000Y-60000000D01*
X193170000Y-60000000D02*
X194550000Y-61380000D01*
X192850000Y-60000000D02*
X193390000Y-60000000D01*
X193390000Y-60000000D02*
X194550000Y-58840000D01*
D37*
X162400000Y-72600000D02*
X180200000Y-72600000D01*
X180200000Y-72600000D02*
X185850000Y-72600000D01*
X185850000Y-72600000D02*
X189000000Y-69450000D01*
X192650000Y-60000000D02*
X192850000Y-60000000D01*
X189000000Y-63650000D02*
X192650000Y-60000000D01*
X189000000Y-69450000D02*
X189000000Y-63650000D01*
X192850000Y-60000000D02*
X193250000Y-60000000D01*
X149550000Y-61950000D02*
X149550000Y-60150000D01*
X149000000Y-59600000D02*
X147500000Y-59600000D01*
X149550000Y-60150000D02*
X149000000Y-59600000D01*
X162400000Y-73050000D02*
X162400000Y-72600000D01*
X162400000Y-72600000D02*
X162400000Y-66600000D01*
X168200000Y-60800000D02*
X170550000Y-60800000D01*
X162400000Y-66600000D02*
X168200000Y-60800000D01*
X170550000Y-60800000D02*
X170550000Y-61380000D01*
X149550000Y-61950000D02*
X149550000Y-64300000D01*
D39*
X148980000Y-61380000D02*
X149550000Y-61950000D01*
X146550000Y-61380000D02*
X148980000Y-61380000D01*
D37*
X158980000Y-82620000D02*
X154700000Y-82620000D01*
X162400000Y-79200000D02*
X158980000Y-82620000D01*
X162400000Y-73050000D02*
X162400000Y-79200000D01*
X161900000Y-72550000D02*
X162400000Y-73050000D01*
X151700000Y-72550000D02*
X161900000Y-72550000D01*
X149350000Y-70200000D02*
X151700000Y-72550000D01*
X149350000Y-67700000D02*
X149350000Y-70200000D01*
X149550000Y-67500000D02*
X149350000Y-67700000D01*
X149550000Y-64300000D02*
X149550000Y-67500000D01*
X154700000Y-85160000D02*
X154700000Y-82620000D01*
X130500000Y-90800000D02*
X147750000Y-90800000D01*
X154700000Y-89450000D02*
X154700000Y-85160000D01*
X153250000Y-90900000D02*
X154700000Y-89450000D01*
X147850000Y-90900000D02*
X153250000Y-90900000D01*
X147750000Y-90800000D02*
X147850000Y-90900000D01*
D39*
X146550000Y-61380000D02*
X146830000Y-61380000D01*
D34*
X146550000Y-58840000D02*
X146550000Y-61380000D01*
D39*
X133200000Y-85160000D02*
X133200000Y-82620000D01*
X130500000Y-87400000D02*
X130960000Y-87400000D01*
X130960000Y-87400000D02*
X133200000Y-85160000D01*
X130500000Y-90800000D02*
X130500000Y-87400000D01*
X130500000Y-87400000D02*
X130500000Y-87090000D01*
X130500000Y-87090000D02*
X127200000Y-83790000D01*
X120150000Y-88500000D02*
X121950000Y-88500000D01*
X121950000Y-88500000D02*
X124250000Y-90800000D01*
X124250000Y-90800000D02*
X130500000Y-90800000D01*
X110000000Y-94500000D02*
X110000000Y-90100000D01*
X111600000Y-88500000D02*
X115850000Y-88500000D01*
X110000000Y-90100000D02*
X111600000Y-88500000D01*
D35*
X155300000Y-95460000D02*
X155300000Y-93550000D01*
X178695000Y-80555000D02*
X183415000Y-80555000D01*
X177800000Y-81450000D02*
X178695000Y-80555000D01*
X177800000Y-85500000D02*
X177800000Y-81450000D01*
X174200000Y-89100000D02*
X177800000Y-85500000D01*
X159750000Y-89100000D02*
X174200000Y-89100000D01*
X155300000Y-93550000D02*
X159750000Y-89100000D01*
X188585000Y-80555000D02*
X185345000Y-80555000D01*
X178160000Y-93090000D02*
X178160000Y-95460000D01*
X180650000Y-90600000D02*
X178160000Y-93090000D01*
X184850000Y-90600000D02*
X180650000Y-90600000D01*
X185100000Y-90350000D02*
X184850000Y-90600000D01*
X185100000Y-80800000D02*
X185100000Y-90350000D01*
X185345000Y-80555000D02*
X185100000Y-80800000D01*
X157840000Y-95460000D02*
X157840000Y-91760000D01*
X179125000Y-81825000D02*
X183415000Y-81825000D01*
X178350000Y-82600000D02*
X179125000Y-81825000D01*
X178350000Y-85650000D02*
X178350000Y-82600000D01*
X174400000Y-89600000D02*
X178350000Y-85650000D01*
X160000000Y-89600000D02*
X174400000Y-89600000D01*
X157840000Y-91760000D02*
X160000000Y-89600000D01*
X180700000Y-95460000D02*
X180700000Y-92450000D01*
X186075000Y-81825000D02*
X188585000Y-81825000D01*
X185700000Y-82200000D02*
X186075000Y-81825000D01*
X185700000Y-90450000D02*
X185700000Y-82200000D01*
X185050000Y-91100000D02*
X185700000Y-90450000D01*
X182050000Y-91100000D02*
X185050000Y-91100000D01*
X180700000Y-92450000D02*
X182050000Y-91100000D01*
X160380000Y-95460000D02*
X160380000Y-91270000D01*
X180905000Y-83095000D02*
X183415000Y-83095000D01*
X179100000Y-84900000D02*
X180905000Y-83095000D01*
X179100000Y-85650000D02*
X179100000Y-84900000D01*
X174650000Y-90100000D02*
X179100000Y-85650000D01*
X161550000Y-90100000D02*
X174650000Y-90100000D01*
X160380000Y-91270000D02*
X161550000Y-90100000D01*
X183240000Y-95460000D02*
X183240000Y-91910000D01*
X186805000Y-83095000D02*
X188585000Y-83095000D01*
X186200000Y-83700000D02*
X186805000Y-83095000D01*
X186200000Y-90700000D02*
X186200000Y-83700000D01*
X185300000Y-91600000D02*
X186200000Y-90700000D01*
X183550000Y-91600000D02*
X185300000Y-91600000D01*
X183240000Y-91910000D02*
X183550000Y-91600000D01*
X183415000Y-84365000D02*
X180835000Y-84365000D01*
X162920000Y-92230000D02*
X162920000Y-95460000D01*
X164550000Y-90600000D02*
X162920000Y-92230000D01*
X174850000Y-90600000D02*
X164550000Y-90600000D01*
X179900000Y-85550000D02*
X174850000Y-90600000D01*
X179900000Y-85300000D02*
X179900000Y-85550000D01*
X180835000Y-84365000D02*
X179900000Y-85300000D01*
X188585000Y-84365000D02*
X186835000Y-84365000D01*
X185780000Y-91820000D02*
X185780000Y-95460000D01*
X186700000Y-90900000D02*
X185780000Y-91820000D01*
X186700000Y-84500000D02*
X186700000Y-90900000D01*
X186835000Y-84365000D02*
X186700000Y-84500000D01*
X165460000Y-95460000D02*
X165460000Y-92290000D01*
X180515000Y-85635000D02*
X183415000Y-85635000D01*
X175050000Y-91100000D02*
X180515000Y-85635000D01*
X166650000Y-91100000D02*
X175050000Y-91100000D01*
X165460000Y-92290000D02*
X166650000Y-91100000D01*
X188320000Y-95460000D02*
X188320000Y-92780000D01*
X188800000Y-85750000D02*
X188685000Y-85635000D01*
X190250000Y-89150000D02*
X190900000Y-88500000D01*
X190250000Y-90850000D02*
X190250000Y-89150000D01*
X188320000Y-92780000D02*
X190250000Y-90850000D01*
X188685000Y-85635000D02*
X188585000Y-85635000D01*
X168000000Y-95460000D02*
X168000000Y-93050000D01*
X179945000Y-86905000D02*
X183415000Y-86905000D01*
X175250000Y-91600000D02*
X179945000Y-86905000D01*
X169450000Y-91600000D02*
X175250000Y-91600000D01*
X168000000Y-93050000D02*
X169450000Y-91600000D01*
X188585000Y-86905000D02*
X191995000Y-86905000D01*
X190860000Y-89790000D02*
X190860000Y-95460000D01*
X191950000Y-88700000D02*
X190860000Y-89790000D01*
X191995000Y-86905000D02*
X192050000Y-86850000D01*
X190860000Y-95460000D02*
X190860000Y-94690000D01*
X188745000Y-86905000D02*
X188585000Y-86905000D01*
X170540000Y-95460000D02*
X170540000Y-93060000D01*
X179425000Y-88175000D02*
X183415000Y-88175000D01*
X175500000Y-92100000D02*
X179425000Y-88175000D01*
X171500000Y-92100000D02*
X175500000Y-92100000D01*
X170540000Y-93060000D02*
X171500000Y-92100000D01*
X188585000Y-88175000D02*
X189875000Y-88175000D01*
X193400000Y-89100000D02*
X193400000Y-95460000D01*
X192750000Y-88450000D02*
X193400000Y-89100000D01*
X192750000Y-88250000D02*
X192750000Y-88450000D01*
X192100000Y-87600000D02*
X192750000Y-88250000D01*
X190450000Y-87600000D02*
X192100000Y-87600000D01*
X189875000Y-88175000D02*
X190450000Y-87600000D01*
X188775000Y-88175000D02*
X188585000Y-88175000D01*
X188775000Y-88175000D02*
X188585000Y-88175000D01*
X173080000Y-95460000D02*
X173080000Y-93220000D01*
X178905000Y-89445000D02*
X183415000Y-89445000D01*
X175750000Y-92600000D02*
X178905000Y-89445000D01*
X173700000Y-92600000D02*
X175750000Y-92600000D01*
X173080000Y-93220000D02*
X173700000Y-92600000D01*
X188850000Y-89450000D02*
X188845000Y-89445000D01*
X188845000Y-89445000D02*
X188585000Y-89445000D01*
D32*
X126150000Y-64500000D02*
X126150000Y-67650000D01*
X126150000Y-67650000D02*
X125200000Y-68600000D01*
D34*
X206810000Y-80050000D02*
X206810000Y-76240000D01*
X209760000Y-59500000D02*
X206810000Y-56550000D01*
X216625000Y-59500000D02*
X209760000Y-59500000D01*
X217825000Y-60700000D02*
X216625000Y-59500000D01*
X217825000Y-65225000D02*
X217825000Y-60700000D01*
X206810000Y-76240000D02*
X217825000Y-65225000D01*
X206810000Y-80050000D02*
X206810000Y-80740000D01*
X206810000Y-80740000D02*
X205962500Y-81587500D01*
X207475000Y-83100000D02*
X205962500Y-81587500D01*
X205962500Y-81587500D02*
X204425000Y-80050000D01*
X225875000Y-83100000D02*
X207475000Y-83100000D01*
X226600000Y-83825000D02*
X225875000Y-83100000D01*
X204425000Y-80050000D02*
X204270000Y-80050000D01*
X204270000Y-56550000D02*
X206810000Y-56550000D01*
X204270000Y-103550000D02*
X203475000Y-103550000D01*
X198675000Y-98750000D02*
X196030000Y-98750000D01*
X203475000Y-103550000D02*
X198675000Y-98750000D01*
X193490000Y-98750000D02*
X196030000Y-98750000D01*
X190950000Y-98750000D02*
X192550000Y-98750000D01*
X192550000Y-98750000D02*
X193490000Y-98750000D01*
X188410000Y-98750000D02*
X190950000Y-98750000D01*
X185870000Y-98750000D02*
X188410000Y-98750000D01*
X183330000Y-98750000D02*
X185870000Y-98750000D01*
X180790000Y-98750000D02*
X183330000Y-98750000D01*
X178250000Y-98750000D02*
X180790000Y-98750000D01*
X173030000Y-98750000D02*
X178250000Y-98750000D01*
X170490000Y-98750000D02*
X173030000Y-98750000D01*
X167950000Y-98750000D02*
X170490000Y-98750000D01*
X165410000Y-98750000D02*
X167950000Y-98750000D01*
X162870000Y-98750000D02*
X165410000Y-98750000D01*
X160330000Y-98750000D02*
X162870000Y-98750000D01*
X157790000Y-98750000D02*
X160330000Y-98750000D01*
X155250000Y-98750000D02*
X157790000Y-98750000D01*
D39*
X204270000Y-103550000D02*
X206810000Y-103550000D01*
X204270000Y-80050000D02*
X206810000Y-80050000D01*
X167960000Y-53500000D02*
X170500000Y-53500000D01*
D34*
X170550000Y-67730000D02*
X171205000Y-67730000D01*
X171205000Y-67730000D02*
X173275000Y-69800000D01*
X191960000Y-55915000D02*
X191960000Y-53500000D01*
X185325000Y-62550000D02*
X191960000Y-55915000D01*
X185325000Y-63475000D02*
X185325000Y-62550000D01*
X185350000Y-63500000D02*
X185325000Y-63475000D01*
X185350000Y-65450000D02*
X185350000Y-63500000D01*
X181000000Y-69800000D02*
X185350000Y-65450000D01*
X173275000Y-69800000D02*
X181000000Y-69800000D01*
D33*
X194500000Y-53500000D02*
X191960000Y-53500000D01*
X194550000Y-65190000D02*
X194550000Y-64250000D01*
X195025000Y-56225000D02*
X195025000Y-54025000D01*
X196500000Y-57700000D02*
X195025000Y-56225000D01*
X196500000Y-62300000D02*
X196500000Y-57700000D01*
X194550000Y-64250000D02*
X196500000Y-62300000D01*
X195025000Y-54025000D02*
X194500000Y-53500000D01*
D39*
X143960000Y-53500000D02*
X143960000Y-62600000D01*
X143960000Y-62600000D02*
X146550000Y-65190000D01*
X143960000Y-53500000D02*
X146500000Y-53500000D01*
D34*
X146550000Y-67730000D02*
X146550000Y-65190000D01*
X139850000Y-70500000D02*
X145200000Y-70500000D01*
X145200000Y-70500000D02*
X146550000Y-69150000D01*
X146550000Y-69150000D02*
X146550000Y-67730000D01*
X133200000Y-76270000D02*
X133200000Y-78810000D01*
X138500000Y-70500000D02*
X139850000Y-70500000D01*
X138280000Y-76270000D02*
X133200000Y-76270000D01*
X139800000Y-74750000D02*
X138280000Y-76270000D01*
X139800000Y-70550000D02*
X139800000Y-74750000D01*
X139850000Y-70500000D02*
X139800000Y-70550000D01*
X134000000Y-72200000D02*
X136800000Y-72200000D01*
X136800000Y-72200000D02*
X138500000Y-70500000D01*
D39*
X125200000Y-72510000D02*
X133690000Y-72510000D01*
X133690000Y-72510000D02*
X134000000Y-72200000D01*
X110000000Y-69500000D02*
X110000000Y-69200000D01*
X110000000Y-69200000D02*
X112650000Y-66550000D01*
X112650000Y-66550000D02*
X123150000Y-66550000D01*
X123150000Y-66550000D02*
X125200000Y-68600000D01*
X125200000Y-68600000D02*
X125200000Y-72510000D01*
X110000000Y-74500000D02*
X117510000Y-74500000D01*
X117510000Y-74500000D02*
X117800000Y-74790000D01*
D35*
X198480000Y-87840000D02*
X198480000Y-87880000D01*
X198480000Y-87880000D02*
X199700000Y-89100000D01*
X199700000Y-89100000D02*
X205950000Y-89100000D01*
X205950000Y-89100000D02*
X216450000Y-99600000D01*
X216450000Y-99600000D02*
X226950000Y-99600000D01*
X226950000Y-99600000D02*
X228000000Y-98550000D01*
X228000000Y-98550000D02*
X228000000Y-96125000D01*
X230000000Y-91875000D02*
X230000000Y-89650000D01*
X228190000Y-87840000D02*
X201020000Y-87840000D01*
X230000000Y-89650000D02*
X228190000Y-87840000D01*
D33*
X137500000Y-99900000D02*
X137500000Y-95480000D01*
X137500000Y-95480000D02*
X137520000Y-95460000D01*
D32*
X122700000Y-64500000D02*
X124250000Y-64500000D01*
D35*
X198480000Y-77680000D02*
X198480000Y-77620000D01*
X198480000Y-77620000D02*
X199750000Y-76350000D01*
X199750000Y-76350000D02*
X199750000Y-71800000D01*
X199750000Y-71800000D02*
X200200000Y-71350000D01*
X200200000Y-71350000D02*
X203880000Y-71350000D01*
X203880000Y-71350000D02*
X203900000Y-71330000D01*
X201020000Y-77680000D02*
X201020000Y-77330000D01*
X201020000Y-77330000D02*
X202350000Y-76000000D01*
X202350000Y-76000000D02*
X202350000Y-72700000D01*
X202350000Y-72700000D02*
X202450000Y-72600000D01*
X202450000Y-72600000D02*
X203900000Y-72600000D01*
X198480000Y-80220000D02*
X198580000Y-80220000D01*
X198580000Y-80220000D02*
X199850000Y-78950000D01*
X199850000Y-78950000D02*
X201950000Y-78950000D01*
X201950000Y-78950000D02*
X202450000Y-78450000D01*
X202450000Y-78450000D02*
X202450000Y-77000000D01*
X202450000Y-77000000D02*
X203900000Y-75550000D01*
X203900000Y-75550000D02*
X203900000Y-73870000D01*
M02*
